M48
; DRILL file {KiCad 7.0.10-7.0.10~ubuntu22.04.1} date 2024年04月10日 12時24分59秒
; FORMAT={-:-/ absolute / metric / decimal}
; #@! TF.CreationDate,2024-04-10T12:24:59+09:00
; #@! TF.GenerationSoftware,Kicad,Pcbnew,7.0.10-7.0.10~ubuntu22.04.1
; #@! TF.FileFunction,MixedPlating,1,2
FMAT,2
METRIC
; #@! TA.AperFunction,Plated,PTH,ViaDrill
T1C0.400
; #@! TA.AperFunction,Plated,PTH,ComponentDrill
T2C0.600
; #@! TA.AperFunction,Plated,PTH,ComponentDrill
T3C0.700
; #@! TA.AperFunction,Plated,PTH,ComponentDrill
T4C0.800
; #@! TA.AperFunction,Plated,PTH,ComponentDrill
T5C0.900
; #@! TA.AperFunction,Plated,PTH,ComponentDrill
T6C1.000
; #@! TA.AperFunction,Plated,PTH,ComponentDrill
T7C1.100
; #@! TA.AperFunction,Plated,PTH,ComponentDrill
T8C1.120
; #@! TA.AperFunction,NonPlated,NPTH,ComponentDrill
T9C3.200
%
G90
G05
T1
X38.989Y-78.613
X40.982Y-56.261
X44.487Y-57.912
X47.803Y-67.513
X49.022Y-77.685
X65.123Y-38.382
X65.721Y-40.005
X66.548Y-37.846
X76.2Y-102.87
X76.954Y-97.536
X79.497Y-99.369
X80.835Y-69.977
X81.28Y-38.1
X83.095Y-39.878
X83.82Y-38.735
X85.073Y-79.24
X85.085Y-38.73
X85.471Y-98.171
X85.475Y-60.489
X86.143Y-96.012
X86.694Y-60.43
X86.736Y-77.221
X87.63Y-36.613
X88.015Y-60.939
X88.737Y-38.099
X89.285Y-60.379
X89.688Y-110.972
X90.555Y-61.389
X91.825Y-60.328
X93.095Y-61.839
X94.365Y-60.328
X94.996Y-49.657
X95.635Y-62.289
X96.905Y-52.07
X98.175Y-62.289
X99.496Y-62.543
X101.985Y-63.189
X102.159Y-86.97
X104.525Y-63.58
X107.116Y-64.037
X109.605Y-64.539
X112.094Y-64.9
X112.145Y-57.514
X114.631Y-65.713
X116.078Y-46.482
T3
X41.004Y-42.703
X41.004Y-50.323
X41.453Y-92.913
X49.073Y-92.913
X69.769Y-125.095
X77.389Y-125.095
X122.0Y-64.57
X122.0Y-72.19
T4
X33.638Y-40.443
X33.811Y-53.42
X33.811Y-68.66
X33.811Y-75.213
X33.811Y-90.453
X33.851Y-92.891
X33.877Y-71.962
X36.351Y-53.42
X36.351Y-68.66
X36.351Y-75.213
X36.351Y-90.453
X38.638Y-40.443
X38.684Y-98.784
X38.684Y-103.784
X38.851Y-92.891
X38.877Y-71.962
X38.891Y-53.42
X38.891Y-68.66
X38.891Y-75.213
X38.891Y-90.453
X41.431Y-53.42
X41.431Y-68.66
X41.431Y-75.213
X41.431Y-90.453
X41.507Y-96.168
X41.507Y-103.788
X41.838Y-71.962
X43.366Y-42.703
X43.366Y-50.323
X43.971Y-53.42
X43.971Y-68.66
X43.971Y-75.213
X43.971Y-90.453
X44.047Y-96.168
X44.047Y-103.788
X44.378Y-71.962
X46.511Y-53.42
X46.511Y-68.66
X46.511Y-75.213
X46.511Y-90.453
X46.587Y-96.168
X46.587Y-103.788
X46.918Y-71.962
X48.971Y-40.792
X48.971Y-48.412
X49.051Y-53.42
X49.051Y-68.66
X49.051Y-75.213
X49.051Y-90.453
X49.127Y-96.168
X49.127Y-103.788
X49.458Y-71.962
X51.591Y-53.42
X51.591Y-68.66
X51.591Y-75.213
X51.591Y-90.453
X51.667Y-96.168
X51.667Y-103.788
X51.998Y-71.962
X54.131Y-53.42
X54.131Y-68.66
X54.131Y-75.213
X54.131Y-90.453
X54.207Y-96.168
X54.207Y-103.788
X54.538Y-71.962
X56.591Y-40.792
X56.591Y-48.412
X56.671Y-53.42
X56.671Y-68.66
X56.671Y-75.213
X56.671Y-90.453
X56.747Y-96.168
X56.747Y-103.788
X57.078Y-71.962
X59.211Y-53.42
X59.211Y-68.66
X59.211Y-75.213
X59.211Y-90.453
X59.287Y-96.168
X59.287Y-103.788
X59.618Y-71.962
X61.751Y-53.42
X61.751Y-68.66
X61.751Y-75.213
X61.751Y-90.453
X61.827Y-96.168
X61.827Y-103.788
X62.158Y-71.962
X64.291Y-53.42
X64.291Y-68.66
X64.291Y-75.213
X64.291Y-90.453
X64.367Y-96.168
X64.367Y-103.788
X66.831Y-53.42
X66.831Y-68.66
X66.831Y-75.213
X66.831Y-90.453
X66.907Y-96.168
X66.907Y-103.788
X69.371Y-53.42
X69.371Y-68.66
X69.371Y-75.213
X69.371Y-90.453
X69.447Y-96.168
X69.447Y-103.788
X71.911Y-53.42
X71.911Y-68.66
X71.911Y-75.213
X71.911Y-90.453
X71.987Y-96.168
X71.987Y-103.788
X74.451Y-53.42
X74.451Y-68.66
X74.451Y-75.213
X74.451Y-90.453
X74.527Y-96.168
X74.527Y-103.788
X76.991Y-53.42
X76.991Y-68.66
X76.991Y-75.213
X76.991Y-90.453
X79.531Y-53.42
X79.531Y-68.66
X79.531Y-75.213
X79.531Y-90.453
X82.071Y-53.42
X82.071Y-68.66
X82.071Y-75.213
X82.071Y-90.453
X85.475Y-53.47
X85.475Y-68.71
X85.497Y-75.28
X85.497Y-90.52
X85.581Y-93.765
X85.581Y-101.385
X85.616Y-104.169
X85.678Y-106.963
X85.678Y-114.583
X88.015Y-53.47
X88.015Y-68.71
X88.037Y-75.28
X88.037Y-90.52
X88.121Y-93.765
X88.121Y-101.385
X88.218Y-106.963
X88.218Y-114.583
X90.555Y-53.47
X90.555Y-68.71
X90.577Y-75.28
X90.577Y-90.52
X90.616Y-104.169
X90.661Y-93.765
X90.661Y-101.385
X90.758Y-106.963
X90.758Y-114.583
X93.095Y-53.47
X93.095Y-68.71
X93.117Y-75.28
X93.117Y-90.52
X93.201Y-93.765
X93.201Y-101.385
X93.298Y-106.963
X93.298Y-114.583
X95.635Y-53.47
X95.635Y-68.71
X95.657Y-75.28
X95.657Y-90.52
X95.741Y-93.765
X95.741Y-101.385
X95.832Y-104.179
X95.838Y-106.963
X95.838Y-114.583
X97.845Y-42.65
X97.845Y-47.65
X98.175Y-53.47
X98.175Y-68.71
X98.197Y-75.28
X98.197Y-90.52
X98.281Y-93.765
X98.281Y-101.385
X98.378Y-106.963
X98.378Y-114.583
X100.715Y-42.65
X100.715Y-50.27
X100.715Y-53.47
X100.715Y-68.71
X100.737Y-75.28
X100.737Y-90.52
X100.821Y-93.765
X100.821Y-101.385
X100.832Y-104.179
X100.918Y-106.963
X100.918Y-114.583
X103.255Y-42.65
X103.255Y-50.27
X103.255Y-53.47
X103.255Y-68.71
X103.277Y-75.28
X103.277Y-90.52
X103.839Y-109.583
X103.839Y-114.583
X105.795Y-42.65
X105.795Y-50.27
X105.795Y-53.47
X105.795Y-68.71
X105.817Y-75.28
X105.817Y-90.52
X108.335Y-42.65
X108.335Y-50.27
X108.335Y-53.47
X108.335Y-68.71
X108.357Y-75.28
X108.357Y-90.52
X110.875Y-42.65
X110.875Y-50.27
X110.875Y-53.47
X110.875Y-68.71
X110.897Y-75.28
X110.897Y-90.52
X113.415Y-42.65
X113.415Y-50.27
X113.415Y-53.47
X113.415Y-68.71
X113.437Y-75.28
X113.437Y-90.52
X113.506Y-71.53
X113.516Y-93.348
X115.955Y-42.65
X115.955Y-50.27
X115.955Y-53.47
X115.955Y-68.71
X115.977Y-75.28
X115.977Y-90.52
X116.88Y-118.408
X118.495Y-42.65
X118.495Y-50.27
X118.495Y-53.47
X118.495Y-68.71
X118.506Y-71.53
X118.516Y-93.348
X118.517Y-75.28
X118.517Y-90.52
X119.38Y-118.408
X121.88Y-118.408
T5
X40.64Y-35.56
X48.895Y-35.56
T6
X38.942Y-106.541
X38.942Y-121.781
X41.482Y-106.541
X41.482Y-121.781
X44.022Y-106.541
X44.022Y-121.781
X46.562Y-106.541
X46.562Y-121.781
X49.102Y-106.541
X49.102Y-121.781
X51.642Y-106.541
X51.642Y-121.781
X54.182Y-106.541
X54.182Y-121.781
X55.88Y-33.02
X55.88Y-35.56
X56.722Y-106.541
X56.722Y-121.781
X58.42Y-33.02
X58.42Y-35.56
X59.262Y-106.541
X59.262Y-121.781
X60.96Y-33.02
X60.96Y-35.56
X61.802Y-106.541
X61.802Y-121.781
X63.5Y-33.02
X63.5Y-35.56
X64.342Y-106.541
X64.342Y-121.781
X64.364Y-125.171
X66.04Y-33.02
X66.04Y-35.56
X66.882Y-106.541
X66.882Y-121.781
X66.904Y-125.171
X68.58Y-33.02
X68.58Y-35.56
X69.422Y-106.541
X69.422Y-121.781
X71.12Y-33.02
X71.12Y-35.56
X71.962Y-106.541
X71.962Y-121.781
X73.66Y-33.02
X73.66Y-35.56
X74.502Y-106.541
X74.502Y-121.781
X76.2Y-33.02
X76.2Y-35.56
X78.74Y-33.02
X78.74Y-35.56
X81.28Y-33.02
X81.28Y-35.56
X83.14Y-119.806
X83.82Y-33.02
X83.82Y-35.56
X85.68Y-119.806
X86.36Y-33.02
X86.36Y-35.56
X88.22Y-119.806
X88.9Y-33.02
X88.9Y-35.56
X90.76Y-119.806
X91.44Y-33.02
X91.44Y-35.56
X93.3Y-119.806
X93.98Y-33.02
X93.98Y-35.56
X95.84Y-119.806
X96.52Y-33.02
X96.52Y-35.56
X99.06Y-33.02
X99.06Y-35.56
X101.6Y-33.02
X101.6Y-35.56
X104.14Y-33.02
X104.14Y-35.56
X111.379Y-105.953
X111.379Y-110.953
X122.0Y-75.314
X122.0Y-77.854
T7
X33.862Y-43.262
X33.862Y-49.762
X38.362Y-43.262
X38.362Y-49.762
T8
X119.085Y-108.5
X119.085Y-112.1
T9
X33.0Y-33.0
X33.0Y-99.0
X33.0Y-127.0
X122.0Y-33.0
X122.0Y-99.0
X122.0Y-127.0
T2
G00X123.235Y-105.98
M15
G01X122.535Y-105.98
M16
G05
G00X123.235Y-114.61
M15
G01X122.535Y-114.61
M16
G05
M30
