%TF.GenerationSoftware,KiCad,Pcbnew,7.0.10-7.0.10~ubuntu22.04.1*%
%TF.CreationDate,2024-04-10T12:25:00+09:00*%
%TF.ProjectId,sbc6502a1,73626336-3530-4326-9131-2e6b69636164,rev?*%
%TF.SameCoordinates,Original*%
%TF.FileFunction,Drillmap*%
%TF.FilePolarity,Positive*%
%FSLAX45Y45*%
G04 Gerber Fmt 4.5, Leading zero omitted, Abs format (unit mm)*
G04 Created by KiCad (PCBNEW 7.0.10-7.0.10~ubuntu22.04.1) date 2024-04-10 12:25:00*
%MOMM*%
%LPD*%
G01*
G04 APERTURE LIST*
%ADD10C,0.100000*%
%ADD11C,0.200000*%
%ADD12C,0.110000*%
%ADD13C,0.112000*%
%ADD14C,0.320000*%
G04 APERTURE END LIST*
D10*
X3000000Y-3000000D02*
X12500000Y-3000000D01*
X12500000Y-13000000D01*
X3000000Y-13000000D01*
X3000000Y-3000000D01*
D11*
D10*
X3878900Y-7841300D02*
X3918900Y-7881300D01*
X3918900Y-7841300D02*
X3878900Y-7881300D01*
X4078200Y-5606100D02*
X4118200Y-5646100D01*
X4118200Y-5606100D02*
X4078200Y-5646100D01*
X4428700Y-5771200D02*
X4468700Y-5811200D01*
X4468700Y-5771200D02*
X4428700Y-5811200D01*
X4760280Y-6731320D02*
X4800280Y-6771320D01*
X4800280Y-6731320D02*
X4760280Y-6771320D01*
X4882200Y-7748500D02*
X4922200Y-7788500D01*
X4922200Y-7748500D02*
X4882200Y-7788500D01*
X6492335Y-3818165D02*
X6532335Y-3858165D01*
X6532335Y-3818165D02*
X6492335Y-3858165D01*
X6552140Y-3980500D02*
X6592140Y-4020500D01*
X6592140Y-3980500D02*
X6552140Y-4020500D01*
X6634800Y-3764600D02*
X6674800Y-3804600D01*
X6674800Y-3764600D02*
X6634800Y-3804600D01*
X7600000Y-10267000D02*
X7640000Y-10307000D01*
X7640000Y-10267000D02*
X7600000Y-10307000D01*
X7675400Y-9733600D02*
X7715400Y-9773600D01*
X7715400Y-9733600D02*
X7675400Y-9773600D01*
X7929735Y-9916945D02*
X7969735Y-9956945D01*
X7969735Y-9916945D02*
X7929735Y-9956945D01*
X8063550Y-6977700D02*
X8103550Y-7017700D01*
X8103550Y-6977700D02*
X8063550Y-7017700D01*
X8108000Y-3790000D02*
X8148000Y-3830000D01*
X8148000Y-3790000D02*
X8108000Y-3830000D01*
X8289500Y-3967800D02*
X8329500Y-4007800D01*
X8329500Y-3967800D02*
X8289500Y-4007800D01*
X8362000Y-3853500D02*
X8402000Y-3893500D01*
X8402000Y-3853500D02*
X8362000Y-3893500D01*
X8487315Y-7904005D02*
X8527315Y-7944005D01*
X8527315Y-7904005D02*
X8487315Y-7944005D01*
X8488535Y-3853035D02*
X8528535Y-3893035D01*
X8528535Y-3853035D02*
X8488535Y-3893035D01*
X8527100Y-9797100D02*
X8567100Y-9837100D01*
X8567100Y-9797100D02*
X8527100Y-9837100D01*
X8527480Y-6028860D02*
X8567480Y-6068860D01*
X8567480Y-6028860D02*
X8527480Y-6068860D01*
X8594300Y-9581200D02*
X8634300Y-9621200D01*
X8634300Y-9581200D02*
X8594300Y-9621200D01*
X8649400Y-6023000D02*
X8689400Y-6063000D01*
X8689400Y-6023000D02*
X8649400Y-6063000D01*
X8653635Y-7702065D02*
X8693635Y-7742065D01*
X8693635Y-7702065D02*
X8653635Y-7742065D01*
X8743000Y-3641300D02*
X8783000Y-3681300D01*
X8783000Y-3641300D02*
X8743000Y-3681300D01*
X8781480Y-6073860D02*
X8821480Y-6113860D01*
X8821480Y-6073860D02*
X8781480Y-6113860D01*
X8853715Y-3789885D02*
X8893715Y-3829885D01*
X8893715Y-3789885D02*
X8853715Y-3829885D01*
X8908480Y-6017920D02*
X8948480Y-6057920D01*
X8948480Y-6017920D02*
X8908480Y-6057920D01*
X8948760Y-11077240D02*
X8988760Y-11117240D01*
X8988760Y-11077240D02*
X8948760Y-11117240D01*
X9035480Y-6118860D02*
X9075480Y-6158860D01*
X9075480Y-6118860D02*
X9035480Y-6158860D01*
X9162480Y-6012840D02*
X9202480Y-6052840D01*
X9202480Y-6012840D02*
X9162480Y-6052840D01*
X9289480Y-6163860D02*
X9329480Y-6203860D01*
X9329480Y-6163860D02*
X9289480Y-6203860D01*
X9416480Y-6012840D02*
X9456480Y-6052840D01*
X9456480Y-6012840D02*
X9416480Y-6052840D01*
X9479600Y-4945700D02*
X9519600Y-4985700D01*
X9519600Y-4945700D02*
X9479600Y-4985700D01*
X9543480Y-6208860D02*
X9583480Y-6248860D01*
X9583480Y-6208860D02*
X9543480Y-6248860D01*
X9670480Y-5187000D02*
X9710480Y-5227000D01*
X9710480Y-5187000D02*
X9670480Y-5227000D01*
X9797480Y-6208860D02*
X9837480Y-6248860D01*
X9837480Y-6208860D02*
X9797480Y-6248860D01*
X9929560Y-6234280D02*
X9969560Y-6274280D01*
X9969560Y-6234280D02*
X9929560Y-6274280D01*
X10178480Y-6298860D02*
X10218480Y-6338860D01*
X10218480Y-6298860D02*
X10178480Y-6338860D01*
X10195880Y-8676960D02*
X10235880Y-8716960D01*
X10235880Y-8676960D02*
X10195880Y-8716960D01*
X10432480Y-6337960D02*
X10472480Y-6377960D01*
X10472480Y-6337960D02*
X10432480Y-6377960D01*
X10691560Y-6383680D02*
X10731560Y-6423680D01*
X10731560Y-6383680D02*
X10691560Y-6423680D01*
X10940480Y-6433860D02*
X10980480Y-6473860D01*
X10980480Y-6433860D02*
X10940480Y-6473860D01*
X11189400Y-6470040D02*
X11229400Y-6510040D01*
X11229400Y-6470040D02*
X11189400Y-6510040D01*
X11194480Y-5731360D02*
X11234480Y-5771360D01*
X11234480Y-5731360D02*
X11194480Y-5771360D01*
X11443060Y-6551320D02*
X11483060Y-6591320D01*
X11483060Y-6551320D02*
X11443060Y-6591320D01*
X11587800Y-4628200D02*
X11627800Y-4668200D01*
X11627800Y-4628200D02*
X11587800Y-4668200D01*
X12318546Y-10598000D02*
G75*
G03*
X12258546Y-10598000I-30000J0D01*
G01*
X12258546Y-10598000D02*
G75*
G03*
X12318546Y-10598000I30000J0D01*
G01*
X12323546Y-10568000D02*
X12253546Y-10568000D01*
X12253546Y-10568000D02*
G75*
G03*
X12253546Y-10628000I0J-30000D01*
G01*
X12253546Y-10628000D02*
X12323546Y-10628000D01*
X12323546Y-10628000D02*
G75*
G03*
X12323546Y-10568000I0J30000D01*
G01*
X12318546Y-11461000D02*
G75*
G03*
X12258546Y-11461000I-30000J0D01*
G01*
X12258546Y-11461000D02*
G75*
G03*
X12318546Y-11461000I30000J0D01*
G01*
X12323546Y-11431000D02*
X12253546Y-11431000D01*
X12253546Y-11431000D02*
G75*
G03*
X12253546Y-11491000I0J-30000D01*
G01*
X12253546Y-11491000D02*
X12323546Y-11491000D01*
X12323546Y-11491000D02*
G75*
G03*
X12323546Y-11431000I0J30000D01*
G01*
X4100360Y-4235320D02*
X4100360Y-4305320D01*
X4065360Y-4270320D02*
X4135360Y-4270320D01*
X4100360Y-4997320D02*
X4100360Y-5067320D01*
X4065360Y-5032320D02*
X4135360Y-5032320D01*
X4145280Y-9256320D02*
X4145280Y-9326320D01*
X4110280Y-9291320D02*
X4180280Y-9291320D01*
X4907280Y-9256320D02*
X4907280Y-9326320D01*
X4872280Y-9291320D02*
X4942280Y-9291320D01*
X6976880Y-12474500D02*
X6976880Y-12544500D01*
X6941880Y-12509500D02*
X7011880Y-12509500D01*
X7738880Y-12474500D02*
X7738880Y-12544500D01*
X7703880Y-12509500D02*
X7773880Y-12509500D01*
X12200000Y-6422020D02*
X12200000Y-6492020D01*
X12165000Y-6457020D02*
X12235000Y-6457020D01*
X12200000Y-7184020D02*
X12200000Y-7254020D01*
X12165000Y-7219020D02*
X12235000Y-7219020D01*
X3392044Y-4072544D02*
X3392044Y-4015975D01*
X3335475Y-4015975D01*
X3335475Y-4072544D01*
X3392044Y-4072544D01*
X3409404Y-5370245D02*
X3409404Y-5313676D01*
X3352835Y-5313676D01*
X3352835Y-5370245D01*
X3409404Y-5370245D01*
X3409404Y-6894244D02*
X3409404Y-6837675D01*
X3352835Y-6837675D01*
X3352835Y-6894244D01*
X3409404Y-6894244D01*
X3409404Y-7549564D02*
X3409404Y-7492995D01*
X3352835Y-7492995D01*
X3352835Y-7549564D01*
X3409404Y-7549564D01*
X3409404Y-9073565D02*
X3409404Y-9016996D01*
X3352835Y-9016996D01*
X3352835Y-9073565D01*
X3409404Y-9073565D01*
X3413404Y-9317405D02*
X3413404Y-9260836D01*
X3356835Y-9260836D01*
X3356835Y-9317405D01*
X3413404Y-9317405D01*
X3415944Y-7224444D02*
X3415944Y-7167875D01*
X3359375Y-7167875D01*
X3359375Y-7224444D01*
X3415944Y-7224444D01*
X3663404Y-5370245D02*
X3663404Y-5313676D01*
X3606835Y-5313676D01*
X3606835Y-5370245D01*
X3663404Y-5370245D01*
X3663404Y-6894244D02*
X3663404Y-6837675D01*
X3606835Y-6837675D01*
X3606835Y-6894244D01*
X3663404Y-6894244D01*
X3663404Y-7549564D02*
X3663404Y-7492995D01*
X3606835Y-7492995D01*
X3606835Y-7549564D01*
X3663404Y-7549564D01*
X3663404Y-9073565D02*
X3663404Y-9016996D01*
X3606835Y-9016996D01*
X3606835Y-9073565D01*
X3663404Y-9073565D01*
X3892044Y-4072544D02*
X3892044Y-4015975D01*
X3835475Y-4015975D01*
X3835475Y-4072544D01*
X3892044Y-4072544D01*
X3896704Y-9906725D02*
X3896704Y-9850156D01*
X3840135Y-9850156D01*
X3840135Y-9906725D01*
X3896704Y-9906725D01*
X3896704Y-10406725D02*
X3896704Y-10350156D01*
X3840135Y-10350156D01*
X3840135Y-10406725D01*
X3896704Y-10406725D01*
X3913404Y-9317405D02*
X3913404Y-9260836D01*
X3856835Y-9260836D01*
X3856835Y-9317405D01*
X3913404Y-9317405D01*
X3915944Y-7224444D02*
X3915944Y-7167875D01*
X3859375Y-7167875D01*
X3859375Y-7224444D01*
X3915944Y-7224444D01*
X3917404Y-5370245D02*
X3917404Y-5313676D01*
X3860835Y-5313676D01*
X3860835Y-5370245D01*
X3917404Y-5370245D01*
X3917404Y-6894244D02*
X3917404Y-6837675D01*
X3860835Y-6837675D01*
X3860835Y-6894244D01*
X3917404Y-6894244D01*
X3917404Y-7549564D02*
X3917404Y-7492995D01*
X3860835Y-7492995D01*
X3860835Y-7549564D01*
X3917404Y-7549564D01*
X3917404Y-9073565D02*
X3917404Y-9016996D01*
X3860835Y-9016996D01*
X3860835Y-9073565D01*
X3917404Y-9073565D01*
X4171404Y-5370245D02*
X4171404Y-5313676D01*
X4114835Y-5313676D01*
X4114835Y-5370245D01*
X4171404Y-5370245D01*
X4171404Y-6894244D02*
X4171404Y-6837675D01*
X4114835Y-6837675D01*
X4114835Y-6894244D01*
X4171404Y-6894244D01*
X4171404Y-7549564D02*
X4171404Y-7492995D01*
X4114835Y-7492995D01*
X4114835Y-7549564D01*
X4171404Y-7549564D01*
X4171404Y-9073565D02*
X4171404Y-9016996D01*
X4114835Y-9016996D01*
X4114835Y-9073565D01*
X4171404Y-9073565D01*
X4179024Y-9645065D02*
X4179024Y-9588496D01*
X4122455Y-9588496D01*
X4122455Y-9645065D01*
X4179024Y-9645065D01*
X4179024Y-10407065D02*
X4179024Y-10350496D01*
X4122455Y-10350496D01*
X4122455Y-10407065D01*
X4179024Y-10407065D01*
X4212045Y-7224444D02*
X4212045Y-7167875D01*
X4155475Y-7167875D01*
X4155475Y-7224444D01*
X4212045Y-7224444D01*
X4364865Y-4298605D02*
X4364865Y-4242036D01*
X4308296Y-4242036D01*
X4308296Y-4298605D01*
X4364865Y-4298605D01*
X4364865Y-5060605D02*
X4364865Y-5004036D01*
X4308296Y-5004036D01*
X4308296Y-5060605D01*
X4364865Y-5060605D01*
X4425405Y-5370245D02*
X4425405Y-5313676D01*
X4368836Y-5313676D01*
X4368836Y-5370245D01*
X4425405Y-5370245D01*
X4425405Y-6894244D02*
X4425405Y-6837675D01*
X4368836Y-6837675D01*
X4368836Y-6894244D01*
X4425405Y-6894244D01*
X4425405Y-7549564D02*
X4425405Y-7492995D01*
X4368836Y-7492995D01*
X4368836Y-7549564D01*
X4425405Y-7549564D01*
X4425405Y-9073565D02*
X4425405Y-9016996D01*
X4368836Y-9016996D01*
X4368836Y-9073565D01*
X4425405Y-9073565D01*
X4433025Y-9645065D02*
X4433025Y-9588496D01*
X4376456Y-9588496D01*
X4376456Y-9645065D01*
X4433025Y-9645065D01*
X4433025Y-10407065D02*
X4433025Y-10350496D01*
X4376456Y-10350496D01*
X4376456Y-10407065D01*
X4433025Y-10407065D01*
X4466045Y-7224444D02*
X4466045Y-7167875D01*
X4409476Y-7167875D01*
X4409476Y-7224444D01*
X4466045Y-7224444D01*
X4679405Y-5370245D02*
X4679405Y-5313676D01*
X4622836Y-5313676D01*
X4622836Y-5370245D01*
X4679405Y-5370245D01*
X4679405Y-6894244D02*
X4679405Y-6837675D01*
X4622836Y-6837675D01*
X4622836Y-6894244D01*
X4679405Y-6894244D01*
X4679405Y-7549564D02*
X4679405Y-7492995D01*
X4622836Y-7492995D01*
X4622836Y-7549564D01*
X4679405Y-7549564D01*
X4679405Y-9073565D02*
X4679405Y-9016996D01*
X4622836Y-9016996D01*
X4622836Y-9073565D01*
X4679405Y-9073565D01*
X4687025Y-9645065D02*
X4687025Y-9588496D01*
X4630456Y-9588496D01*
X4630456Y-9645065D01*
X4687025Y-9645065D01*
X4687025Y-10407065D02*
X4687025Y-10350496D01*
X4630456Y-10350496D01*
X4630456Y-10407065D01*
X4687025Y-10407065D01*
X4720045Y-7224444D02*
X4720045Y-7167875D01*
X4663476Y-7167875D01*
X4663476Y-7224444D01*
X4720045Y-7224444D01*
X4925405Y-4107524D02*
X4925405Y-4050955D01*
X4868836Y-4050955D01*
X4868836Y-4107524D01*
X4925405Y-4107524D01*
X4925405Y-4869525D02*
X4925405Y-4812956D01*
X4868836Y-4812956D01*
X4868836Y-4869525D01*
X4925405Y-4869525D01*
X4933405Y-5370245D02*
X4933405Y-5313676D01*
X4876836Y-5313676D01*
X4876836Y-5370245D01*
X4933405Y-5370245D01*
X4933405Y-6894244D02*
X4933405Y-6837675D01*
X4876836Y-6837675D01*
X4876836Y-6894244D01*
X4933405Y-6894244D01*
X4933405Y-7549564D02*
X4933405Y-7492995D01*
X4876836Y-7492995D01*
X4876836Y-7549564D01*
X4933405Y-7549564D01*
X4933405Y-9073565D02*
X4933405Y-9016996D01*
X4876836Y-9016996D01*
X4876836Y-9073565D01*
X4933405Y-9073565D01*
X4941025Y-9645065D02*
X4941025Y-9588496D01*
X4884456Y-9588496D01*
X4884456Y-9645065D01*
X4941025Y-9645065D01*
X4941025Y-10407065D02*
X4941025Y-10350496D01*
X4884456Y-10350496D01*
X4884456Y-10407065D01*
X4941025Y-10407065D01*
X4974045Y-7224444D02*
X4974045Y-7167875D01*
X4917476Y-7167875D01*
X4917476Y-7224444D01*
X4974045Y-7224444D01*
X5187405Y-5370245D02*
X5187405Y-5313676D01*
X5130836Y-5313676D01*
X5130836Y-5370245D01*
X5187405Y-5370245D01*
X5187405Y-6894244D02*
X5187405Y-6837675D01*
X5130836Y-6837675D01*
X5130836Y-6894244D01*
X5187405Y-6894244D01*
X5187405Y-7549564D02*
X5187405Y-7492995D01*
X5130836Y-7492995D01*
X5130836Y-7549564D01*
X5187405Y-7549564D01*
X5187405Y-9073565D02*
X5187405Y-9016996D01*
X5130836Y-9016996D01*
X5130836Y-9073565D01*
X5187405Y-9073565D01*
X5195025Y-9645065D02*
X5195025Y-9588496D01*
X5138456Y-9588496D01*
X5138456Y-9645065D01*
X5195025Y-9645065D01*
X5195025Y-10407065D02*
X5195025Y-10350496D01*
X5138456Y-10350496D01*
X5138456Y-10407065D01*
X5195025Y-10407065D01*
X5228045Y-7224444D02*
X5228045Y-7167875D01*
X5171476Y-7167875D01*
X5171476Y-7224444D01*
X5228045Y-7224444D01*
X5441405Y-5370245D02*
X5441405Y-5313676D01*
X5384836Y-5313676D01*
X5384836Y-5370245D01*
X5441405Y-5370245D01*
X5441405Y-6894244D02*
X5441405Y-6837675D01*
X5384836Y-6837675D01*
X5384836Y-6894244D01*
X5441405Y-6894244D01*
X5441405Y-7549564D02*
X5441405Y-7492995D01*
X5384836Y-7492995D01*
X5384836Y-7549564D01*
X5441405Y-7549564D01*
X5441405Y-9073565D02*
X5441405Y-9016996D01*
X5384836Y-9016996D01*
X5384836Y-9073565D01*
X5441405Y-9073565D01*
X5449025Y-9645065D02*
X5449025Y-9588496D01*
X5392456Y-9588496D01*
X5392456Y-9645065D01*
X5449025Y-9645065D01*
X5449025Y-10407065D02*
X5449025Y-10350496D01*
X5392456Y-10350496D01*
X5392456Y-10407065D01*
X5449025Y-10407065D01*
X5482045Y-7224444D02*
X5482045Y-7167875D01*
X5425476Y-7167875D01*
X5425476Y-7224444D01*
X5482045Y-7224444D01*
X5687404Y-4107524D02*
X5687404Y-4050955D01*
X5630835Y-4050955D01*
X5630835Y-4107524D01*
X5687404Y-4107524D01*
X5687404Y-4869525D02*
X5687404Y-4812956D01*
X5630835Y-4812956D01*
X5630835Y-4869525D01*
X5687404Y-4869525D01*
X5695404Y-5370245D02*
X5695404Y-5313676D01*
X5638835Y-5313676D01*
X5638835Y-5370245D01*
X5695404Y-5370245D01*
X5695404Y-6894244D02*
X5695404Y-6837675D01*
X5638835Y-6837675D01*
X5638835Y-6894244D01*
X5695404Y-6894244D01*
X5695404Y-7549564D02*
X5695404Y-7492995D01*
X5638835Y-7492995D01*
X5638835Y-7549564D01*
X5695404Y-7549564D01*
X5695404Y-9073565D02*
X5695404Y-9016996D01*
X5638835Y-9016996D01*
X5638835Y-9073565D01*
X5695404Y-9073565D01*
X5703024Y-9645065D02*
X5703024Y-9588496D01*
X5646455Y-9588496D01*
X5646455Y-9645065D01*
X5703024Y-9645065D01*
X5703024Y-10407065D02*
X5703024Y-10350496D01*
X5646455Y-10350496D01*
X5646455Y-10407065D01*
X5703024Y-10407065D01*
X5736044Y-7224444D02*
X5736044Y-7167875D01*
X5679475Y-7167875D01*
X5679475Y-7224444D01*
X5736044Y-7224444D01*
X5949404Y-5370245D02*
X5949404Y-5313676D01*
X5892835Y-5313676D01*
X5892835Y-5370245D01*
X5949404Y-5370245D01*
X5949404Y-6894244D02*
X5949404Y-6837675D01*
X5892835Y-6837675D01*
X5892835Y-6894244D01*
X5949404Y-6894244D01*
X5949404Y-7549564D02*
X5949404Y-7492995D01*
X5892835Y-7492995D01*
X5892835Y-7549564D01*
X5949404Y-7549564D01*
X5949404Y-9073565D02*
X5949404Y-9016996D01*
X5892835Y-9016996D01*
X5892835Y-9073565D01*
X5949404Y-9073565D01*
X5957024Y-9645065D02*
X5957024Y-9588496D01*
X5900455Y-9588496D01*
X5900455Y-9645065D01*
X5957024Y-9645065D01*
X5957024Y-10407065D02*
X5957024Y-10350496D01*
X5900455Y-10350496D01*
X5900455Y-10407065D01*
X5957024Y-10407065D01*
X5990044Y-7224444D02*
X5990044Y-7167875D01*
X5933475Y-7167875D01*
X5933475Y-7224444D01*
X5990044Y-7224444D01*
X6203404Y-5370245D02*
X6203404Y-5313676D01*
X6146835Y-5313676D01*
X6146835Y-5370245D01*
X6203404Y-5370245D01*
X6203404Y-6894244D02*
X6203404Y-6837675D01*
X6146835Y-6837675D01*
X6146835Y-6894244D01*
X6203404Y-6894244D01*
X6203404Y-7549564D02*
X6203404Y-7492995D01*
X6146835Y-7492995D01*
X6146835Y-7549564D01*
X6203404Y-7549564D01*
X6203404Y-9073565D02*
X6203404Y-9016996D01*
X6146835Y-9016996D01*
X6146835Y-9073565D01*
X6203404Y-9073565D01*
X6211024Y-9645065D02*
X6211024Y-9588496D01*
X6154455Y-9588496D01*
X6154455Y-9645065D01*
X6211024Y-9645065D01*
X6211024Y-10407065D02*
X6211024Y-10350496D01*
X6154455Y-10350496D01*
X6154455Y-10407065D01*
X6211024Y-10407065D01*
X6244044Y-7224444D02*
X6244044Y-7167875D01*
X6187475Y-7167875D01*
X6187475Y-7224444D01*
X6244044Y-7224444D01*
X6457404Y-5370245D02*
X6457404Y-5313676D01*
X6400835Y-5313676D01*
X6400835Y-5370245D01*
X6457404Y-5370245D01*
X6457404Y-6894244D02*
X6457404Y-6837675D01*
X6400835Y-6837675D01*
X6400835Y-6894244D01*
X6457404Y-6894244D01*
X6457404Y-7549564D02*
X6457404Y-7492995D01*
X6400835Y-7492995D01*
X6400835Y-7549564D01*
X6457404Y-7549564D01*
X6457404Y-9073565D02*
X6457404Y-9016996D01*
X6400835Y-9016996D01*
X6400835Y-9073565D01*
X6457404Y-9073565D01*
X6465024Y-9645065D02*
X6465024Y-9588496D01*
X6408455Y-9588496D01*
X6408455Y-9645065D01*
X6465024Y-9645065D01*
X6465024Y-10407065D02*
X6465024Y-10350496D01*
X6408455Y-10350496D01*
X6408455Y-10407065D01*
X6465024Y-10407065D01*
X6711404Y-5370245D02*
X6711404Y-5313676D01*
X6654835Y-5313676D01*
X6654835Y-5370245D01*
X6711404Y-5370245D01*
X6711404Y-6894244D02*
X6711404Y-6837675D01*
X6654835Y-6837675D01*
X6654835Y-6894244D01*
X6711404Y-6894244D01*
X6711404Y-7549564D02*
X6711404Y-7492995D01*
X6654835Y-7492995D01*
X6654835Y-7549564D01*
X6711404Y-7549564D01*
X6711404Y-9073565D02*
X6711404Y-9016996D01*
X6654835Y-9016996D01*
X6654835Y-9073565D01*
X6711404Y-9073565D01*
X6719024Y-9645065D02*
X6719024Y-9588496D01*
X6662455Y-9588496D01*
X6662455Y-9645065D01*
X6719024Y-9645065D01*
X6719024Y-10407065D02*
X6719024Y-10350496D01*
X6662455Y-10350496D01*
X6662455Y-10407065D01*
X6719024Y-10407065D01*
X6965404Y-5370245D02*
X6965404Y-5313676D01*
X6908835Y-5313676D01*
X6908835Y-5370245D01*
X6965404Y-5370245D01*
X6965404Y-6894244D02*
X6965404Y-6837675D01*
X6908835Y-6837675D01*
X6908835Y-6894244D01*
X6965404Y-6894244D01*
X6965404Y-7549564D02*
X6965404Y-7492995D01*
X6908835Y-7492995D01*
X6908835Y-7549564D01*
X6965404Y-7549564D01*
X6965404Y-9073565D02*
X6965404Y-9016996D01*
X6908835Y-9016996D01*
X6908835Y-9073565D01*
X6965404Y-9073565D01*
X6973024Y-9645065D02*
X6973024Y-9588496D01*
X6916455Y-9588496D01*
X6916455Y-9645065D01*
X6973024Y-9645065D01*
X6973024Y-10407065D02*
X6973024Y-10350496D01*
X6916455Y-10350496D01*
X6916455Y-10407065D01*
X6973024Y-10407065D01*
X7219404Y-5370245D02*
X7219404Y-5313676D01*
X7162835Y-5313676D01*
X7162835Y-5370245D01*
X7219404Y-5370245D01*
X7219404Y-6894244D02*
X7219404Y-6837675D01*
X7162835Y-6837675D01*
X7162835Y-6894244D01*
X7219404Y-6894244D01*
X7219404Y-7549564D02*
X7219404Y-7492995D01*
X7162835Y-7492995D01*
X7162835Y-7549564D01*
X7219404Y-7549564D01*
X7219404Y-9073565D02*
X7219404Y-9016996D01*
X7162835Y-9016996D01*
X7162835Y-9073565D01*
X7219404Y-9073565D01*
X7227024Y-9645065D02*
X7227024Y-9588496D01*
X7170455Y-9588496D01*
X7170455Y-9645065D01*
X7227024Y-9645065D01*
X7227024Y-10407065D02*
X7227024Y-10350496D01*
X7170455Y-10350496D01*
X7170455Y-10407065D01*
X7227024Y-10407065D01*
X7473404Y-5370245D02*
X7473404Y-5313676D01*
X7416835Y-5313676D01*
X7416835Y-5370245D01*
X7473404Y-5370245D01*
X7473404Y-6894244D02*
X7473404Y-6837675D01*
X7416835Y-6837675D01*
X7416835Y-6894244D01*
X7473404Y-6894244D01*
X7473404Y-7549564D02*
X7473404Y-7492995D01*
X7416835Y-7492995D01*
X7416835Y-7549564D01*
X7473404Y-7549564D01*
X7473404Y-9073565D02*
X7473404Y-9016996D01*
X7416835Y-9016996D01*
X7416835Y-9073565D01*
X7473404Y-9073565D01*
X7481024Y-9645065D02*
X7481024Y-9588496D01*
X7424455Y-9588496D01*
X7424455Y-9645065D01*
X7481024Y-9645065D01*
X7481024Y-10407065D02*
X7481024Y-10350496D01*
X7424455Y-10350496D01*
X7424455Y-10407065D01*
X7481024Y-10407065D01*
X7727404Y-5370245D02*
X7727404Y-5313676D01*
X7670835Y-5313676D01*
X7670835Y-5370245D01*
X7727404Y-5370245D01*
X7727404Y-6894244D02*
X7727404Y-6837675D01*
X7670835Y-6837675D01*
X7670835Y-6894244D01*
X7727404Y-6894244D01*
X7727404Y-7549564D02*
X7727404Y-7492995D01*
X7670835Y-7492995D01*
X7670835Y-7549564D01*
X7727404Y-7549564D01*
X7727404Y-9073565D02*
X7727404Y-9016996D01*
X7670835Y-9016996D01*
X7670835Y-9073565D01*
X7727404Y-9073565D01*
X7981404Y-5370245D02*
X7981404Y-5313676D01*
X7924835Y-5313676D01*
X7924835Y-5370245D01*
X7981404Y-5370245D01*
X7981404Y-6894244D02*
X7981404Y-6837675D01*
X7924835Y-6837675D01*
X7924835Y-6894244D01*
X7981404Y-6894244D01*
X7981404Y-7549564D02*
X7981404Y-7492995D01*
X7924835Y-7492995D01*
X7924835Y-7549564D01*
X7981404Y-7549564D01*
X7981404Y-9073565D02*
X7981404Y-9016996D01*
X7924835Y-9016996D01*
X7924835Y-9073565D01*
X7981404Y-9073565D01*
X8235404Y-5370245D02*
X8235404Y-5313676D01*
X8178835Y-5313676D01*
X8178835Y-5370245D01*
X8235404Y-5370245D01*
X8235404Y-6894244D02*
X8235404Y-6837675D01*
X8178835Y-6837675D01*
X8178835Y-6894244D01*
X8235404Y-6894244D01*
X8235404Y-7549564D02*
X8235404Y-7492995D01*
X8178835Y-7492995D01*
X8178835Y-7549564D01*
X8235404Y-7549564D01*
X8235404Y-9073565D02*
X8235404Y-9016996D01*
X8178835Y-9016996D01*
X8178835Y-9073565D01*
X8235404Y-9073565D01*
X8575765Y-5375325D02*
X8575765Y-5318756D01*
X8519196Y-5318756D01*
X8519196Y-5375325D01*
X8575765Y-5375325D01*
X8575765Y-6899324D02*
X8575765Y-6842755D01*
X8519196Y-6842755D01*
X8519196Y-6899324D01*
X8575765Y-6899324D01*
X8577985Y-7556324D02*
X8577985Y-7499755D01*
X8521416Y-7499755D01*
X8521416Y-7556324D01*
X8577985Y-7556324D01*
X8577985Y-9080325D02*
X8577985Y-9023756D01*
X8521416Y-9023756D01*
X8521416Y-9080325D01*
X8577985Y-9080325D01*
X8586425Y-9404765D02*
X8586425Y-9348196D01*
X8529856Y-9348196D01*
X8529856Y-9404765D01*
X8586425Y-9404765D01*
X8586425Y-10166765D02*
X8586425Y-10110196D01*
X8529856Y-10110196D01*
X8529856Y-10166765D01*
X8586425Y-10166765D01*
X8589925Y-10445165D02*
X8589925Y-10388596D01*
X8533356Y-10388596D01*
X8533356Y-10445165D01*
X8589925Y-10445165D01*
X8596085Y-10724565D02*
X8596085Y-10667996D01*
X8539516Y-10667996D01*
X8539516Y-10724565D01*
X8596085Y-10724565D01*
X8596085Y-11486564D02*
X8596085Y-11429995D01*
X8539516Y-11429995D01*
X8539516Y-11486564D01*
X8596085Y-11486564D01*
X8829765Y-5375325D02*
X8829765Y-5318756D01*
X8773196Y-5318756D01*
X8773196Y-5375325D01*
X8829765Y-5375325D01*
X8829765Y-6899324D02*
X8829765Y-6842755D01*
X8773196Y-6842755D01*
X8773196Y-6899324D01*
X8829765Y-6899324D01*
X8831985Y-7556324D02*
X8831985Y-7499755D01*
X8775416Y-7499755D01*
X8775416Y-7556324D01*
X8831985Y-7556324D01*
X8831985Y-9080325D02*
X8831985Y-9023756D01*
X8775416Y-9023756D01*
X8775416Y-9080325D01*
X8831985Y-9080325D01*
X8840425Y-9404765D02*
X8840425Y-9348196D01*
X8783856Y-9348196D01*
X8783856Y-9404765D01*
X8840425Y-9404765D01*
X8840425Y-10166765D02*
X8840425Y-10110196D01*
X8783856Y-10110196D01*
X8783856Y-10166765D01*
X8840425Y-10166765D01*
X8850085Y-10724565D02*
X8850085Y-10667996D01*
X8793516Y-10667996D01*
X8793516Y-10724565D01*
X8850085Y-10724565D01*
X8850085Y-11486564D02*
X8850085Y-11429995D01*
X8793516Y-11429995D01*
X8793516Y-11486564D01*
X8850085Y-11486564D01*
X9083765Y-5375325D02*
X9083765Y-5318756D01*
X9027196Y-5318756D01*
X9027196Y-5375325D01*
X9083765Y-5375325D01*
X9083765Y-6899324D02*
X9083765Y-6842755D01*
X9027196Y-6842755D01*
X9027196Y-6899324D01*
X9083765Y-6899324D01*
X9085985Y-7556324D02*
X9085985Y-7499755D01*
X9029416Y-7499755D01*
X9029416Y-7556324D01*
X9085985Y-7556324D01*
X9085985Y-9080325D02*
X9085985Y-9023756D01*
X9029416Y-9023756D01*
X9029416Y-9080325D01*
X9085985Y-9080325D01*
X9089925Y-10445165D02*
X9089925Y-10388596D01*
X9033356Y-10388596D01*
X9033356Y-10445165D01*
X9089925Y-10445165D01*
X9094425Y-9404765D02*
X9094425Y-9348196D01*
X9037856Y-9348196D01*
X9037856Y-9404765D01*
X9094425Y-9404765D01*
X9094425Y-10166765D02*
X9094425Y-10110196D01*
X9037856Y-10110196D01*
X9037856Y-10166765D01*
X9094425Y-10166765D01*
X9104085Y-10724565D02*
X9104085Y-10667996D01*
X9047516Y-10667996D01*
X9047516Y-10724565D01*
X9104085Y-10724565D01*
X9104085Y-11486564D02*
X9104085Y-11429995D01*
X9047516Y-11429995D01*
X9047516Y-11486564D01*
X9104085Y-11486564D01*
X9337765Y-5375325D02*
X9337765Y-5318756D01*
X9281196Y-5318756D01*
X9281196Y-5375325D01*
X9337765Y-5375325D01*
X9337765Y-6899324D02*
X9337765Y-6842755D01*
X9281196Y-6842755D01*
X9281196Y-6899324D01*
X9337765Y-6899324D01*
X9339985Y-7556324D02*
X9339985Y-7499755D01*
X9283416Y-7499755D01*
X9283416Y-7556324D01*
X9339985Y-7556324D01*
X9339985Y-9080325D02*
X9339985Y-9023756D01*
X9283416Y-9023756D01*
X9283416Y-9080325D01*
X9339985Y-9080325D01*
X9348425Y-9404765D02*
X9348425Y-9348196D01*
X9291856Y-9348196D01*
X9291856Y-9404765D01*
X9348425Y-9404765D01*
X9348425Y-10166765D02*
X9348425Y-10110196D01*
X9291856Y-10110196D01*
X9291856Y-10166765D01*
X9348425Y-10166765D01*
X9358085Y-10724565D02*
X9358085Y-10667996D01*
X9301516Y-10667996D01*
X9301516Y-10724565D01*
X9358085Y-10724565D01*
X9358085Y-11486564D02*
X9358085Y-11429995D01*
X9301516Y-11429995D01*
X9301516Y-11486564D01*
X9358085Y-11486564D01*
X9591765Y-5375325D02*
X9591765Y-5318756D01*
X9535196Y-5318756D01*
X9535196Y-5375325D01*
X9591765Y-5375325D01*
X9591765Y-6899324D02*
X9591765Y-6842755D01*
X9535196Y-6842755D01*
X9535196Y-6899324D01*
X9591765Y-6899324D01*
X9593985Y-7556324D02*
X9593985Y-7499755D01*
X9537416Y-7499755D01*
X9537416Y-7556324D01*
X9593985Y-7556324D01*
X9593985Y-9080325D02*
X9593985Y-9023756D01*
X9537416Y-9023756D01*
X9537416Y-9080325D01*
X9593985Y-9080325D01*
X9602425Y-9404765D02*
X9602425Y-9348196D01*
X9545856Y-9348196D01*
X9545856Y-9404765D01*
X9602425Y-9404765D01*
X9602425Y-10166765D02*
X9602425Y-10110196D01*
X9545856Y-10110196D01*
X9545856Y-10166765D01*
X9602425Y-10166765D01*
X9611505Y-10446165D02*
X9611505Y-10389596D01*
X9554936Y-10389596D01*
X9554936Y-10446165D01*
X9611505Y-10446165D01*
X9612085Y-10724565D02*
X9612085Y-10667996D01*
X9555516Y-10667996D01*
X9555516Y-10724565D01*
X9612085Y-10724565D01*
X9612085Y-11486564D02*
X9612085Y-11429995D01*
X9555516Y-11429995D01*
X9555516Y-11486564D01*
X9612085Y-11486564D01*
X9812745Y-4293285D02*
X9812745Y-4236716D01*
X9756176Y-4236716D01*
X9756176Y-4293285D01*
X9812745Y-4293285D01*
X9812745Y-4793285D02*
X9812745Y-4736716D01*
X9756176Y-4736716D01*
X9756176Y-4793285D01*
X9812745Y-4793285D01*
X9845765Y-5375325D02*
X9845765Y-5318756D01*
X9789196Y-5318756D01*
X9789196Y-5375325D01*
X9845765Y-5375325D01*
X9845765Y-6899324D02*
X9845765Y-6842755D01*
X9789196Y-6842755D01*
X9789196Y-6899324D01*
X9845765Y-6899324D01*
X9847985Y-7556324D02*
X9847985Y-7499755D01*
X9791416Y-7499755D01*
X9791416Y-7556324D01*
X9847985Y-7556324D01*
X9847985Y-9080325D02*
X9847985Y-9023756D01*
X9791416Y-9023756D01*
X9791416Y-9080325D01*
X9847985Y-9080325D01*
X9856425Y-9404765D02*
X9856425Y-9348196D01*
X9799856Y-9348196D01*
X9799856Y-9404765D01*
X9856425Y-9404765D01*
X9856425Y-10166765D02*
X9856425Y-10110196D01*
X9799856Y-10110196D01*
X9799856Y-10166765D01*
X9856425Y-10166765D01*
X9866085Y-10724565D02*
X9866085Y-10667996D01*
X9809516Y-10667996D01*
X9809516Y-10724565D01*
X9866085Y-10724565D01*
X9866085Y-11486564D02*
X9866085Y-11429995D01*
X9809516Y-11429995D01*
X9809516Y-11486564D01*
X9866085Y-11486564D01*
X10099765Y-4293285D02*
X10099765Y-4236716D01*
X10043196Y-4236716D01*
X10043196Y-4293285D01*
X10099765Y-4293285D01*
X10099765Y-5055285D02*
X10099765Y-4998716D01*
X10043196Y-4998716D01*
X10043196Y-5055285D01*
X10099765Y-5055285D01*
X10099765Y-5375325D02*
X10099765Y-5318756D01*
X10043196Y-5318756D01*
X10043196Y-5375325D01*
X10099765Y-5375325D01*
X10099765Y-6899324D02*
X10099765Y-6842755D01*
X10043196Y-6842755D01*
X10043196Y-6899324D01*
X10099765Y-6899324D01*
X10101985Y-7556324D02*
X10101985Y-7499755D01*
X10045416Y-7499755D01*
X10045416Y-7556324D01*
X10101985Y-7556324D01*
X10101985Y-9080325D02*
X10101985Y-9023756D01*
X10045416Y-9023756D01*
X10045416Y-9080325D01*
X10101985Y-9080325D01*
X10110425Y-9404765D02*
X10110425Y-9348196D01*
X10053856Y-9348196D01*
X10053856Y-9404765D01*
X10110425Y-9404765D01*
X10110425Y-10166765D02*
X10110425Y-10110196D01*
X10053856Y-10110196D01*
X10053856Y-10166765D01*
X10110425Y-10166765D01*
X10111505Y-10446165D02*
X10111505Y-10389596D01*
X10054936Y-10389596D01*
X10054936Y-10446165D01*
X10111505Y-10446165D01*
X10120085Y-10724565D02*
X10120085Y-10667996D01*
X10063516Y-10667996D01*
X10063516Y-10724565D01*
X10120085Y-10724565D01*
X10120085Y-11486564D02*
X10120085Y-11429995D01*
X10063516Y-11429995D01*
X10063516Y-11486564D01*
X10120085Y-11486564D01*
X10353765Y-4293285D02*
X10353765Y-4236716D01*
X10297196Y-4236716D01*
X10297196Y-4293285D01*
X10353765Y-4293285D01*
X10353765Y-5055285D02*
X10353765Y-4998716D01*
X10297196Y-4998716D01*
X10297196Y-5055285D01*
X10353765Y-5055285D01*
X10353765Y-5375325D02*
X10353765Y-5318756D01*
X10297196Y-5318756D01*
X10297196Y-5375325D01*
X10353765Y-5375325D01*
X10353765Y-6899324D02*
X10353765Y-6842755D01*
X10297196Y-6842755D01*
X10297196Y-6899324D01*
X10353765Y-6899324D01*
X10355985Y-7556324D02*
X10355985Y-7499755D01*
X10299416Y-7499755D01*
X10299416Y-7556324D01*
X10355985Y-7556324D01*
X10355985Y-9080325D02*
X10355985Y-9023756D01*
X10299416Y-9023756D01*
X10299416Y-9080325D01*
X10355985Y-9080325D01*
X10412185Y-10986565D02*
X10412185Y-10929996D01*
X10355616Y-10929996D01*
X10355616Y-10986565D01*
X10412185Y-10986565D01*
X10412185Y-11486564D02*
X10412185Y-11429995D01*
X10355616Y-11429995D01*
X10355616Y-11486564D01*
X10412185Y-11486564D01*
X10607765Y-4293285D02*
X10607765Y-4236716D01*
X10551196Y-4236716D01*
X10551196Y-4293285D01*
X10607765Y-4293285D01*
X10607765Y-5055285D02*
X10607765Y-4998716D01*
X10551196Y-4998716D01*
X10551196Y-5055285D01*
X10607765Y-5055285D01*
X10607765Y-5375325D02*
X10607765Y-5318756D01*
X10551196Y-5318756D01*
X10551196Y-5375325D01*
X10607765Y-5375325D01*
X10607765Y-6899324D02*
X10607765Y-6842755D01*
X10551196Y-6842755D01*
X10551196Y-6899324D01*
X10607765Y-6899324D01*
X10609985Y-7556324D02*
X10609985Y-7499755D01*
X10553416Y-7499755D01*
X10553416Y-7556324D01*
X10609985Y-7556324D01*
X10609985Y-9080325D02*
X10609985Y-9023756D01*
X10553416Y-9023756D01*
X10553416Y-9080325D01*
X10609985Y-9080325D01*
X10861765Y-4293285D02*
X10861765Y-4236716D01*
X10805196Y-4236716D01*
X10805196Y-4293285D01*
X10861765Y-4293285D01*
X10861765Y-5055285D02*
X10861765Y-4998716D01*
X10805196Y-4998716D01*
X10805196Y-5055285D01*
X10861765Y-5055285D01*
X10861765Y-5375325D02*
X10861765Y-5318756D01*
X10805196Y-5318756D01*
X10805196Y-5375325D01*
X10861765Y-5375325D01*
X10861765Y-6899324D02*
X10861765Y-6842755D01*
X10805196Y-6842755D01*
X10805196Y-6899324D01*
X10861765Y-6899324D01*
X10863985Y-7556324D02*
X10863985Y-7499755D01*
X10807416Y-7499755D01*
X10807416Y-7556324D01*
X10863985Y-7556324D01*
X10863985Y-9080325D02*
X10863985Y-9023756D01*
X10807416Y-9023756D01*
X10807416Y-9080325D01*
X10863985Y-9080325D01*
X11115765Y-4293285D02*
X11115765Y-4236716D01*
X11059196Y-4236716D01*
X11059196Y-4293285D01*
X11115765Y-4293285D01*
X11115765Y-5055285D02*
X11115765Y-4998716D01*
X11059196Y-4998716D01*
X11059196Y-5055285D01*
X11115765Y-5055285D01*
X11115765Y-5375325D02*
X11115765Y-5318756D01*
X11059196Y-5318756D01*
X11059196Y-5375325D01*
X11115765Y-5375325D01*
X11115765Y-6899324D02*
X11115765Y-6842755D01*
X11059196Y-6842755D01*
X11059196Y-6899324D01*
X11115765Y-6899324D01*
X11117985Y-7556324D02*
X11117985Y-7499755D01*
X11061416Y-7499755D01*
X11061416Y-7556324D01*
X11117985Y-7556324D01*
X11117985Y-9080325D02*
X11117985Y-9023756D01*
X11061416Y-9023756D01*
X11061416Y-9080325D01*
X11117985Y-9080325D01*
X11369764Y-4293285D02*
X11369764Y-4236716D01*
X11313195Y-4236716D01*
X11313195Y-4293285D01*
X11369764Y-4293285D01*
X11369764Y-5055285D02*
X11369764Y-4998716D01*
X11313195Y-4998716D01*
X11313195Y-5055285D01*
X11369764Y-5055285D01*
X11369764Y-5375325D02*
X11369764Y-5318756D01*
X11313195Y-5318756D01*
X11313195Y-5375325D01*
X11369764Y-5375325D01*
X11369764Y-6899324D02*
X11369764Y-6842755D01*
X11313195Y-6842755D01*
X11313195Y-6899324D01*
X11369764Y-6899324D01*
X11371984Y-7556324D02*
X11371984Y-7499755D01*
X11315415Y-7499755D01*
X11315415Y-7556324D01*
X11371984Y-7556324D01*
X11371984Y-9080325D02*
X11371984Y-9023756D01*
X11315415Y-9023756D01*
X11315415Y-9080325D01*
X11371984Y-9080325D01*
X11378844Y-7181264D02*
X11378844Y-7124695D01*
X11322275Y-7124695D01*
X11322275Y-7181264D01*
X11378844Y-7181264D01*
X11379924Y-9363125D02*
X11379924Y-9306556D01*
X11323355Y-9306556D01*
X11323355Y-9363125D01*
X11379924Y-9363125D01*
X11623764Y-4293285D02*
X11623764Y-4236716D01*
X11567195Y-4236716D01*
X11567195Y-4293285D01*
X11623764Y-4293285D01*
X11623764Y-5055285D02*
X11623764Y-4998716D01*
X11567195Y-4998716D01*
X11567195Y-5055285D01*
X11623764Y-5055285D01*
X11623764Y-5375325D02*
X11623764Y-5318756D01*
X11567195Y-5318756D01*
X11567195Y-5375325D01*
X11623764Y-5375325D01*
X11623764Y-6899324D02*
X11623764Y-6842755D01*
X11567195Y-6842755D01*
X11567195Y-6899324D01*
X11623764Y-6899324D01*
X11625984Y-7556324D02*
X11625984Y-7499755D01*
X11569415Y-7499755D01*
X11569415Y-7556324D01*
X11625984Y-7556324D01*
X11625984Y-9080325D02*
X11625984Y-9023756D01*
X11569415Y-9023756D01*
X11569415Y-9080325D01*
X11625984Y-9080325D01*
X11716284Y-11869084D02*
X11716284Y-11812515D01*
X11659715Y-11812515D01*
X11659715Y-11869084D01*
X11716284Y-11869084D01*
X11877764Y-4293285D02*
X11877764Y-4236716D01*
X11821195Y-4236716D01*
X11821195Y-4293285D01*
X11877764Y-4293285D01*
X11877764Y-5055285D02*
X11877764Y-4998716D01*
X11821195Y-4998716D01*
X11821195Y-5055285D01*
X11877764Y-5055285D01*
X11877764Y-5375325D02*
X11877764Y-5318756D01*
X11821195Y-5318756D01*
X11821195Y-5375325D01*
X11877764Y-5375325D01*
X11877764Y-6899324D02*
X11877764Y-6842755D01*
X11821195Y-6842755D01*
X11821195Y-6899324D01*
X11877764Y-6899324D01*
X11878844Y-7181264D02*
X11878844Y-7124695D01*
X11822275Y-7124695D01*
X11822275Y-7181264D01*
X11878844Y-7181264D01*
X11879924Y-9363125D02*
X11879924Y-9306556D01*
X11823355Y-9306556D01*
X11823355Y-9363125D01*
X11879924Y-9363125D01*
X11879984Y-7556324D02*
X11879984Y-7499755D01*
X11823415Y-7499755D01*
X11823415Y-7556324D01*
X11879984Y-7556324D01*
X11879984Y-9080325D02*
X11879984Y-9023756D01*
X11823415Y-9023756D01*
X11823415Y-9080325D01*
X11879984Y-9080325D01*
X11966284Y-11869084D02*
X11966284Y-11812515D01*
X11909715Y-11812515D01*
X11909715Y-11869084D01*
X11966284Y-11869084D01*
X12216284Y-11869084D02*
X12216284Y-11812515D01*
X12159715Y-11812515D01*
X12159715Y-11869084D01*
X12216284Y-11869084D01*
X4064000Y-3601000D02*
X4109000Y-3556000D01*
X4064000Y-3511000D01*
X4019000Y-3556000D01*
X4064000Y-3601000D01*
X4889500Y-3601000D02*
X4934500Y-3556000D01*
X4889500Y-3511000D01*
X4844500Y-3556000D01*
X4889500Y-3601000D01*
X3844200Y-10604100D02*
X3944200Y-10704100D01*
X3944200Y-10604100D02*
X3844200Y-10704100D01*
X3944200Y-10654100D02*
G75*
G03*
X3844200Y-10654100I-50000J0D01*
G01*
X3844200Y-10654100D02*
G75*
G03*
X3944200Y-10654100I50000J0D01*
G01*
X3844200Y-12128100D02*
X3944200Y-12228100D01*
X3944200Y-12128100D02*
X3844200Y-12228100D01*
X3944200Y-12178100D02*
G75*
G03*
X3844200Y-12178100I-50000J0D01*
G01*
X3844200Y-12178100D02*
G75*
G03*
X3944200Y-12178100I50000J0D01*
G01*
X4098200Y-10604100D02*
X4198200Y-10704100D01*
X4198200Y-10604100D02*
X4098200Y-10704100D01*
X4198200Y-10654100D02*
G75*
G03*
X4098200Y-10654100I-50000J0D01*
G01*
X4098200Y-10654100D02*
G75*
G03*
X4198200Y-10654100I50000J0D01*
G01*
X4098200Y-12128100D02*
X4198200Y-12228100D01*
X4198200Y-12128100D02*
X4098200Y-12228100D01*
X4198200Y-12178100D02*
G75*
G03*
X4098200Y-12178100I-50000J0D01*
G01*
X4098200Y-12178100D02*
G75*
G03*
X4198200Y-12178100I50000J0D01*
G01*
X4352200Y-10604100D02*
X4452200Y-10704100D01*
X4452200Y-10604100D02*
X4352200Y-10704100D01*
X4452200Y-10654100D02*
G75*
G03*
X4352200Y-10654100I-50000J0D01*
G01*
X4352200Y-10654100D02*
G75*
G03*
X4452200Y-10654100I50000J0D01*
G01*
X4352200Y-12128100D02*
X4452200Y-12228100D01*
X4452200Y-12128100D02*
X4352200Y-12228100D01*
X4452200Y-12178100D02*
G75*
G03*
X4352200Y-12178100I-50000J0D01*
G01*
X4352200Y-12178100D02*
G75*
G03*
X4452200Y-12178100I50000J0D01*
G01*
X4606200Y-10604100D02*
X4706200Y-10704100D01*
X4706200Y-10604100D02*
X4606200Y-10704100D01*
X4706200Y-10654100D02*
G75*
G03*
X4606200Y-10654100I-50000J0D01*
G01*
X4606200Y-10654100D02*
G75*
G03*
X4706200Y-10654100I50000J0D01*
G01*
X4606200Y-12128100D02*
X4706200Y-12228100D01*
X4706200Y-12128100D02*
X4606200Y-12228100D01*
X4706200Y-12178100D02*
G75*
G03*
X4606200Y-12178100I-50000J0D01*
G01*
X4606200Y-12178100D02*
G75*
G03*
X4706200Y-12178100I50000J0D01*
G01*
X4860200Y-10604100D02*
X4960200Y-10704100D01*
X4960200Y-10604100D02*
X4860200Y-10704100D01*
X4960200Y-10654100D02*
G75*
G03*
X4860200Y-10654100I-50000J0D01*
G01*
X4860200Y-10654100D02*
G75*
G03*
X4960200Y-10654100I50000J0D01*
G01*
X4860200Y-12128100D02*
X4960200Y-12228100D01*
X4960200Y-12128100D02*
X4860200Y-12228100D01*
X4960200Y-12178100D02*
G75*
G03*
X4860200Y-12178100I-50000J0D01*
G01*
X4860200Y-12178100D02*
G75*
G03*
X4960200Y-12178100I50000J0D01*
G01*
X5114200Y-10604100D02*
X5214200Y-10704100D01*
X5214200Y-10604100D02*
X5114200Y-10704100D01*
X5214200Y-10654100D02*
G75*
G03*
X5114200Y-10654100I-50000J0D01*
G01*
X5114200Y-10654100D02*
G75*
G03*
X5214200Y-10654100I50000J0D01*
G01*
X5114200Y-12128100D02*
X5214200Y-12228100D01*
X5214200Y-12128100D02*
X5114200Y-12228100D01*
X5214200Y-12178100D02*
G75*
G03*
X5114200Y-12178100I-50000J0D01*
G01*
X5114200Y-12178100D02*
G75*
G03*
X5214200Y-12178100I50000J0D01*
G01*
X5368200Y-10604100D02*
X5468200Y-10704100D01*
X5468200Y-10604100D02*
X5368200Y-10704100D01*
X5468200Y-10654100D02*
G75*
G03*
X5368200Y-10654100I-50000J0D01*
G01*
X5368200Y-10654100D02*
G75*
G03*
X5468200Y-10654100I50000J0D01*
G01*
X5368200Y-12128100D02*
X5468200Y-12228100D01*
X5468200Y-12128100D02*
X5368200Y-12228100D01*
X5468200Y-12178100D02*
G75*
G03*
X5368200Y-12178100I-50000J0D01*
G01*
X5368200Y-12178100D02*
G75*
G03*
X5468200Y-12178100I50000J0D01*
G01*
X5538000Y-3252000D02*
X5638000Y-3352000D01*
X5638000Y-3252000D02*
X5538000Y-3352000D01*
X5638000Y-3302000D02*
G75*
G03*
X5538000Y-3302000I-50000J0D01*
G01*
X5538000Y-3302000D02*
G75*
G03*
X5638000Y-3302000I50000J0D01*
G01*
X5538000Y-3506000D02*
X5638000Y-3606000D01*
X5638000Y-3506000D02*
X5538000Y-3606000D01*
X5638000Y-3556000D02*
G75*
G03*
X5538000Y-3556000I-50000J0D01*
G01*
X5538000Y-3556000D02*
G75*
G03*
X5638000Y-3556000I50000J0D01*
G01*
X5622200Y-10604100D02*
X5722200Y-10704100D01*
X5722200Y-10604100D02*
X5622200Y-10704100D01*
X5722200Y-10654100D02*
G75*
G03*
X5622200Y-10654100I-50000J0D01*
G01*
X5622200Y-10654100D02*
G75*
G03*
X5722200Y-10654100I50000J0D01*
G01*
X5622200Y-12128100D02*
X5722200Y-12228100D01*
X5722200Y-12128100D02*
X5622200Y-12228100D01*
X5722200Y-12178100D02*
G75*
G03*
X5622200Y-12178100I-50000J0D01*
G01*
X5622200Y-12178100D02*
G75*
G03*
X5722200Y-12178100I50000J0D01*
G01*
X5792000Y-3252000D02*
X5892000Y-3352000D01*
X5892000Y-3252000D02*
X5792000Y-3352000D01*
X5892000Y-3302000D02*
G75*
G03*
X5792000Y-3302000I-50000J0D01*
G01*
X5792000Y-3302000D02*
G75*
G03*
X5892000Y-3302000I50000J0D01*
G01*
X5792000Y-3506000D02*
X5892000Y-3606000D01*
X5892000Y-3506000D02*
X5792000Y-3606000D01*
X5892000Y-3556000D02*
G75*
G03*
X5792000Y-3556000I-50000J0D01*
G01*
X5792000Y-3556000D02*
G75*
G03*
X5892000Y-3556000I50000J0D01*
G01*
X5876200Y-10604100D02*
X5976200Y-10704100D01*
X5976200Y-10604100D02*
X5876200Y-10704100D01*
X5976200Y-10654100D02*
G75*
G03*
X5876200Y-10654100I-50000J0D01*
G01*
X5876200Y-10654100D02*
G75*
G03*
X5976200Y-10654100I50000J0D01*
G01*
X5876200Y-12128100D02*
X5976200Y-12228100D01*
X5976200Y-12128100D02*
X5876200Y-12228100D01*
X5976200Y-12178100D02*
G75*
G03*
X5876200Y-12178100I-50000J0D01*
G01*
X5876200Y-12178100D02*
G75*
G03*
X5976200Y-12178100I50000J0D01*
G01*
X6046000Y-3252000D02*
X6146000Y-3352000D01*
X6146000Y-3252000D02*
X6046000Y-3352000D01*
X6146000Y-3302000D02*
G75*
G03*
X6046000Y-3302000I-50000J0D01*
G01*
X6046000Y-3302000D02*
G75*
G03*
X6146000Y-3302000I50000J0D01*
G01*
X6046000Y-3506000D02*
X6146000Y-3606000D01*
X6146000Y-3506000D02*
X6046000Y-3606000D01*
X6146000Y-3556000D02*
G75*
G03*
X6046000Y-3556000I-50000J0D01*
G01*
X6046000Y-3556000D02*
G75*
G03*
X6146000Y-3556000I50000J0D01*
G01*
X6130200Y-10604100D02*
X6230200Y-10704100D01*
X6230200Y-10604100D02*
X6130200Y-10704100D01*
X6230200Y-10654100D02*
G75*
G03*
X6130200Y-10654100I-50000J0D01*
G01*
X6130200Y-10654100D02*
G75*
G03*
X6230200Y-10654100I50000J0D01*
G01*
X6130200Y-12128100D02*
X6230200Y-12228100D01*
X6230200Y-12128100D02*
X6130200Y-12228100D01*
X6230200Y-12178100D02*
G75*
G03*
X6130200Y-12178100I-50000J0D01*
G01*
X6130200Y-12178100D02*
G75*
G03*
X6230200Y-12178100I50000J0D01*
G01*
X6300000Y-3252000D02*
X6400000Y-3352000D01*
X6400000Y-3252000D02*
X6300000Y-3352000D01*
X6400000Y-3302000D02*
G75*
G03*
X6300000Y-3302000I-50000J0D01*
G01*
X6300000Y-3302000D02*
G75*
G03*
X6400000Y-3302000I50000J0D01*
G01*
X6300000Y-3506000D02*
X6400000Y-3606000D01*
X6400000Y-3506000D02*
X6300000Y-3606000D01*
X6400000Y-3556000D02*
G75*
G03*
X6300000Y-3556000I-50000J0D01*
G01*
X6300000Y-3556000D02*
G75*
G03*
X6400000Y-3556000I50000J0D01*
G01*
X6384200Y-10604100D02*
X6484200Y-10704100D01*
X6484200Y-10604100D02*
X6384200Y-10704100D01*
X6484200Y-10654100D02*
G75*
G03*
X6384200Y-10654100I-50000J0D01*
G01*
X6384200Y-10654100D02*
G75*
G03*
X6484200Y-10654100I50000J0D01*
G01*
X6384200Y-12128100D02*
X6484200Y-12228100D01*
X6484200Y-12128100D02*
X6384200Y-12228100D01*
X6484200Y-12178100D02*
G75*
G03*
X6384200Y-12178100I-50000J0D01*
G01*
X6384200Y-12178100D02*
G75*
G03*
X6484200Y-12178100I50000J0D01*
G01*
X6386360Y-12467120D02*
X6486360Y-12567120D01*
X6486360Y-12467120D02*
X6386360Y-12567120D01*
X6486360Y-12517120D02*
G75*
G03*
X6386360Y-12517120I-50000J0D01*
G01*
X6386360Y-12517120D02*
G75*
G03*
X6486360Y-12517120I50000J0D01*
G01*
X6554000Y-3252000D02*
X6654000Y-3352000D01*
X6654000Y-3252000D02*
X6554000Y-3352000D01*
X6654000Y-3302000D02*
G75*
G03*
X6554000Y-3302000I-50000J0D01*
G01*
X6554000Y-3302000D02*
G75*
G03*
X6654000Y-3302000I50000J0D01*
G01*
X6554000Y-3506000D02*
X6654000Y-3606000D01*
X6654000Y-3506000D02*
X6554000Y-3606000D01*
X6654000Y-3556000D02*
G75*
G03*
X6554000Y-3556000I-50000J0D01*
G01*
X6554000Y-3556000D02*
G75*
G03*
X6654000Y-3556000I50000J0D01*
G01*
X6638200Y-10604100D02*
X6738200Y-10704100D01*
X6738200Y-10604100D02*
X6638200Y-10704100D01*
X6738200Y-10654100D02*
G75*
G03*
X6638200Y-10654100I-50000J0D01*
G01*
X6638200Y-10654100D02*
G75*
G03*
X6738200Y-10654100I50000J0D01*
G01*
X6638200Y-12128100D02*
X6738200Y-12228100D01*
X6738200Y-12128100D02*
X6638200Y-12228100D01*
X6738200Y-12178100D02*
G75*
G03*
X6638200Y-12178100I-50000J0D01*
G01*
X6638200Y-12178100D02*
G75*
G03*
X6738200Y-12178100I50000J0D01*
G01*
X6640360Y-12467120D02*
X6740360Y-12567120D01*
X6740360Y-12467120D02*
X6640360Y-12567120D01*
X6740360Y-12517120D02*
G75*
G03*
X6640360Y-12517120I-50000J0D01*
G01*
X6640360Y-12517120D02*
G75*
G03*
X6740360Y-12517120I50000J0D01*
G01*
X6808000Y-3252000D02*
X6908000Y-3352000D01*
X6908000Y-3252000D02*
X6808000Y-3352000D01*
X6908000Y-3302000D02*
G75*
G03*
X6808000Y-3302000I-50000J0D01*
G01*
X6808000Y-3302000D02*
G75*
G03*
X6908000Y-3302000I50000J0D01*
G01*
X6808000Y-3506000D02*
X6908000Y-3606000D01*
X6908000Y-3506000D02*
X6808000Y-3606000D01*
X6908000Y-3556000D02*
G75*
G03*
X6808000Y-3556000I-50000J0D01*
G01*
X6808000Y-3556000D02*
G75*
G03*
X6908000Y-3556000I50000J0D01*
G01*
X6892200Y-10604100D02*
X6992200Y-10704100D01*
X6992200Y-10604100D02*
X6892200Y-10704100D01*
X6992200Y-10654100D02*
G75*
G03*
X6892200Y-10654100I-50000J0D01*
G01*
X6892200Y-10654100D02*
G75*
G03*
X6992200Y-10654100I50000J0D01*
G01*
X6892200Y-12128100D02*
X6992200Y-12228100D01*
X6992200Y-12128100D02*
X6892200Y-12228100D01*
X6992200Y-12178100D02*
G75*
G03*
X6892200Y-12178100I-50000J0D01*
G01*
X6892200Y-12178100D02*
G75*
G03*
X6992200Y-12178100I50000J0D01*
G01*
X7062000Y-3252000D02*
X7162000Y-3352000D01*
X7162000Y-3252000D02*
X7062000Y-3352000D01*
X7162000Y-3302000D02*
G75*
G03*
X7062000Y-3302000I-50000J0D01*
G01*
X7062000Y-3302000D02*
G75*
G03*
X7162000Y-3302000I50000J0D01*
G01*
X7062000Y-3506000D02*
X7162000Y-3606000D01*
X7162000Y-3506000D02*
X7062000Y-3606000D01*
X7162000Y-3556000D02*
G75*
G03*
X7062000Y-3556000I-50000J0D01*
G01*
X7062000Y-3556000D02*
G75*
G03*
X7162000Y-3556000I50000J0D01*
G01*
X7146200Y-10604100D02*
X7246200Y-10704100D01*
X7246200Y-10604100D02*
X7146200Y-10704100D01*
X7246200Y-10654100D02*
G75*
G03*
X7146200Y-10654100I-50000J0D01*
G01*
X7146200Y-10654100D02*
G75*
G03*
X7246200Y-10654100I50000J0D01*
G01*
X7146200Y-12128100D02*
X7246200Y-12228100D01*
X7246200Y-12128100D02*
X7146200Y-12228100D01*
X7246200Y-12178100D02*
G75*
G03*
X7146200Y-12178100I-50000J0D01*
G01*
X7146200Y-12178100D02*
G75*
G03*
X7246200Y-12178100I50000J0D01*
G01*
X7316000Y-3252000D02*
X7416000Y-3352000D01*
X7416000Y-3252000D02*
X7316000Y-3352000D01*
X7416000Y-3302000D02*
G75*
G03*
X7316000Y-3302000I-50000J0D01*
G01*
X7316000Y-3302000D02*
G75*
G03*
X7416000Y-3302000I50000J0D01*
G01*
X7316000Y-3506000D02*
X7416000Y-3606000D01*
X7416000Y-3506000D02*
X7316000Y-3606000D01*
X7416000Y-3556000D02*
G75*
G03*
X7316000Y-3556000I-50000J0D01*
G01*
X7316000Y-3556000D02*
G75*
G03*
X7416000Y-3556000I50000J0D01*
G01*
X7400200Y-10604100D02*
X7500200Y-10704100D01*
X7500200Y-10604100D02*
X7400200Y-10704100D01*
X7500200Y-10654100D02*
G75*
G03*
X7400200Y-10654100I-50000J0D01*
G01*
X7400200Y-10654100D02*
G75*
G03*
X7500200Y-10654100I50000J0D01*
G01*
X7400200Y-12128100D02*
X7500200Y-12228100D01*
X7500200Y-12128100D02*
X7400200Y-12228100D01*
X7500200Y-12178100D02*
G75*
G03*
X7400200Y-12178100I-50000J0D01*
G01*
X7400200Y-12178100D02*
G75*
G03*
X7500200Y-12178100I50000J0D01*
G01*
X7570000Y-3252000D02*
X7670000Y-3352000D01*
X7670000Y-3252000D02*
X7570000Y-3352000D01*
X7670000Y-3302000D02*
G75*
G03*
X7570000Y-3302000I-50000J0D01*
G01*
X7570000Y-3302000D02*
G75*
G03*
X7670000Y-3302000I50000J0D01*
G01*
X7570000Y-3506000D02*
X7670000Y-3606000D01*
X7670000Y-3506000D02*
X7570000Y-3606000D01*
X7670000Y-3556000D02*
G75*
G03*
X7570000Y-3556000I-50000J0D01*
G01*
X7570000Y-3556000D02*
G75*
G03*
X7670000Y-3556000I50000J0D01*
G01*
X7824000Y-3252000D02*
X7924000Y-3352000D01*
X7924000Y-3252000D02*
X7824000Y-3352000D01*
X7924000Y-3302000D02*
G75*
G03*
X7824000Y-3302000I-50000J0D01*
G01*
X7824000Y-3302000D02*
G75*
G03*
X7924000Y-3302000I50000J0D01*
G01*
X7824000Y-3506000D02*
X7924000Y-3606000D01*
X7924000Y-3506000D02*
X7824000Y-3606000D01*
X7924000Y-3556000D02*
G75*
G03*
X7824000Y-3556000I-50000J0D01*
G01*
X7824000Y-3556000D02*
G75*
G03*
X7924000Y-3556000I50000J0D01*
G01*
X8078000Y-3252000D02*
X8178000Y-3352000D01*
X8178000Y-3252000D02*
X8078000Y-3352000D01*
X8178000Y-3302000D02*
G75*
G03*
X8078000Y-3302000I-50000J0D01*
G01*
X8078000Y-3302000D02*
G75*
G03*
X8178000Y-3302000I50000J0D01*
G01*
X8078000Y-3506000D02*
X8178000Y-3606000D01*
X8178000Y-3506000D02*
X8078000Y-3606000D01*
X8178000Y-3556000D02*
G75*
G03*
X8078000Y-3556000I-50000J0D01*
G01*
X8078000Y-3556000D02*
G75*
G03*
X8178000Y-3556000I50000J0D01*
G01*
X8264040Y-11930560D02*
X8364040Y-12030560D01*
X8364040Y-11930560D02*
X8264040Y-12030560D01*
X8364040Y-11980560D02*
G75*
G03*
X8264040Y-11980560I-50000J0D01*
G01*
X8264040Y-11980560D02*
G75*
G03*
X8364040Y-11980560I50000J0D01*
G01*
X8332000Y-3252000D02*
X8432000Y-3352000D01*
X8432000Y-3252000D02*
X8332000Y-3352000D01*
X8432000Y-3302000D02*
G75*
G03*
X8332000Y-3302000I-50000J0D01*
G01*
X8332000Y-3302000D02*
G75*
G03*
X8432000Y-3302000I50000J0D01*
G01*
X8332000Y-3506000D02*
X8432000Y-3606000D01*
X8432000Y-3506000D02*
X8332000Y-3606000D01*
X8432000Y-3556000D02*
G75*
G03*
X8332000Y-3556000I-50000J0D01*
G01*
X8332000Y-3556000D02*
G75*
G03*
X8432000Y-3556000I50000J0D01*
G01*
X8518040Y-11930560D02*
X8618040Y-12030560D01*
X8618040Y-11930560D02*
X8518040Y-12030560D01*
X8618040Y-11980560D02*
G75*
G03*
X8518040Y-11980560I-50000J0D01*
G01*
X8518040Y-11980560D02*
G75*
G03*
X8618040Y-11980560I50000J0D01*
G01*
X8586000Y-3252000D02*
X8686000Y-3352000D01*
X8686000Y-3252000D02*
X8586000Y-3352000D01*
X8686000Y-3302000D02*
G75*
G03*
X8586000Y-3302000I-50000J0D01*
G01*
X8586000Y-3302000D02*
G75*
G03*
X8686000Y-3302000I50000J0D01*
G01*
X8586000Y-3506000D02*
X8686000Y-3606000D01*
X8686000Y-3506000D02*
X8586000Y-3606000D01*
X8686000Y-3556000D02*
G75*
G03*
X8586000Y-3556000I-50000J0D01*
G01*
X8586000Y-3556000D02*
G75*
G03*
X8686000Y-3556000I50000J0D01*
G01*
X8772040Y-11930560D02*
X8872040Y-12030560D01*
X8872040Y-11930560D02*
X8772040Y-12030560D01*
X8872040Y-11980560D02*
G75*
G03*
X8772040Y-11980560I-50000J0D01*
G01*
X8772040Y-11980560D02*
G75*
G03*
X8872040Y-11980560I50000J0D01*
G01*
X8840000Y-3252000D02*
X8940000Y-3352000D01*
X8940000Y-3252000D02*
X8840000Y-3352000D01*
X8940000Y-3302000D02*
G75*
G03*
X8840000Y-3302000I-50000J0D01*
G01*
X8840000Y-3302000D02*
G75*
G03*
X8940000Y-3302000I50000J0D01*
G01*
X8840000Y-3506000D02*
X8940000Y-3606000D01*
X8940000Y-3506000D02*
X8840000Y-3606000D01*
X8940000Y-3556000D02*
G75*
G03*
X8840000Y-3556000I-50000J0D01*
G01*
X8840000Y-3556000D02*
G75*
G03*
X8940000Y-3556000I50000J0D01*
G01*
X9026040Y-11930560D02*
X9126040Y-12030560D01*
X9126040Y-11930560D02*
X9026040Y-12030560D01*
X9126040Y-11980560D02*
G75*
G03*
X9026040Y-11980560I-50000J0D01*
G01*
X9026040Y-11980560D02*
G75*
G03*
X9126040Y-11980560I50000J0D01*
G01*
X9094000Y-3252000D02*
X9194000Y-3352000D01*
X9194000Y-3252000D02*
X9094000Y-3352000D01*
X9194000Y-3302000D02*
G75*
G03*
X9094000Y-3302000I-50000J0D01*
G01*
X9094000Y-3302000D02*
G75*
G03*
X9194000Y-3302000I50000J0D01*
G01*
X9094000Y-3506000D02*
X9194000Y-3606000D01*
X9194000Y-3506000D02*
X9094000Y-3606000D01*
X9194000Y-3556000D02*
G75*
G03*
X9094000Y-3556000I-50000J0D01*
G01*
X9094000Y-3556000D02*
G75*
G03*
X9194000Y-3556000I50000J0D01*
G01*
X9280040Y-11930560D02*
X9380040Y-12030560D01*
X9380040Y-11930560D02*
X9280040Y-12030560D01*
X9380040Y-11980560D02*
G75*
G03*
X9280040Y-11980560I-50000J0D01*
G01*
X9280040Y-11980560D02*
G75*
G03*
X9380040Y-11980560I50000J0D01*
G01*
X9348000Y-3252000D02*
X9448000Y-3352000D01*
X9448000Y-3252000D02*
X9348000Y-3352000D01*
X9448000Y-3302000D02*
G75*
G03*
X9348000Y-3302000I-50000J0D01*
G01*
X9348000Y-3302000D02*
G75*
G03*
X9448000Y-3302000I50000J0D01*
G01*
X9348000Y-3506000D02*
X9448000Y-3606000D01*
X9448000Y-3506000D02*
X9348000Y-3606000D01*
X9448000Y-3556000D02*
G75*
G03*
X9348000Y-3556000I-50000J0D01*
G01*
X9348000Y-3556000D02*
G75*
G03*
X9448000Y-3556000I50000J0D01*
G01*
X9534040Y-11930560D02*
X9634040Y-12030560D01*
X9634040Y-11930560D02*
X9534040Y-12030560D01*
X9634040Y-11980560D02*
G75*
G03*
X9534040Y-11980560I-50000J0D01*
G01*
X9534040Y-11980560D02*
G75*
G03*
X9634040Y-11980560I50000J0D01*
G01*
X9602000Y-3252000D02*
X9702000Y-3352000D01*
X9702000Y-3252000D02*
X9602000Y-3352000D01*
X9702000Y-3302000D02*
G75*
G03*
X9602000Y-3302000I-50000J0D01*
G01*
X9602000Y-3302000D02*
G75*
G03*
X9702000Y-3302000I50000J0D01*
G01*
X9602000Y-3506000D02*
X9702000Y-3606000D01*
X9702000Y-3506000D02*
X9602000Y-3606000D01*
X9702000Y-3556000D02*
G75*
G03*
X9602000Y-3556000I-50000J0D01*
G01*
X9602000Y-3556000D02*
G75*
G03*
X9702000Y-3556000I50000J0D01*
G01*
X9856000Y-3252000D02*
X9956000Y-3352000D01*
X9956000Y-3252000D02*
X9856000Y-3352000D01*
X9956000Y-3302000D02*
G75*
G03*
X9856000Y-3302000I-50000J0D01*
G01*
X9856000Y-3302000D02*
G75*
G03*
X9956000Y-3302000I50000J0D01*
G01*
X9856000Y-3506000D02*
X9956000Y-3606000D01*
X9956000Y-3506000D02*
X9856000Y-3606000D01*
X9956000Y-3556000D02*
G75*
G03*
X9856000Y-3556000I-50000J0D01*
G01*
X9856000Y-3556000D02*
G75*
G03*
X9956000Y-3556000I50000J0D01*
G01*
X10110000Y-3252000D02*
X10210000Y-3352000D01*
X10210000Y-3252000D02*
X10110000Y-3352000D01*
X10210000Y-3302000D02*
G75*
G03*
X10110000Y-3302000I-50000J0D01*
G01*
X10110000Y-3302000D02*
G75*
G03*
X10210000Y-3302000I50000J0D01*
G01*
X10110000Y-3506000D02*
X10210000Y-3606000D01*
X10210000Y-3506000D02*
X10110000Y-3606000D01*
X10210000Y-3556000D02*
G75*
G03*
X10110000Y-3556000I-50000J0D01*
G01*
X10110000Y-3556000D02*
G75*
G03*
X10210000Y-3556000I50000J0D01*
G01*
X10364000Y-3252000D02*
X10464000Y-3352000D01*
X10464000Y-3252000D02*
X10364000Y-3352000D01*
X10464000Y-3302000D02*
G75*
G03*
X10364000Y-3302000I-50000J0D01*
G01*
X10364000Y-3302000D02*
G75*
G03*
X10464000Y-3302000I50000J0D01*
G01*
X10364000Y-3506000D02*
X10464000Y-3606000D01*
X10464000Y-3506000D02*
X10364000Y-3606000D01*
X10464000Y-3556000D02*
G75*
G03*
X10364000Y-3556000I-50000J0D01*
G01*
X10364000Y-3556000D02*
G75*
G03*
X10464000Y-3556000I50000J0D01*
G01*
X11087900Y-10545268D02*
X11187900Y-10645268D01*
X11187900Y-10545268D02*
X11087900Y-10645268D01*
X11187900Y-10595268D02*
G75*
G03*
X11087900Y-10595268I-50000J0D01*
G01*
X11087900Y-10595268D02*
G75*
G03*
X11187900Y-10595268I50000J0D01*
G01*
X11087900Y-11045268D02*
X11187900Y-11145268D01*
X11187900Y-11045268D02*
X11087900Y-11145268D01*
X11187900Y-11095268D02*
G75*
G03*
X11087900Y-11095268I-50000J0D01*
G01*
X11087900Y-11095268D02*
G75*
G03*
X11187900Y-11095268I50000J0D01*
G01*
X12150000Y-7481440D02*
X12250000Y-7581440D01*
X12250000Y-7481440D02*
X12150000Y-7581440D01*
X12250000Y-7531440D02*
G75*
G03*
X12150000Y-7531440I-50000J0D01*
G01*
X12150000Y-7531440D02*
G75*
G03*
X12250000Y-7531440I50000J0D01*
G01*
X12150000Y-7735440D02*
X12250000Y-7835440D01*
X12250000Y-7735440D02*
X12150000Y-7835440D01*
X12250000Y-7785440D02*
G75*
G03*
X12150000Y-7785440I-50000J0D01*
G01*
X12150000Y-7785440D02*
G75*
G03*
X12250000Y-7785440I50000J0D01*
G01*
D12*
X3331200Y-4271200D02*
X3441200Y-4381200D01*
X3441200Y-4271200D02*
X3331200Y-4381200D01*
X3386200Y-4271200D02*
X3386200Y-4381200D01*
X3331200Y-4326200D02*
X3441200Y-4326200D01*
X3331200Y-4921200D02*
X3441200Y-5031200D01*
X3441200Y-4921200D02*
X3331200Y-5031200D01*
X3386200Y-4921200D02*
X3386200Y-5031200D01*
X3331200Y-4976200D02*
X3441200Y-4976200D01*
X3781200Y-4271200D02*
X3891200Y-4381200D01*
X3891200Y-4271200D02*
X3781200Y-4381200D01*
X3836200Y-4271200D02*
X3836200Y-4381200D01*
X3781200Y-4326200D02*
X3891200Y-4326200D01*
X3781200Y-4921200D02*
X3891200Y-5031200D01*
X3891200Y-4921200D02*
X3781200Y-5031200D01*
X3836200Y-4921200D02*
X3836200Y-5031200D01*
X3781200Y-4976200D02*
X3891200Y-4976200D01*
D13*
X11852546Y-10794000D02*
X11964546Y-10906000D01*
X11964546Y-10794000D02*
X11852546Y-10906000D01*
X11948144Y-10889598D02*
X11948144Y-10810402D01*
X11868948Y-10810402D01*
X11868948Y-10889598D01*
X11948144Y-10889598D01*
X11852546Y-11154000D02*
X11964546Y-11266000D01*
X11964546Y-11154000D02*
X11852546Y-11266000D01*
X11948144Y-11249598D02*
X11948144Y-11170402D01*
X11868948Y-11170402D01*
X11868948Y-11249598D01*
X11948144Y-11249598D01*
D14*
X3140000Y-3140000D02*
X3460000Y-3460000D01*
X3460000Y-3140000D02*
X3140000Y-3460000D01*
X3300000Y-3460000D02*
X3460000Y-3300000D01*
X3300000Y-3140000D01*
X3140000Y-3300000D01*
X3300000Y-3460000D01*
X3140000Y-9740000D02*
X3460000Y-10060000D01*
X3460000Y-9740000D02*
X3140000Y-10060000D01*
X3300000Y-10060000D02*
X3460000Y-9900000D01*
X3300000Y-9740000D01*
X3140000Y-9900000D01*
X3300000Y-10060000D01*
X3140000Y-12540000D02*
X3460000Y-12860000D01*
X3460000Y-12540000D02*
X3140000Y-12860000D01*
X3300000Y-12860000D02*
X3460000Y-12700000D01*
X3300000Y-12540000D01*
X3140000Y-12700000D01*
X3300000Y-12860000D01*
X12040000Y-3140000D02*
X12360000Y-3460000D01*
X12360000Y-3140000D02*
X12040000Y-3460000D01*
X12200000Y-3460000D02*
X12360000Y-3300000D01*
X12200000Y-3140000D01*
X12040000Y-3300000D01*
X12200000Y-3460000D01*
X12040000Y-9740000D02*
X12360000Y-10060000D01*
X12360000Y-9740000D02*
X12040000Y-10060000D01*
X12200000Y-10060000D02*
X12360000Y-9900000D01*
X12200000Y-9740000D01*
X12040000Y-9900000D01*
X12200000Y-10060000D01*
X12040000Y-12540000D02*
X12360000Y-12860000D01*
X12360000Y-12540000D02*
X12040000Y-12860000D01*
X12200000Y-12860000D02*
X12360000Y-12700000D01*
X12200000Y-12540000D01*
X12040000Y-12700000D01*
X12200000Y-12860000D01*
D11*
X3255777Y-13316484D02*
X3255777Y-13116484D01*
X3255777Y-13116484D02*
X3303396Y-13116484D01*
X3303396Y-13116484D02*
X3331967Y-13126008D01*
X3331967Y-13126008D02*
X3351015Y-13145055D01*
X3351015Y-13145055D02*
X3360539Y-13164103D01*
X3360539Y-13164103D02*
X3370062Y-13202198D01*
X3370062Y-13202198D02*
X3370062Y-13230769D01*
X3370062Y-13230769D02*
X3360539Y-13268865D01*
X3360539Y-13268865D02*
X3351015Y-13287912D01*
X3351015Y-13287912D02*
X3331967Y-13306960D01*
X3331967Y-13306960D02*
X3303396Y-13316484D01*
X3303396Y-13316484D02*
X3255777Y-13316484D01*
X3455777Y-13316484D02*
X3455777Y-13183150D01*
X3455777Y-13221246D02*
X3465301Y-13202198D01*
X3465301Y-13202198D02*
X3474824Y-13192674D01*
X3474824Y-13192674D02*
X3493872Y-13183150D01*
X3493872Y-13183150D02*
X3512920Y-13183150D01*
X3579586Y-13316484D02*
X3579586Y-13183150D01*
X3579586Y-13116484D02*
X3570062Y-13126008D01*
X3570062Y-13126008D02*
X3579586Y-13135531D01*
X3579586Y-13135531D02*
X3589110Y-13126008D01*
X3589110Y-13126008D02*
X3579586Y-13116484D01*
X3579586Y-13116484D02*
X3579586Y-13135531D01*
X3703396Y-13316484D02*
X3684348Y-13306960D01*
X3684348Y-13306960D02*
X3674824Y-13287912D01*
X3674824Y-13287912D02*
X3674824Y-13116484D01*
X3808158Y-13316484D02*
X3789110Y-13306960D01*
X3789110Y-13306960D02*
X3779586Y-13287912D01*
X3779586Y-13287912D02*
X3779586Y-13116484D01*
X4036729Y-13316484D02*
X4036729Y-13116484D01*
X4036729Y-13116484D02*
X4103396Y-13259341D01*
X4103396Y-13259341D02*
X4170062Y-13116484D01*
X4170062Y-13116484D02*
X4170062Y-13316484D01*
X4351015Y-13316484D02*
X4351015Y-13211722D01*
X4351015Y-13211722D02*
X4341491Y-13192674D01*
X4341491Y-13192674D02*
X4322444Y-13183150D01*
X4322444Y-13183150D02*
X4284348Y-13183150D01*
X4284348Y-13183150D02*
X4265301Y-13192674D01*
X4351015Y-13306960D02*
X4331967Y-13316484D01*
X4331967Y-13316484D02*
X4284348Y-13316484D01*
X4284348Y-13316484D02*
X4265301Y-13306960D01*
X4265301Y-13306960D02*
X4255777Y-13287912D01*
X4255777Y-13287912D02*
X4255777Y-13268865D01*
X4255777Y-13268865D02*
X4265301Y-13249817D01*
X4265301Y-13249817D02*
X4284348Y-13240293D01*
X4284348Y-13240293D02*
X4331967Y-13240293D01*
X4331967Y-13240293D02*
X4351015Y-13230769D01*
X4446253Y-13183150D02*
X4446253Y-13383150D01*
X4446253Y-13192674D02*
X4465301Y-13183150D01*
X4465301Y-13183150D02*
X4503396Y-13183150D01*
X4503396Y-13183150D02*
X4522444Y-13192674D01*
X4522444Y-13192674D02*
X4531967Y-13202198D01*
X4531967Y-13202198D02*
X4541491Y-13221246D01*
X4541491Y-13221246D02*
X4541491Y-13278388D01*
X4541491Y-13278388D02*
X4531967Y-13297436D01*
X4531967Y-13297436D02*
X4522444Y-13306960D01*
X4522444Y-13306960D02*
X4503396Y-13316484D01*
X4503396Y-13316484D02*
X4465301Y-13316484D01*
X4465301Y-13316484D02*
X4446253Y-13306960D01*
X4627205Y-13297436D02*
X4636729Y-13306960D01*
X4636729Y-13306960D02*
X4627205Y-13316484D01*
X4627205Y-13316484D02*
X4617682Y-13306960D01*
X4617682Y-13306960D02*
X4627205Y-13297436D01*
X4627205Y-13297436D02*
X4627205Y-13316484D01*
X4627205Y-13192674D02*
X4636729Y-13202198D01*
X4636729Y-13202198D02*
X4627205Y-13211722D01*
X4627205Y-13211722D02*
X4617682Y-13202198D01*
X4617682Y-13202198D02*
X4627205Y-13192674D01*
X4627205Y-13192674D02*
X4627205Y-13211722D01*
D10*
X2955000Y-13625000D02*
X2995000Y-13665000D01*
X2995000Y-13625000D02*
X2955000Y-13665000D01*
D11*
X3293872Y-13536484D02*
X3312920Y-13536484D01*
X3312920Y-13536484D02*
X3331967Y-13546008D01*
X3331967Y-13546008D02*
X3341491Y-13555531D01*
X3341491Y-13555531D02*
X3351015Y-13574579D01*
X3351015Y-13574579D02*
X3360539Y-13612674D01*
X3360539Y-13612674D02*
X3360539Y-13660293D01*
X3360539Y-13660293D02*
X3351015Y-13698388D01*
X3351015Y-13698388D02*
X3341491Y-13717436D01*
X3341491Y-13717436D02*
X3331967Y-13726960D01*
X3331967Y-13726960D02*
X3312920Y-13736484D01*
X3312920Y-13736484D02*
X3293872Y-13736484D01*
X3293872Y-13736484D02*
X3274824Y-13726960D01*
X3274824Y-13726960D02*
X3265301Y-13717436D01*
X3265301Y-13717436D02*
X3255777Y-13698388D01*
X3255777Y-13698388D02*
X3246253Y-13660293D01*
X3246253Y-13660293D02*
X3246253Y-13612674D01*
X3246253Y-13612674D02*
X3255777Y-13574579D01*
X3255777Y-13574579D02*
X3265301Y-13555531D01*
X3265301Y-13555531D02*
X3274824Y-13546008D01*
X3274824Y-13546008D02*
X3293872Y-13536484D01*
X3446253Y-13717436D02*
X3455777Y-13726960D01*
X3455777Y-13726960D02*
X3446253Y-13736484D01*
X3446253Y-13736484D02*
X3436729Y-13726960D01*
X3436729Y-13726960D02*
X3446253Y-13717436D01*
X3446253Y-13717436D02*
X3446253Y-13736484D01*
X3627205Y-13603150D02*
X3627205Y-13736484D01*
X3579586Y-13526960D02*
X3531967Y-13669817D01*
X3531967Y-13669817D02*
X3655777Y-13669817D01*
X3770062Y-13536484D02*
X3789110Y-13536484D01*
X3789110Y-13536484D02*
X3808158Y-13546008D01*
X3808158Y-13546008D02*
X3817682Y-13555531D01*
X3817682Y-13555531D02*
X3827205Y-13574579D01*
X3827205Y-13574579D02*
X3836729Y-13612674D01*
X3836729Y-13612674D02*
X3836729Y-13660293D01*
X3836729Y-13660293D02*
X3827205Y-13698388D01*
X3827205Y-13698388D02*
X3817682Y-13717436D01*
X3817682Y-13717436D02*
X3808158Y-13726960D01*
X3808158Y-13726960D02*
X3789110Y-13736484D01*
X3789110Y-13736484D02*
X3770062Y-13736484D01*
X3770062Y-13736484D02*
X3751015Y-13726960D01*
X3751015Y-13726960D02*
X3741491Y-13717436D01*
X3741491Y-13717436D02*
X3731967Y-13698388D01*
X3731967Y-13698388D02*
X3722443Y-13660293D01*
X3722443Y-13660293D02*
X3722443Y-13612674D01*
X3722443Y-13612674D02*
X3731967Y-13574579D01*
X3731967Y-13574579D02*
X3741491Y-13555531D01*
X3741491Y-13555531D02*
X3751015Y-13546008D01*
X3751015Y-13546008D02*
X3770062Y-13536484D01*
X3960539Y-13536484D02*
X3979586Y-13536484D01*
X3979586Y-13536484D02*
X3998634Y-13546008D01*
X3998634Y-13546008D02*
X4008158Y-13555531D01*
X4008158Y-13555531D02*
X4017682Y-13574579D01*
X4017682Y-13574579D02*
X4027205Y-13612674D01*
X4027205Y-13612674D02*
X4027205Y-13660293D01*
X4027205Y-13660293D02*
X4017682Y-13698388D01*
X4017682Y-13698388D02*
X4008158Y-13717436D01*
X4008158Y-13717436D02*
X3998634Y-13726960D01*
X3998634Y-13726960D02*
X3979586Y-13736484D01*
X3979586Y-13736484D02*
X3960539Y-13736484D01*
X3960539Y-13736484D02*
X3941491Y-13726960D01*
X3941491Y-13726960D02*
X3931967Y-13717436D01*
X3931967Y-13717436D02*
X3922443Y-13698388D01*
X3922443Y-13698388D02*
X3912920Y-13660293D01*
X3912920Y-13660293D02*
X3912920Y-13612674D01*
X3912920Y-13612674D02*
X3922443Y-13574579D01*
X3922443Y-13574579D02*
X3931967Y-13555531D01*
X3931967Y-13555531D02*
X3941491Y-13546008D01*
X3941491Y-13546008D02*
X3960539Y-13536484D01*
X4112920Y-13736484D02*
X4112920Y-13603150D01*
X4112920Y-13622198D02*
X4122443Y-13612674D01*
X4122443Y-13612674D02*
X4141491Y-13603150D01*
X4141491Y-13603150D02*
X4170063Y-13603150D01*
X4170063Y-13603150D02*
X4189110Y-13612674D01*
X4189110Y-13612674D02*
X4198634Y-13631722D01*
X4198634Y-13631722D02*
X4198634Y-13736484D01*
X4198634Y-13631722D02*
X4208158Y-13612674D01*
X4208158Y-13612674D02*
X4227205Y-13603150D01*
X4227205Y-13603150D02*
X4255777Y-13603150D01*
X4255777Y-13603150D02*
X4274825Y-13612674D01*
X4274825Y-13612674D02*
X4284348Y-13631722D01*
X4284348Y-13631722D02*
X4284348Y-13736484D01*
X4379586Y-13736484D02*
X4379586Y-13603150D01*
X4379586Y-13622198D02*
X4389110Y-13612674D01*
X4389110Y-13612674D02*
X4408158Y-13603150D01*
X4408158Y-13603150D02*
X4436729Y-13603150D01*
X4436729Y-13603150D02*
X4455777Y-13612674D01*
X4455777Y-13612674D02*
X4465301Y-13631722D01*
X4465301Y-13631722D02*
X4465301Y-13736484D01*
X4465301Y-13631722D02*
X4474825Y-13612674D01*
X4474825Y-13612674D02*
X4493872Y-13603150D01*
X4493872Y-13603150D02*
X4522444Y-13603150D01*
X4522444Y-13603150D02*
X4541491Y-13612674D01*
X4541491Y-13612674D02*
X4551015Y-13631722D01*
X4551015Y-13631722D02*
X4551015Y-13736484D01*
X4941491Y-13526960D02*
X4770063Y-13784103D01*
X5198634Y-13536484D02*
X5217682Y-13536484D01*
X5217682Y-13536484D02*
X5236729Y-13546008D01*
X5236729Y-13546008D02*
X5246253Y-13555531D01*
X5246253Y-13555531D02*
X5255777Y-13574579D01*
X5255777Y-13574579D02*
X5265301Y-13612674D01*
X5265301Y-13612674D02*
X5265301Y-13660293D01*
X5265301Y-13660293D02*
X5255777Y-13698388D01*
X5255777Y-13698388D02*
X5246253Y-13717436D01*
X5246253Y-13717436D02*
X5236729Y-13726960D01*
X5236729Y-13726960D02*
X5217682Y-13736484D01*
X5217682Y-13736484D02*
X5198634Y-13736484D01*
X5198634Y-13736484D02*
X5179587Y-13726960D01*
X5179587Y-13726960D02*
X5170063Y-13717436D01*
X5170063Y-13717436D02*
X5160539Y-13698388D01*
X5160539Y-13698388D02*
X5151015Y-13660293D01*
X5151015Y-13660293D02*
X5151015Y-13612674D01*
X5151015Y-13612674D02*
X5160539Y-13574579D01*
X5160539Y-13574579D02*
X5170063Y-13555531D01*
X5170063Y-13555531D02*
X5179587Y-13546008D01*
X5179587Y-13546008D02*
X5198634Y-13536484D01*
X5351015Y-13717436D02*
X5360539Y-13726960D01*
X5360539Y-13726960D02*
X5351015Y-13736484D01*
X5351015Y-13736484D02*
X5341491Y-13726960D01*
X5341491Y-13726960D02*
X5351015Y-13717436D01*
X5351015Y-13717436D02*
X5351015Y-13736484D01*
X5484348Y-13536484D02*
X5503396Y-13536484D01*
X5503396Y-13536484D02*
X5522444Y-13546008D01*
X5522444Y-13546008D02*
X5531968Y-13555531D01*
X5531968Y-13555531D02*
X5541491Y-13574579D01*
X5541491Y-13574579D02*
X5551015Y-13612674D01*
X5551015Y-13612674D02*
X5551015Y-13660293D01*
X5551015Y-13660293D02*
X5541491Y-13698388D01*
X5541491Y-13698388D02*
X5531968Y-13717436D01*
X5531968Y-13717436D02*
X5522444Y-13726960D01*
X5522444Y-13726960D02*
X5503396Y-13736484D01*
X5503396Y-13736484D02*
X5484348Y-13736484D01*
X5484348Y-13736484D02*
X5465301Y-13726960D01*
X5465301Y-13726960D02*
X5455777Y-13717436D01*
X5455777Y-13717436D02*
X5446253Y-13698388D01*
X5446253Y-13698388D02*
X5436729Y-13660293D01*
X5436729Y-13660293D02*
X5436729Y-13612674D01*
X5436729Y-13612674D02*
X5446253Y-13574579D01*
X5446253Y-13574579D02*
X5455777Y-13555531D01*
X5455777Y-13555531D02*
X5465301Y-13546008D01*
X5465301Y-13546008D02*
X5484348Y-13536484D01*
X5741491Y-13736484D02*
X5627206Y-13736484D01*
X5684348Y-13736484D02*
X5684348Y-13536484D01*
X5684348Y-13536484D02*
X5665301Y-13565055D01*
X5665301Y-13565055D02*
X5646253Y-13584103D01*
X5646253Y-13584103D02*
X5627206Y-13593627D01*
X5922444Y-13536484D02*
X5827206Y-13536484D01*
X5827206Y-13536484D02*
X5817682Y-13631722D01*
X5817682Y-13631722D02*
X5827206Y-13622198D01*
X5827206Y-13622198D02*
X5846253Y-13612674D01*
X5846253Y-13612674D02*
X5893872Y-13612674D01*
X5893872Y-13612674D02*
X5912920Y-13622198D01*
X5912920Y-13622198D02*
X5922444Y-13631722D01*
X5922444Y-13631722D02*
X5931967Y-13650769D01*
X5931967Y-13650769D02*
X5931967Y-13698388D01*
X5931967Y-13698388D02*
X5922444Y-13717436D01*
X5922444Y-13717436D02*
X5912920Y-13726960D01*
X5912920Y-13726960D02*
X5893872Y-13736484D01*
X5893872Y-13736484D02*
X5846253Y-13736484D01*
X5846253Y-13736484D02*
X5827206Y-13726960D01*
X5827206Y-13726960D02*
X5817682Y-13717436D01*
X5998634Y-13536484D02*
X6131967Y-13536484D01*
X6131967Y-13536484D02*
X6046253Y-13736484D01*
X6198634Y-13536484D02*
X6198634Y-13574579D01*
X6274825Y-13536484D02*
X6274825Y-13574579D01*
X6570063Y-13812674D02*
X6560539Y-13803150D01*
X6560539Y-13803150D02*
X6541491Y-13774579D01*
X6541491Y-13774579D02*
X6531968Y-13755531D01*
X6531968Y-13755531D02*
X6522444Y-13726960D01*
X6522444Y-13726960D02*
X6512920Y-13679341D01*
X6512920Y-13679341D02*
X6512920Y-13641246D01*
X6512920Y-13641246D02*
X6522444Y-13593627D01*
X6522444Y-13593627D02*
X6531968Y-13565055D01*
X6531968Y-13565055D02*
X6541491Y-13546008D01*
X6541491Y-13546008D02*
X6560539Y-13517436D01*
X6560539Y-13517436D02*
X6570063Y-13507912D01*
X6731968Y-13603150D02*
X6731968Y-13736484D01*
X6684348Y-13526960D02*
X6636729Y-13669817D01*
X6636729Y-13669817D02*
X6760539Y-13669817D01*
X6931968Y-13536484D02*
X6836729Y-13536484D01*
X6836729Y-13536484D02*
X6827206Y-13631722D01*
X6827206Y-13631722D02*
X6836729Y-13622198D01*
X6836729Y-13622198D02*
X6855777Y-13612674D01*
X6855777Y-13612674D02*
X6903396Y-13612674D01*
X6903396Y-13612674D02*
X6922444Y-13622198D01*
X6922444Y-13622198D02*
X6931968Y-13631722D01*
X6931968Y-13631722D02*
X6941491Y-13650769D01*
X6941491Y-13650769D02*
X6941491Y-13698388D01*
X6941491Y-13698388D02*
X6931968Y-13717436D01*
X6931968Y-13717436D02*
X6922444Y-13726960D01*
X6922444Y-13726960D02*
X6903396Y-13736484D01*
X6903396Y-13736484D02*
X6855777Y-13736484D01*
X6855777Y-13736484D02*
X6836729Y-13726960D01*
X6836729Y-13726960D02*
X6827206Y-13717436D01*
X7179587Y-13736484D02*
X7179587Y-13536484D01*
X7265301Y-13736484D02*
X7265301Y-13631722D01*
X7265301Y-13631722D02*
X7255777Y-13612674D01*
X7255777Y-13612674D02*
X7236730Y-13603150D01*
X7236730Y-13603150D02*
X7208158Y-13603150D01*
X7208158Y-13603150D02*
X7189110Y-13612674D01*
X7189110Y-13612674D02*
X7179587Y-13622198D01*
X7389110Y-13736484D02*
X7370063Y-13726960D01*
X7370063Y-13726960D02*
X7360539Y-13717436D01*
X7360539Y-13717436D02*
X7351015Y-13698388D01*
X7351015Y-13698388D02*
X7351015Y-13641246D01*
X7351015Y-13641246D02*
X7360539Y-13622198D01*
X7360539Y-13622198D02*
X7370063Y-13612674D01*
X7370063Y-13612674D02*
X7389110Y-13603150D01*
X7389110Y-13603150D02*
X7417682Y-13603150D01*
X7417682Y-13603150D02*
X7436730Y-13612674D01*
X7436730Y-13612674D02*
X7446253Y-13622198D01*
X7446253Y-13622198D02*
X7455777Y-13641246D01*
X7455777Y-13641246D02*
X7455777Y-13698388D01*
X7455777Y-13698388D02*
X7446253Y-13717436D01*
X7446253Y-13717436D02*
X7436730Y-13726960D01*
X7436730Y-13726960D02*
X7417682Y-13736484D01*
X7417682Y-13736484D02*
X7389110Y-13736484D01*
X7570063Y-13736484D02*
X7551015Y-13726960D01*
X7551015Y-13726960D02*
X7541491Y-13707912D01*
X7541491Y-13707912D02*
X7541491Y-13536484D01*
X7722444Y-13726960D02*
X7703396Y-13736484D01*
X7703396Y-13736484D02*
X7665301Y-13736484D01*
X7665301Y-13736484D02*
X7646253Y-13726960D01*
X7646253Y-13726960D02*
X7636730Y-13707912D01*
X7636730Y-13707912D02*
X7636730Y-13631722D01*
X7636730Y-13631722D02*
X7646253Y-13612674D01*
X7646253Y-13612674D02*
X7665301Y-13603150D01*
X7665301Y-13603150D02*
X7703396Y-13603150D01*
X7703396Y-13603150D02*
X7722444Y-13612674D01*
X7722444Y-13612674D02*
X7731968Y-13631722D01*
X7731968Y-13631722D02*
X7731968Y-13650769D01*
X7731968Y-13650769D02*
X7636730Y-13669817D01*
X7808158Y-13726960D02*
X7827206Y-13736484D01*
X7827206Y-13736484D02*
X7865301Y-13736484D01*
X7865301Y-13736484D02*
X7884349Y-13726960D01*
X7884349Y-13726960D02*
X7893872Y-13707912D01*
X7893872Y-13707912D02*
X7893872Y-13698388D01*
X7893872Y-13698388D02*
X7884349Y-13679341D01*
X7884349Y-13679341D02*
X7865301Y-13669817D01*
X7865301Y-13669817D02*
X7836730Y-13669817D01*
X7836730Y-13669817D02*
X7817682Y-13660293D01*
X7817682Y-13660293D02*
X7808158Y-13641246D01*
X7808158Y-13641246D02*
X7808158Y-13631722D01*
X7808158Y-13631722D02*
X7817682Y-13612674D01*
X7817682Y-13612674D02*
X7836730Y-13603150D01*
X7836730Y-13603150D02*
X7865301Y-13603150D01*
X7865301Y-13603150D02*
X7884349Y-13612674D01*
X7960539Y-13812674D02*
X7970063Y-13803150D01*
X7970063Y-13803150D02*
X7989111Y-13774579D01*
X7989111Y-13774579D02*
X7998634Y-13755531D01*
X7998634Y-13755531D02*
X8008158Y-13726960D01*
X8008158Y-13726960D02*
X8017682Y-13679341D01*
X8017682Y-13679341D02*
X8017682Y-13641246D01*
X8017682Y-13641246D02*
X8008158Y-13593627D01*
X8008158Y-13593627D02*
X7998634Y-13565055D01*
X7998634Y-13565055D02*
X7989111Y-13546008D01*
X7989111Y-13546008D02*
X7970063Y-13517436D01*
X7970063Y-13517436D02*
X7960539Y-13507912D01*
D10*
X2995000Y-13909000D02*
G75*
G03*
X2935000Y-13909000I-30000J0D01*
G01*
X2935000Y-13909000D02*
G75*
G03*
X2995000Y-13909000I30000J0D01*
G01*
D11*
X3293872Y-13800484D02*
X3312920Y-13800484D01*
X3312920Y-13800484D02*
X3331967Y-13810008D01*
X3331967Y-13810008D02*
X3341491Y-13819531D01*
X3341491Y-13819531D02*
X3351015Y-13838579D01*
X3351015Y-13838579D02*
X3360539Y-13876674D01*
X3360539Y-13876674D02*
X3360539Y-13924293D01*
X3360539Y-13924293D02*
X3351015Y-13962388D01*
X3351015Y-13962388D02*
X3341491Y-13981436D01*
X3341491Y-13981436D02*
X3331967Y-13990960D01*
X3331967Y-13990960D02*
X3312920Y-14000484D01*
X3312920Y-14000484D02*
X3293872Y-14000484D01*
X3293872Y-14000484D02*
X3274824Y-13990960D01*
X3274824Y-13990960D02*
X3265301Y-13981436D01*
X3265301Y-13981436D02*
X3255777Y-13962388D01*
X3255777Y-13962388D02*
X3246253Y-13924293D01*
X3246253Y-13924293D02*
X3246253Y-13876674D01*
X3246253Y-13876674D02*
X3255777Y-13838579D01*
X3255777Y-13838579D02*
X3265301Y-13819531D01*
X3265301Y-13819531D02*
X3274824Y-13810008D01*
X3274824Y-13810008D02*
X3293872Y-13800484D01*
X3446253Y-13981436D02*
X3455777Y-13990960D01*
X3455777Y-13990960D02*
X3446253Y-14000484D01*
X3446253Y-14000484D02*
X3436729Y-13990960D01*
X3436729Y-13990960D02*
X3446253Y-13981436D01*
X3446253Y-13981436D02*
X3446253Y-14000484D01*
X3627205Y-13800484D02*
X3589110Y-13800484D01*
X3589110Y-13800484D02*
X3570062Y-13810008D01*
X3570062Y-13810008D02*
X3560539Y-13819531D01*
X3560539Y-13819531D02*
X3541491Y-13848103D01*
X3541491Y-13848103D02*
X3531967Y-13886198D01*
X3531967Y-13886198D02*
X3531967Y-13962388D01*
X3531967Y-13962388D02*
X3541491Y-13981436D01*
X3541491Y-13981436D02*
X3551015Y-13990960D01*
X3551015Y-13990960D02*
X3570062Y-14000484D01*
X3570062Y-14000484D02*
X3608158Y-14000484D01*
X3608158Y-14000484D02*
X3627205Y-13990960D01*
X3627205Y-13990960D02*
X3636729Y-13981436D01*
X3636729Y-13981436D02*
X3646253Y-13962388D01*
X3646253Y-13962388D02*
X3646253Y-13914769D01*
X3646253Y-13914769D02*
X3636729Y-13895722D01*
X3636729Y-13895722D02*
X3627205Y-13886198D01*
X3627205Y-13886198D02*
X3608158Y-13876674D01*
X3608158Y-13876674D02*
X3570062Y-13876674D01*
X3570062Y-13876674D02*
X3551015Y-13886198D01*
X3551015Y-13886198D02*
X3541491Y-13895722D01*
X3541491Y-13895722D02*
X3531967Y-13914769D01*
X3770062Y-13800484D02*
X3789110Y-13800484D01*
X3789110Y-13800484D02*
X3808158Y-13810008D01*
X3808158Y-13810008D02*
X3817682Y-13819531D01*
X3817682Y-13819531D02*
X3827205Y-13838579D01*
X3827205Y-13838579D02*
X3836729Y-13876674D01*
X3836729Y-13876674D02*
X3836729Y-13924293D01*
X3836729Y-13924293D02*
X3827205Y-13962388D01*
X3827205Y-13962388D02*
X3817682Y-13981436D01*
X3817682Y-13981436D02*
X3808158Y-13990960D01*
X3808158Y-13990960D02*
X3789110Y-14000484D01*
X3789110Y-14000484D02*
X3770062Y-14000484D01*
X3770062Y-14000484D02*
X3751015Y-13990960D01*
X3751015Y-13990960D02*
X3741491Y-13981436D01*
X3741491Y-13981436D02*
X3731967Y-13962388D01*
X3731967Y-13962388D02*
X3722443Y-13924293D01*
X3722443Y-13924293D02*
X3722443Y-13876674D01*
X3722443Y-13876674D02*
X3731967Y-13838579D01*
X3731967Y-13838579D02*
X3741491Y-13819531D01*
X3741491Y-13819531D02*
X3751015Y-13810008D01*
X3751015Y-13810008D02*
X3770062Y-13800484D01*
X3960539Y-13800484D02*
X3979586Y-13800484D01*
X3979586Y-13800484D02*
X3998634Y-13810008D01*
X3998634Y-13810008D02*
X4008158Y-13819531D01*
X4008158Y-13819531D02*
X4017682Y-13838579D01*
X4017682Y-13838579D02*
X4027205Y-13876674D01*
X4027205Y-13876674D02*
X4027205Y-13924293D01*
X4027205Y-13924293D02*
X4017682Y-13962388D01*
X4017682Y-13962388D02*
X4008158Y-13981436D01*
X4008158Y-13981436D02*
X3998634Y-13990960D01*
X3998634Y-13990960D02*
X3979586Y-14000484D01*
X3979586Y-14000484D02*
X3960539Y-14000484D01*
X3960539Y-14000484D02*
X3941491Y-13990960D01*
X3941491Y-13990960D02*
X3931967Y-13981436D01*
X3931967Y-13981436D02*
X3922443Y-13962388D01*
X3922443Y-13962388D02*
X3912920Y-13924293D01*
X3912920Y-13924293D02*
X3912920Y-13876674D01*
X3912920Y-13876674D02*
X3922443Y-13838579D01*
X3922443Y-13838579D02*
X3931967Y-13819531D01*
X3931967Y-13819531D02*
X3941491Y-13810008D01*
X3941491Y-13810008D02*
X3960539Y-13800484D01*
X4112920Y-14000484D02*
X4112920Y-13867150D01*
X4112920Y-13886198D02*
X4122443Y-13876674D01*
X4122443Y-13876674D02*
X4141491Y-13867150D01*
X4141491Y-13867150D02*
X4170063Y-13867150D01*
X4170063Y-13867150D02*
X4189110Y-13876674D01*
X4189110Y-13876674D02*
X4198634Y-13895722D01*
X4198634Y-13895722D02*
X4198634Y-14000484D01*
X4198634Y-13895722D02*
X4208158Y-13876674D01*
X4208158Y-13876674D02*
X4227205Y-13867150D01*
X4227205Y-13867150D02*
X4255777Y-13867150D01*
X4255777Y-13867150D02*
X4274825Y-13876674D01*
X4274825Y-13876674D02*
X4284348Y-13895722D01*
X4284348Y-13895722D02*
X4284348Y-14000484D01*
X4379586Y-14000484D02*
X4379586Y-13867150D01*
X4379586Y-13886198D02*
X4389110Y-13876674D01*
X4389110Y-13876674D02*
X4408158Y-13867150D01*
X4408158Y-13867150D02*
X4436729Y-13867150D01*
X4436729Y-13867150D02*
X4455777Y-13876674D01*
X4455777Y-13876674D02*
X4465301Y-13895722D01*
X4465301Y-13895722D02*
X4465301Y-14000484D01*
X4465301Y-13895722D02*
X4474825Y-13876674D01*
X4474825Y-13876674D02*
X4493872Y-13867150D01*
X4493872Y-13867150D02*
X4522444Y-13867150D01*
X4522444Y-13867150D02*
X4541491Y-13876674D01*
X4541491Y-13876674D02*
X4551015Y-13895722D01*
X4551015Y-13895722D02*
X4551015Y-14000484D01*
X4941491Y-13790960D02*
X4770063Y-14048103D01*
X5198634Y-13800484D02*
X5217682Y-13800484D01*
X5217682Y-13800484D02*
X5236729Y-13810008D01*
X5236729Y-13810008D02*
X5246253Y-13819531D01*
X5246253Y-13819531D02*
X5255777Y-13838579D01*
X5255777Y-13838579D02*
X5265301Y-13876674D01*
X5265301Y-13876674D02*
X5265301Y-13924293D01*
X5265301Y-13924293D02*
X5255777Y-13962388D01*
X5255777Y-13962388D02*
X5246253Y-13981436D01*
X5246253Y-13981436D02*
X5236729Y-13990960D01*
X5236729Y-13990960D02*
X5217682Y-14000484D01*
X5217682Y-14000484D02*
X5198634Y-14000484D01*
X5198634Y-14000484D02*
X5179587Y-13990960D01*
X5179587Y-13990960D02*
X5170063Y-13981436D01*
X5170063Y-13981436D02*
X5160539Y-13962388D01*
X5160539Y-13962388D02*
X5151015Y-13924293D01*
X5151015Y-13924293D02*
X5151015Y-13876674D01*
X5151015Y-13876674D02*
X5160539Y-13838579D01*
X5160539Y-13838579D02*
X5170063Y-13819531D01*
X5170063Y-13819531D02*
X5179587Y-13810008D01*
X5179587Y-13810008D02*
X5198634Y-13800484D01*
X5351015Y-13981436D02*
X5360539Y-13990960D01*
X5360539Y-13990960D02*
X5351015Y-14000484D01*
X5351015Y-14000484D02*
X5341491Y-13990960D01*
X5341491Y-13990960D02*
X5351015Y-13981436D01*
X5351015Y-13981436D02*
X5351015Y-14000484D01*
X5484348Y-13800484D02*
X5503396Y-13800484D01*
X5503396Y-13800484D02*
X5522444Y-13810008D01*
X5522444Y-13810008D02*
X5531968Y-13819531D01*
X5531968Y-13819531D02*
X5541491Y-13838579D01*
X5541491Y-13838579D02*
X5551015Y-13876674D01*
X5551015Y-13876674D02*
X5551015Y-13924293D01*
X5551015Y-13924293D02*
X5541491Y-13962388D01*
X5541491Y-13962388D02*
X5531968Y-13981436D01*
X5531968Y-13981436D02*
X5522444Y-13990960D01*
X5522444Y-13990960D02*
X5503396Y-14000484D01*
X5503396Y-14000484D02*
X5484348Y-14000484D01*
X5484348Y-14000484D02*
X5465301Y-13990960D01*
X5465301Y-13990960D02*
X5455777Y-13981436D01*
X5455777Y-13981436D02*
X5446253Y-13962388D01*
X5446253Y-13962388D02*
X5436729Y-13924293D01*
X5436729Y-13924293D02*
X5436729Y-13876674D01*
X5436729Y-13876674D02*
X5446253Y-13838579D01*
X5446253Y-13838579D02*
X5455777Y-13819531D01*
X5455777Y-13819531D02*
X5465301Y-13810008D01*
X5465301Y-13810008D02*
X5484348Y-13800484D01*
X5627206Y-13819531D02*
X5636729Y-13810008D01*
X5636729Y-13810008D02*
X5655777Y-13800484D01*
X5655777Y-13800484D02*
X5703396Y-13800484D01*
X5703396Y-13800484D02*
X5722444Y-13810008D01*
X5722444Y-13810008D02*
X5731967Y-13819531D01*
X5731967Y-13819531D02*
X5741491Y-13838579D01*
X5741491Y-13838579D02*
X5741491Y-13857627D01*
X5741491Y-13857627D02*
X5731967Y-13886198D01*
X5731967Y-13886198D02*
X5617682Y-14000484D01*
X5617682Y-14000484D02*
X5741491Y-14000484D01*
X5808158Y-13800484D02*
X5931967Y-13800484D01*
X5931967Y-13800484D02*
X5865301Y-13876674D01*
X5865301Y-13876674D02*
X5893872Y-13876674D01*
X5893872Y-13876674D02*
X5912920Y-13886198D01*
X5912920Y-13886198D02*
X5922444Y-13895722D01*
X5922444Y-13895722D02*
X5931967Y-13914769D01*
X5931967Y-13914769D02*
X5931967Y-13962388D01*
X5931967Y-13962388D02*
X5922444Y-13981436D01*
X5922444Y-13981436D02*
X5912920Y-13990960D01*
X5912920Y-13990960D02*
X5893872Y-14000484D01*
X5893872Y-14000484D02*
X5836729Y-14000484D01*
X5836729Y-14000484D02*
X5817682Y-13990960D01*
X5817682Y-13990960D02*
X5808158Y-13981436D01*
X6103396Y-13800484D02*
X6065301Y-13800484D01*
X6065301Y-13800484D02*
X6046253Y-13810008D01*
X6046253Y-13810008D02*
X6036729Y-13819531D01*
X6036729Y-13819531D02*
X6017682Y-13848103D01*
X6017682Y-13848103D02*
X6008158Y-13886198D01*
X6008158Y-13886198D02*
X6008158Y-13962388D01*
X6008158Y-13962388D02*
X6017682Y-13981436D01*
X6017682Y-13981436D02*
X6027206Y-13990960D01*
X6027206Y-13990960D02*
X6046253Y-14000484D01*
X6046253Y-14000484D02*
X6084348Y-14000484D01*
X6084348Y-14000484D02*
X6103396Y-13990960D01*
X6103396Y-13990960D02*
X6112920Y-13981436D01*
X6112920Y-13981436D02*
X6122444Y-13962388D01*
X6122444Y-13962388D02*
X6122444Y-13914769D01*
X6122444Y-13914769D02*
X6112920Y-13895722D01*
X6112920Y-13895722D02*
X6103396Y-13886198D01*
X6103396Y-13886198D02*
X6084348Y-13876674D01*
X6084348Y-13876674D02*
X6046253Y-13876674D01*
X6046253Y-13876674D02*
X6027206Y-13886198D01*
X6027206Y-13886198D02*
X6017682Y-13895722D01*
X6017682Y-13895722D02*
X6008158Y-13914769D01*
X6198634Y-13800484D02*
X6198634Y-13838579D01*
X6274825Y-13800484D02*
X6274825Y-13838579D01*
X6570063Y-14076674D02*
X6560539Y-14067150D01*
X6560539Y-14067150D02*
X6541491Y-14038579D01*
X6541491Y-14038579D02*
X6531968Y-14019531D01*
X6531968Y-14019531D02*
X6522444Y-13990960D01*
X6522444Y-13990960D02*
X6512920Y-13943341D01*
X6512920Y-13943341D02*
X6512920Y-13905246D01*
X6512920Y-13905246D02*
X6522444Y-13857627D01*
X6522444Y-13857627D02*
X6531968Y-13829055D01*
X6531968Y-13829055D02*
X6541491Y-13810008D01*
X6541491Y-13810008D02*
X6560539Y-13781436D01*
X6560539Y-13781436D02*
X6570063Y-13771912D01*
X6684348Y-13800484D02*
X6703396Y-13800484D01*
X6703396Y-13800484D02*
X6722444Y-13810008D01*
X6722444Y-13810008D02*
X6731968Y-13819531D01*
X6731968Y-13819531D02*
X6741491Y-13838579D01*
X6741491Y-13838579D02*
X6751015Y-13876674D01*
X6751015Y-13876674D02*
X6751015Y-13924293D01*
X6751015Y-13924293D02*
X6741491Y-13962388D01*
X6741491Y-13962388D02*
X6731968Y-13981436D01*
X6731968Y-13981436D02*
X6722444Y-13990960D01*
X6722444Y-13990960D02*
X6703396Y-14000484D01*
X6703396Y-14000484D02*
X6684348Y-14000484D01*
X6684348Y-14000484D02*
X6665301Y-13990960D01*
X6665301Y-13990960D02*
X6655777Y-13981436D01*
X6655777Y-13981436D02*
X6646253Y-13962388D01*
X6646253Y-13962388D02*
X6636729Y-13924293D01*
X6636729Y-13924293D02*
X6636729Y-13876674D01*
X6636729Y-13876674D02*
X6646253Y-13838579D01*
X6646253Y-13838579D02*
X6655777Y-13819531D01*
X6655777Y-13819531D02*
X6665301Y-13810008D01*
X6665301Y-13810008D02*
X6684348Y-13800484D01*
X6989110Y-14000484D02*
X6989110Y-13800484D01*
X7074825Y-14000484D02*
X7074825Y-13895722D01*
X7074825Y-13895722D02*
X7065301Y-13876674D01*
X7065301Y-13876674D02*
X7046253Y-13867150D01*
X7046253Y-13867150D02*
X7017682Y-13867150D01*
X7017682Y-13867150D02*
X6998634Y-13876674D01*
X6998634Y-13876674D02*
X6989110Y-13886198D01*
X7198634Y-14000484D02*
X7179587Y-13990960D01*
X7179587Y-13990960D02*
X7170063Y-13981436D01*
X7170063Y-13981436D02*
X7160539Y-13962388D01*
X7160539Y-13962388D02*
X7160539Y-13905246D01*
X7160539Y-13905246D02*
X7170063Y-13886198D01*
X7170063Y-13886198D02*
X7179587Y-13876674D01*
X7179587Y-13876674D02*
X7198634Y-13867150D01*
X7198634Y-13867150D02*
X7227206Y-13867150D01*
X7227206Y-13867150D02*
X7246253Y-13876674D01*
X7246253Y-13876674D02*
X7255777Y-13886198D01*
X7255777Y-13886198D02*
X7265301Y-13905246D01*
X7265301Y-13905246D02*
X7265301Y-13962388D01*
X7265301Y-13962388D02*
X7255777Y-13981436D01*
X7255777Y-13981436D02*
X7246253Y-13990960D01*
X7246253Y-13990960D02*
X7227206Y-14000484D01*
X7227206Y-14000484D02*
X7198634Y-14000484D01*
X7379587Y-14000484D02*
X7360539Y-13990960D01*
X7360539Y-13990960D02*
X7351015Y-13971912D01*
X7351015Y-13971912D02*
X7351015Y-13800484D01*
X7531968Y-13990960D02*
X7512920Y-14000484D01*
X7512920Y-14000484D02*
X7474825Y-14000484D01*
X7474825Y-14000484D02*
X7455777Y-13990960D01*
X7455777Y-13990960D02*
X7446253Y-13971912D01*
X7446253Y-13971912D02*
X7446253Y-13895722D01*
X7446253Y-13895722D02*
X7455777Y-13876674D01*
X7455777Y-13876674D02*
X7474825Y-13867150D01*
X7474825Y-13867150D02*
X7512920Y-13867150D01*
X7512920Y-13867150D02*
X7531968Y-13876674D01*
X7531968Y-13876674D02*
X7541491Y-13895722D01*
X7541491Y-13895722D02*
X7541491Y-13914769D01*
X7541491Y-13914769D02*
X7446253Y-13933817D01*
X7617682Y-13990960D02*
X7636730Y-14000484D01*
X7636730Y-14000484D02*
X7674825Y-14000484D01*
X7674825Y-14000484D02*
X7693872Y-13990960D01*
X7693872Y-13990960D02*
X7703396Y-13971912D01*
X7703396Y-13971912D02*
X7703396Y-13962388D01*
X7703396Y-13962388D02*
X7693872Y-13943341D01*
X7693872Y-13943341D02*
X7674825Y-13933817D01*
X7674825Y-13933817D02*
X7646253Y-13933817D01*
X7646253Y-13933817D02*
X7627206Y-13924293D01*
X7627206Y-13924293D02*
X7617682Y-13905246D01*
X7617682Y-13905246D02*
X7617682Y-13895722D01*
X7617682Y-13895722D02*
X7627206Y-13876674D01*
X7627206Y-13876674D02*
X7646253Y-13867150D01*
X7646253Y-13867150D02*
X7674825Y-13867150D01*
X7674825Y-13867150D02*
X7693872Y-13876674D01*
X7941492Y-13924293D02*
X8093873Y-13924293D01*
X8017682Y-14000484D02*
X8017682Y-13848103D01*
X8331968Y-13819531D02*
X8341492Y-13810008D01*
X8341492Y-13810008D02*
X8360539Y-13800484D01*
X8360539Y-13800484D02*
X8408158Y-13800484D01*
X8408158Y-13800484D02*
X8427206Y-13810008D01*
X8427206Y-13810008D02*
X8436730Y-13819531D01*
X8436730Y-13819531D02*
X8446254Y-13838579D01*
X8446254Y-13838579D02*
X8446254Y-13857627D01*
X8446254Y-13857627D02*
X8436730Y-13886198D01*
X8436730Y-13886198D02*
X8322444Y-14000484D01*
X8322444Y-14000484D02*
X8446254Y-14000484D01*
X8674825Y-13990960D02*
X8693873Y-14000484D01*
X8693873Y-14000484D02*
X8731968Y-14000484D01*
X8731968Y-14000484D02*
X8751016Y-13990960D01*
X8751016Y-13990960D02*
X8760539Y-13971912D01*
X8760539Y-13971912D02*
X8760539Y-13962388D01*
X8760539Y-13962388D02*
X8751016Y-13943341D01*
X8751016Y-13943341D02*
X8731968Y-13933817D01*
X8731968Y-13933817D02*
X8703396Y-13933817D01*
X8703396Y-13933817D02*
X8684349Y-13924293D01*
X8684349Y-13924293D02*
X8674825Y-13905246D01*
X8674825Y-13905246D02*
X8674825Y-13895722D01*
X8674825Y-13895722D02*
X8684349Y-13876674D01*
X8684349Y-13876674D02*
X8703396Y-13867150D01*
X8703396Y-13867150D02*
X8731968Y-13867150D01*
X8731968Y-13867150D02*
X8751016Y-13876674D01*
X8874825Y-14000484D02*
X8855777Y-13990960D01*
X8855777Y-13990960D02*
X8846254Y-13971912D01*
X8846254Y-13971912D02*
X8846254Y-13800484D01*
X8979587Y-14000484D02*
X8960539Y-13990960D01*
X8960539Y-13990960D02*
X8951016Y-13981436D01*
X8951016Y-13981436D02*
X8941492Y-13962388D01*
X8941492Y-13962388D02*
X8941492Y-13905246D01*
X8941492Y-13905246D02*
X8951016Y-13886198D01*
X8951016Y-13886198D02*
X8960539Y-13876674D01*
X8960539Y-13876674D02*
X8979587Y-13867150D01*
X8979587Y-13867150D02*
X9008158Y-13867150D01*
X9008158Y-13867150D02*
X9027206Y-13876674D01*
X9027206Y-13876674D02*
X9036730Y-13886198D01*
X9036730Y-13886198D02*
X9046254Y-13905246D01*
X9046254Y-13905246D02*
X9046254Y-13962388D01*
X9046254Y-13962388D02*
X9036730Y-13981436D01*
X9036730Y-13981436D02*
X9027206Y-13990960D01*
X9027206Y-13990960D02*
X9008158Y-14000484D01*
X9008158Y-14000484D02*
X8979587Y-14000484D01*
X9103397Y-13867150D02*
X9179587Y-13867150D01*
X9131968Y-13800484D02*
X9131968Y-13971912D01*
X9131968Y-13971912D02*
X9141492Y-13990960D01*
X9141492Y-13990960D02*
X9160539Y-14000484D01*
X9160539Y-14000484D02*
X9179587Y-14000484D01*
X9236730Y-13990960D02*
X9255777Y-14000484D01*
X9255777Y-14000484D02*
X9293873Y-14000484D01*
X9293873Y-14000484D02*
X9312920Y-13990960D01*
X9312920Y-13990960D02*
X9322444Y-13971912D01*
X9322444Y-13971912D02*
X9322444Y-13962388D01*
X9322444Y-13962388D02*
X9312920Y-13943341D01*
X9312920Y-13943341D02*
X9293873Y-13933817D01*
X9293873Y-13933817D02*
X9265301Y-13933817D01*
X9265301Y-13933817D02*
X9246254Y-13924293D01*
X9246254Y-13924293D02*
X9236730Y-13905246D01*
X9236730Y-13905246D02*
X9236730Y-13895722D01*
X9236730Y-13895722D02*
X9246254Y-13876674D01*
X9246254Y-13876674D02*
X9265301Y-13867150D01*
X9265301Y-13867150D02*
X9293873Y-13867150D01*
X9293873Y-13867150D02*
X9312920Y-13876674D01*
X9389111Y-14076674D02*
X9398635Y-14067150D01*
X9398635Y-14067150D02*
X9417682Y-14038579D01*
X9417682Y-14038579D02*
X9427206Y-14019531D01*
X9427206Y-14019531D02*
X9436730Y-13990960D01*
X9436730Y-13990960D02*
X9446254Y-13943341D01*
X9446254Y-13943341D02*
X9446254Y-13905246D01*
X9446254Y-13905246D02*
X9436730Y-13857627D01*
X9436730Y-13857627D02*
X9427206Y-13829055D01*
X9427206Y-13829055D02*
X9417682Y-13810008D01*
X9417682Y-13810008D02*
X9398635Y-13781436D01*
X9398635Y-13781436D02*
X9389111Y-13771912D01*
D10*
X2960000Y-14138000D02*
X2960000Y-14208000D01*
X2925000Y-14173000D02*
X2995000Y-14173000D01*
D11*
X3293872Y-14064484D02*
X3312920Y-14064484D01*
X3312920Y-14064484D02*
X3331967Y-14074008D01*
X3331967Y-14074008D02*
X3341491Y-14083531D01*
X3341491Y-14083531D02*
X3351015Y-14102579D01*
X3351015Y-14102579D02*
X3360539Y-14140674D01*
X3360539Y-14140674D02*
X3360539Y-14188293D01*
X3360539Y-14188293D02*
X3351015Y-14226388D01*
X3351015Y-14226388D02*
X3341491Y-14245436D01*
X3341491Y-14245436D02*
X3331967Y-14254960D01*
X3331967Y-14254960D02*
X3312920Y-14264484D01*
X3312920Y-14264484D02*
X3293872Y-14264484D01*
X3293872Y-14264484D02*
X3274824Y-14254960D01*
X3274824Y-14254960D02*
X3265301Y-14245436D01*
X3265301Y-14245436D02*
X3255777Y-14226388D01*
X3255777Y-14226388D02*
X3246253Y-14188293D01*
X3246253Y-14188293D02*
X3246253Y-14140674D01*
X3246253Y-14140674D02*
X3255777Y-14102579D01*
X3255777Y-14102579D02*
X3265301Y-14083531D01*
X3265301Y-14083531D02*
X3274824Y-14074008D01*
X3274824Y-14074008D02*
X3293872Y-14064484D01*
X3446253Y-14245436D02*
X3455777Y-14254960D01*
X3455777Y-14254960D02*
X3446253Y-14264484D01*
X3446253Y-14264484D02*
X3436729Y-14254960D01*
X3436729Y-14254960D02*
X3446253Y-14245436D01*
X3446253Y-14245436D02*
X3446253Y-14264484D01*
X3522443Y-14064484D02*
X3655777Y-14064484D01*
X3655777Y-14064484D02*
X3570062Y-14264484D01*
X3770062Y-14064484D02*
X3789110Y-14064484D01*
X3789110Y-14064484D02*
X3808158Y-14074008D01*
X3808158Y-14074008D02*
X3817682Y-14083531D01*
X3817682Y-14083531D02*
X3827205Y-14102579D01*
X3827205Y-14102579D02*
X3836729Y-14140674D01*
X3836729Y-14140674D02*
X3836729Y-14188293D01*
X3836729Y-14188293D02*
X3827205Y-14226388D01*
X3827205Y-14226388D02*
X3817682Y-14245436D01*
X3817682Y-14245436D02*
X3808158Y-14254960D01*
X3808158Y-14254960D02*
X3789110Y-14264484D01*
X3789110Y-14264484D02*
X3770062Y-14264484D01*
X3770062Y-14264484D02*
X3751015Y-14254960D01*
X3751015Y-14254960D02*
X3741491Y-14245436D01*
X3741491Y-14245436D02*
X3731967Y-14226388D01*
X3731967Y-14226388D02*
X3722443Y-14188293D01*
X3722443Y-14188293D02*
X3722443Y-14140674D01*
X3722443Y-14140674D02*
X3731967Y-14102579D01*
X3731967Y-14102579D02*
X3741491Y-14083531D01*
X3741491Y-14083531D02*
X3751015Y-14074008D01*
X3751015Y-14074008D02*
X3770062Y-14064484D01*
X3960539Y-14064484D02*
X3979586Y-14064484D01*
X3979586Y-14064484D02*
X3998634Y-14074008D01*
X3998634Y-14074008D02*
X4008158Y-14083531D01*
X4008158Y-14083531D02*
X4017682Y-14102579D01*
X4017682Y-14102579D02*
X4027205Y-14140674D01*
X4027205Y-14140674D02*
X4027205Y-14188293D01*
X4027205Y-14188293D02*
X4017682Y-14226388D01*
X4017682Y-14226388D02*
X4008158Y-14245436D01*
X4008158Y-14245436D02*
X3998634Y-14254960D01*
X3998634Y-14254960D02*
X3979586Y-14264484D01*
X3979586Y-14264484D02*
X3960539Y-14264484D01*
X3960539Y-14264484D02*
X3941491Y-14254960D01*
X3941491Y-14254960D02*
X3931967Y-14245436D01*
X3931967Y-14245436D02*
X3922443Y-14226388D01*
X3922443Y-14226388D02*
X3912920Y-14188293D01*
X3912920Y-14188293D02*
X3912920Y-14140674D01*
X3912920Y-14140674D02*
X3922443Y-14102579D01*
X3922443Y-14102579D02*
X3931967Y-14083531D01*
X3931967Y-14083531D02*
X3941491Y-14074008D01*
X3941491Y-14074008D02*
X3960539Y-14064484D01*
X4112920Y-14264484D02*
X4112920Y-14131150D01*
X4112920Y-14150198D02*
X4122443Y-14140674D01*
X4122443Y-14140674D02*
X4141491Y-14131150D01*
X4141491Y-14131150D02*
X4170063Y-14131150D01*
X4170063Y-14131150D02*
X4189110Y-14140674D01*
X4189110Y-14140674D02*
X4198634Y-14159722D01*
X4198634Y-14159722D02*
X4198634Y-14264484D01*
X4198634Y-14159722D02*
X4208158Y-14140674D01*
X4208158Y-14140674D02*
X4227205Y-14131150D01*
X4227205Y-14131150D02*
X4255777Y-14131150D01*
X4255777Y-14131150D02*
X4274825Y-14140674D01*
X4274825Y-14140674D02*
X4284348Y-14159722D01*
X4284348Y-14159722D02*
X4284348Y-14264484D01*
X4379586Y-14264484D02*
X4379586Y-14131150D01*
X4379586Y-14150198D02*
X4389110Y-14140674D01*
X4389110Y-14140674D02*
X4408158Y-14131150D01*
X4408158Y-14131150D02*
X4436729Y-14131150D01*
X4436729Y-14131150D02*
X4455777Y-14140674D01*
X4455777Y-14140674D02*
X4465301Y-14159722D01*
X4465301Y-14159722D02*
X4465301Y-14264484D01*
X4465301Y-14159722D02*
X4474825Y-14140674D01*
X4474825Y-14140674D02*
X4493872Y-14131150D01*
X4493872Y-14131150D02*
X4522444Y-14131150D01*
X4522444Y-14131150D02*
X4541491Y-14140674D01*
X4541491Y-14140674D02*
X4551015Y-14159722D01*
X4551015Y-14159722D02*
X4551015Y-14264484D01*
X4941491Y-14054960D02*
X4770063Y-14312103D01*
X5198634Y-14064484D02*
X5217682Y-14064484D01*
X5217682Y-14064484D02*
X5236729Y-14074008D01*
X5236729Y-14074008D02*
X5246253Y-14083531D01*
X5246253Y-14083531D02*
X5255777Y-14102579D01*
X5255777Y-14102579D02*
X5265301Y-14140674D01*
X5265301Y-14140674D02*
X5265301Y-14188293D01*
X5265301Y-14188293D02*
X5255777Y-14226388D01*
X5255777Y-14226388D02*
X5246253Y-14245436D01*
X5246253Y-14245436D02*
X5236729Y-14254960D01*
X5236729Y-14254960D02*
X5217682Y-14264484D01*
X5217682Y-14264484D02*
X5198634Y-14264484D01*
X5198634Y-14264484D02*
X5179587Y-14254960D01*
X5179587Y-14254960D02*
X5170063Y-14245436D01*
X5170063Y-14245436D02*
X5160539Y-14226388D01*
X5160539Y-14226388D02*
X5151015Y-14188293D01*
X5151015Y-14188293D02*
X5151015Y-14140674D01*
X5151015Y-14140674D02*
X5160539Y-14102579D01*
X5160539Y-14102579D02*
X5170063Y-14083531D01*
X5170063Y-14083531D02*
X5179587Y-14074008D01*
X5179587Y-14074008D02*
X5198634Y-14064484D01*
X5351015Y-14245436D02*
X5360539Y-14254960D01*
X5360539Y-14254960D02*
X5351015Y-14264484D01*
X5351015Y-14264484D02*
X5341491Y-14254960D01*
X5341491Y-14254960D02*
X5351015Y-14245436D01*
X5351015Y-14245436D02*
X5351015Y-14264484D01*
X5484348Y-14064484D02*
X5503396Y-14064484D01*
X5503396Y-14064484D02*
X5522444Y-14074008D01*
X5522444Y-14074008D02*
X5531968Y-14083531D01*
X5531968Y-14083531D02*
X5541491Y-14102579D01*
X5541491Y-14102579D02*
X5551015Y-14140674D01*
X5551015Y-14140674D02*
X5551015Y-14188293D01*
X5551015Y-14188293D02*
X5541491Y-14226388D01*
X5541491Y-14226388D02*
X5531968Y-14245436D01*
X5531968Y-14245436D02*
X5522444Y-14254960D01*
X5522444Y-14254960D02*
X5503396Y-14264484D01*
X5503396Y-14264484D02*
X5484348Y-14264484D01*
X5484348Y-14264484D02*
X5465301Y-14254960D01*
X5465301Y-14254960D02*
X5455777Y-14245436D01*
X5455777Y-14245436D02*
X5446253Y-14226388D01*
X5446253Y-14226388D02*
X5436729Y-14188293D01*
X5436729Y-14188293D02*
X5436729Y-14140674D01*
X5436729Y-14140674D02*
X5446253Y-14102579D01*
X5446253Y-14102579D02*
X5455777Y-14083531D01*
X5455777Y-14083531D02*
X5465301Y-14074008D01*
X5465301Y-14074008D02*
X5484348Y-14064484D01*
X5627206Y-14083531D02*
X5636729Y-14074008D01*
X5636729Y-14074008D02*
X5655777Y-14064484D01*
X5655777Y-14064484D02*
X5703396Y-14064484D01*
X5703396Y-14064484D02*
X5722444Y-14074008D01*
X5722444Y-14074008D02*
X5731967Y-14083531D01*
X5731967Y-14083531D02*
X5741491Y-14102579D01*
X5741491Y-14102579D02*
X5741491Y-14121627D01*
X5741491Y-14121627D02*
X5731967Y-14150198D01*
X5731967Y-14150198D02*
X5617682Y-14264484D01*
X5617682Y-14264484D02*
X5741491Y-14264484D01*
X5808158Y-14064484D02*
X5941491Y-14064484D01*
X5941491Y-14064484D02*
X5855777Y-14264484D01*
X6103396Y-14064484D02*
X6065301Y-14064484D01*
X6065301Y-14064484D02*
X6046253Y-14074008D01*
X6046253Y-14074008D02*
X6036729Y-14083531D01*
X6036729Y-14083531D02*
X6017682Y-14112103D01*
X6017682Y-14112103D02*
X6008158Y-14150198D01*
X6008158Y-14150198D02*
X6008158Y-14226388D01*
X6008158Y-14226388D02*
X6017682Y-14245436D01*
X6017682Y-14245436D02*
X6027206Y-14254960D01*
X6027206Y-14254960D02*
X6046253Y-14264484D01*
X6046253Y-14264484D02*
X6084348Y-14264484D01*
X6084348Y-14264484D02*
X6103396Y-14254960D01*
X6103396Y-14254960D02*
X6112920Y-14245436D01*
X6112920Y-14245436D02*
X6122444Y-14226388D01*
X6122444Y-14226388D02*
X6122444Y-14178769D01*
X6122444Y-14178769D02*
X6112920Y-14159722D01*
X6112920Y-14159722D02*
X6103396Y-14150198D01*
X6103396Y-14150198D02*
X6084348Y-14140674D01*
X6084348Y-14140674D02*
X6046253Y-14140674D01*
X6046253Y-14140674D02*
X6027206Y-14150198D01*
X6027206Y-14150198D02*
X6017682Y-14159722D01*
X6017682Y-14159722D02*
X6008158Y-14178769D01*
X6198634Y-14064484D02*
X6198634Y-14102579D01*
X6274825Y-14064484D02*
X6274825Y-14102579D01*
X6570063Y-14340674D02*
X6560539Y-14331150D01*
X6560539Y-14331150D02*
X6541491Y-14302579D01*
X6541491Y-14302579D02*
X6531968Y-14283531D01*
X6531968Y-14283531D02*
X6522444Y-14254960D01*
X6522444Y-14254960D02*
X6512920Y-14207341D01*
X6512920Y-14207341D02*
X6512920Y-14169246D01*
X6512920Y-14169246D02*
X6522444Y-14121627D01*
X6522444Y-14121627D02*
X6531968Y-14093055D01*
X6531968Y-14093055D02*
X6541491Y-14074008D01*
X6541491Y-14074008D02*
X6560539Y-14045436D01*
X6560539Y-14045436D02*
X6570063Y-14035912D01*
X6674825Y-14150198D02*
X6655777Y-14140674D01*
X6655777Y-14140674D02*
X6646253Y-14131150D01*
X6646253Y-14131150D02*
X6636729Y-14112103D01*
X6636729Y-14112103D02*
X6636729Y-14102579D01*
X6636729Y-14102579D02*
X6646253Y-14083531D01*
X6646253Y-14083531D02*
X6655777Y-14074008D01*
X6655777Y-14074008D02*
X6674825Y-14064484D01*
X6674825Y-14064484D02*
X6712920Y-14064484D01*
X6712920Y-14064484D02*
X6731968Y-14074008D01*
X6731968Y-14074008D02*
X6741491Y-14083531D01*
X6741491Y-14083531D02*
X6751015Y-14102579D01*
X6751015Y-14102579D02*
X6751015Y-14112103D01*
X6751015Y-14112103D02*
X6741491Y-14131150D01*
X6741491Y-14131150D02*
X6731968Y-14140674D01*
X6731968Y-14140674D02*
X6712920Y-14150198D01*
X6712920Y-14150198D02*
X6674825Y-14150198D01*
X6674825Y-14150198D02*
X6655777Y-14159722D01*
X6655777Y-14159722D02*
X6646253Y-14169246D01*
X6646253Y-14169246D02*
X6636729Y-14188293D01*
X6636729Y-14188293D02*
X6636729Y-14226388D01*
X6636729Y-14226388D02*
X6646253Y-14245436D01*
X6646253Y-14245436D02*
X6655777Y-14254960D01*
X6655777Y-14254960D02*
X6674825Y-14264484D01*
X6674825Y-14264484D02*
X6712920Y-14264484D01*
X6712920Y-14264484D02*
X6731968Y-14254960D01*
X6731968Y-14254960D02*
X6741491Y-14245436D01*
X6741491Y-14245436D02*
X6751015Y-14226388D01*
X6751015Y-14226388D02*
X6751015Y-14188293D01*
X6751015Y-14188293D02*
X6741491Y-14169246D01*
X6741491Y-14169246D02*
X6731968Y-14159722D01*
X6731968Y-14159722D02*
X6712920Y-14150198D01*
X6989110Y-14264484D02*
X6989110Y-14064484D01*
X7074825Y-14264484D02*
X7074825Y-14159722D01*
X7074825Y-14159722D02*
X7065301Y-14140674D01*
X7065301Y-14140674D02*
X7046253Y-14131150D01*
X7046253Y-14131150D02*
X7017682Y-14131150D01*
X7017682Y-14131150D02*
X6998634Y-14140674D01*
X6998634Y-14140674D02*
X6989110Y-14150198D01*
X7198634Y-14264484D02*
X7179587Y-14254960D01*
X7179587Y-14254960D02*
X7170063Y-14245436D01*
X7170063Y-14245436D02*
X7160539Y-14226388D01*
X7160539Y-14226388D02*
X7160539Y-14169246D01*
X7160539Y-14169246D02*
X7170063Y-14150198D01*
X7170063Y-14150198D02*
X7179587Y-14140674D01*
X7179587Y-14140674D02*
X7198634Y-14131150D01*
X7198634Y-14131150D02*
X7227206Y-14131150D01*
X7227206Y-14131150D02*
X7246253Y-14140674D01*
X7246253Y-14140674D02*
X7255777Y-14150198D01*
X7255777Y-14150198D02*
X7265301Y-14169246D01*
X7265301Y-14169246D02*
X7265301Y-14226388D01*
X7265301Y-14226388D02*
X7255777Y-14245436D01*
X7255777Y-14245436D02*
X7246253Y-14254960D01*
X7246253Y-14254960D02*
X7227206Y-14264484D01*
X7227206Y-14264484D02*
X7198634Y-14264484D01*
X7379587Y-14264484D02*
X7360539Y-14254960D01*
X7360539Y-14254960D02*
X7351015Y-14235912D01*
X7351015Y-14235912D02*
X7351015Y-14064484D01*
X7531968Y-14254960D02*
X7512920Y-14264484D01*
X7512920Y-14264484D02*
X7474825Y-14264484D01*
X7474825Y-14264484D02*
X7455777Y-14254960D01*
X7455777Y-14254960D02*
X7446253Y-14235912D01*
X7446253Y-14235912D02*
X7446253Y-14159722D01*
X7446253Y-14159722D02*
X7455777Y-14140674D01*
X7455777Y-14140674D02*
X7474825Y-14131150D01*
X7474825Y-14131150D02*
X7512920Y-14131150D01*
X7512920Y-14131150D02*
X7531968Y-14140674D01*
X7531968Y-14140674D02*
X7541491Y-14159722D01*
X7541491Y-14159722D02*
X7541491Y-14178769D01*
X7541491Y-14178769D02*
X7446253Y-14197817D01*
X7617682Y-14254960D02*
X7636730Y-14264484D01*
X7636730Y-14264484D02*
X7674825Y-14264484D01*
X7674825Y-14264484D02*
X7693872Y-14254960D01*
X7693872Y-14254960D02*
X7703396Y-14235912D01*
X7703396Y-14235912D02*
X7703396Y-14226388D01*
X7703396Y-14226388D02*
X7693872Y-14207341D01*
X7693872Y-14207341D02*
X7674825Y-14197817D01*
X7674825Y-14197817D02*
X7646253Y-14197817D01*
X7646253Y-14197817D02*
X7627206Y-14188293D01*
X7627206Y-14188293D02*
X7617682Y-14169246D01*
X7617682Y-14169246D02*
X7617682Y-14159722D01*
X7617682Y-14159722D02*
X7627206Y-14140674D01*
X7627206Y-14140674D02*
X7646253Y-14131150D01*
X7646253Y-14131150D02*
X7674825Y-14131150D01*
X7674825Y-14131150D02*
X7693872Y-14140674D01*
X7770063Y-14340674D02*
X7779587Y-14331150D01*
X7779587Y-14331150D02*
X7798634Y-14302579D01*
X7798634Y-14302579D02*
X7808158Y-14283531D01*
X7808158Y-14283531D02*
X7817682Y-14254960D01*
X7817682Y-14254960D02*
X7827206Y-14207341D01*
X7827206Y-14207341D02*
X7827206Y-14169246D01*
X7827206Y-14169246D02*
X7817682Y-14121627D01*
X7817682Y-14121627D02*
X7808158Y-14093055D01*
X7808158Y-14093055D02*
X7798634Y-14074008D01*
X7798634Y-14074008D02*
X7779587Y-14045436D01*
X7779587Y-14045436D02*
X7770063Y-14035912D01*
D10*
X2983284Y-14465284D02*
X2983284Y-14408715D01*
X2926715Y-14408715D01*
X2926715Y-14465284D01*
X2983284Y-14465284D01*
D11*
X3293872Y-14328484D02*
X3312920Y-14328484D01*
X3312920Y-14328484D02*
X3331967Y-14338008D01*
X3331967Y-14338008D02*
X3341491Y-14347531D01*
X3341491Y-14347531D02*
X3351015Y-14366579D01*
X3351015Y-14366579D02*
X3360539Y-14404674D01*
X3360539Y-14404674D02*
X3360539Y-14452293D01*
X3360539Y-14452293D02*
X3351015Y-14490388D01*
X3351015Y-14490388D02*
X3341491Y-14509436D01*
X3341491Y-14509436D02*
X3331967Y-14518960D01*
X3331967Y-14518960D02*
X3312920Y-14528484D01*
X3312920Y-14528484D02*
X3293872Y-14528484D01*
X3293872Y-14528484D02*
X3274824Y-14518960D01*
X3274824Y-14518960D02*
X3265301Y-14509436D01*
X3265301Y-14509436D02*
X3255777Y-14490388D01*
X3255777Y-14490388D02*
X3246253Y-14452293D01*
X3246253Y-14452293D02*
X3246253Y-14404674D01*
X3246253Y-14404674D02*
X3255777Y-14366579D01*
X3255777Y-14366579D02*
X3265301Y-14347531D01*
X3265301Y-14347531D02*
X3274824Y-14338008D01*
X3274824Y-14338008D02*
X3293872Y-14328484D01*
X3446253Y-14509436D02*
X3455777Y-14518960D01*
X3455777Y-14518960D02*
X3446253Y-14528484D01*
X3446253Y-14528484D02*
X3436729Y-14518960D01*
X3436729Y-14518960D02*
X3446253Y-14509436D01*
X3446253Y-14509436D02*
X3446253Y-14528484D01*
X3570062Y-14414198D02*
X3551015Y-14404674D01*
X3551015Y-14404674D02*
X3541491Y-14395150D01*
X3541491Y-14395150D02*
X3531967Y-14376103D01*
X3531967Y-14376103D02*
X3531967Y-14366579D01*
X3531967Y-14366579D02*
X3541491Y-14347531D01*
X3541491Y-14347531D02*
X3551015Y-14338008D01*
X3551015Y-14338008D02*
X3570062Y-14328484D01*
X3570062Y-14328484D02*
X3608158Y-14328484D01*
X3608158Y-14328484D02*
X3627205Y-14338008D01*
X3627205Y-14338008D02*
X3636729Y-14347531D01*
X3636729Y-14347531D02*
X3646253Y-14366579D01*
X3646253Y-14366579D02*
X3646253Y-14376103D01*
X3646253Y-14376103D02*
X3636729Y-14395150D01*
X3636729Y-14395150D02*
X3627205Y-14404674D01*
X3627205Y-14404674D02*
X3608158Y-14414198D01*
X3608158Y-14414198D02*
X3570062Y-14414198D01*
X3570062Y-14414198D02*
X3551015Y-14423722D01*
X3551015Y-14423722D02*
X3541491Y-14433246D01*
X3541491Y-14433246D02*
X3531967Y-14452293D01*
X3531967Y-14452293D02*
X3531967Y-14490388D01*
X3531967Y-14490388D02*
X3541491Y-14509436D01*
X3541491Y-14509436D02*
X3551015Y-14518960D01*
X3551015Y-14518960D02*
X3570062Y-14528484D01*
X3570062Y-14528484D02*
X3608158Y-14528484D01*
X3608158Y-14528484D02*
X3627205Y-14518960D01*
X3627205Y-14518960D02*
X3636729Y-14509436D01*
X3636729Y-14509436D02*
X3646253Y-14490388D01*
X3646253Y-14490388D02*
X3646253Y-14452293D01*
X3646253Y-14452293D02*
X3636729Y-14433246D01*
X3636729Y-14433246D02*
X3627205Y-14423722D01*
X3627205Y-14423722D02*
X3608158Y-14414198D01*
X3770062Y-14328484D02*
X3789110Y-14328484D01*
X3789110Y-14328484D02*
X3808158Y-14338008D01*
X3808158Y-14338008D02*
X3817682Y-14347531D01*
X3817682Y-14347531D02*
X3827205Y-14366579D01*
X3827205Y-14366579D02*
X3836729Y-14404674D01*
X3836729Y-14404674D02*
X3836729Y-14452293D01*
X3836729Y-14452293D02*
X3827205Y-14490388D01*
X3827205Y-14490388D02*
X3817682Y-14509436D01*
X3817682Y-14509436D02*
X3808158Y-14518960D01*
X3808158Y-14518960D02*
X3789110Y-14528484D01*
X3789110Y-14528484D02*
X3770062Y-14528484D01*
X3770062Y-14528484D02*
X3751015Y-14518960D01*
X3751015Y-14518960D02*
X3741491Y-14509436D01*
X3741491Y-14509436D02*
X3731967Y-14490388D01*
X3731967Y-14490388D02*
X3722443Y-14452293D01*
X3722443Y-14452293D02*
X3722443Y-14404674D01*
X3722443Y-14404674D02*
X3731967Y-14366579D01*
X3731967Y-14366579D02*
X3741491Y-14347531D01*
X3741491Y-14347531D02*
X3751015Y-14338008D01*
X3751015Y-14338008D02*
X3770062Y-14328484D01*
X3960539Y-14328484D02*
X3979586Y-14328484D01*
X3979586Y-14328484D02*
X3998634Y-14338008D01*
X3998634Y-14338008D02*
X4008158Y-14347531D01*
X4008158Y-14347531D02*
X4017682Y-14366579D01*
X4017682Y-14366579D02*
X4027205Y-14404674D01*
X4027205Y-14404674D02*
X4027205Y-14452293D01*
X4027205Y-14452293D02*
X4017682Y-14490388D01*
X4017682Y-14490388D02*
X4008158Y-14509436D01*
X4008158Y-14509436D02*
X3998634Y-14518960D01*
X3998634Y-14518960D02*
X3979586Y-14528484D01*
X3979586Y-14528484D02*
X3960539Y-14528484D01*
X3960539Y-14528484D02*
X3941491Y-14518960D01*
X3941491Y-14518960D02*
X3931967Y-14509436D01*
X3931967Y-14509436D02*
X3922443Y-14490388D01*
X3922443Y-14490388D02*
X3912920Y-14452293D01*
X3912920Y-14452293D02*
X3912920Y-14404674D01*
X3912920Y-14404674D02*
X3922443Y-14366579D01*
X3922443Y-14366579D02*
X3931967Y-14347531D01*
X3931967Y-14347531D02*
X3941491Y-14338008D01*
X3941491Y-14338008D02*
X3960539Y-14328484D01*
X4112920Y-14528484D02*
X4112920Y-14395150D01*
X4112920Y-14414198D02*
X4122443Y-14404674D01*
X4122443Y-14404674D02*
X4141491Y-14395150D01*
X4141491Y-14395150D02*
X4170063Y-14395150D01*
X4170063Y-14395150D02*
X4189110Y-14404674D01*
X4189110Y-14404674D02*
X4198634Y-14423722D01*
X4198634Y-14423722D02*
X4198634Y-14528484D01*
X4198634Y-14423722D02*
X4208158Y-14404674D01*
X4208158Y-14404674D02*
X4227205Y-14395150D01*
X4227205Y-14395150D02*
X4255777Y-14395150D01*
X4255777Y-14395150D02*
X4274825Y-14404674D01*
X4274825Y-14404674D02*
X4284348Y-14423722D01*
X4284348Y-14423722D02*
X4284348Y-14528484D01*
X4379586Y-14528484D02*
X4379586Y-14395150D01*
X4379586Y-14414198D02*
X4389110Y-14404674D01*
X4389110Y-14404674D02*
X4408158Y-14395150D01*
X4408158Y-14395150D02*
X4436729Y-14395150D01*
X4436729Y-14395150D02*
X4455777Y-14404674D01*
X4455777Y-14404674D02*
X4465301Y-14423722D01*
X4465301Y-14423722D02*
X4465301Y-14528484D01*
X4465301Y-14423722D02*
X4474825Y-14404674D01*
X4474825Y-14404674D02*
X4493872Y-14395150D01*
X4493872Y-14395150D02*
X4522444Y-14395150D01*
X4522444Y-14395150D02*
X4541491Y-14404674D01*
X4541491Y-14404674D02*
X4551015Y-14423722D01*
X4551015Y-14423722D02*
X4551015Y-14528484D01*
X4941491Y-14318960D02*
X4770063Y-14576103D01*
X5198634Y-14328484D02*
X5217682Y-14328484D01*
X5217682Y-14328484D02*
X5236729Y-14338008D01*
X5236729Y-14338008D02*
X5246253Y-14347531D01*
X5246253Y-14347531D02*
X5255777Y-14366579D01*
X5255777Y-14366579D02*
X5265301Y-14404674D01*
X5265301Y-14404674D02*
X5265301Y-14452293D01*
X5265301Y-14452293D02*
X5255777Y-14490388D01*
X5255777Y-14490388D02*
X5246253Y-14509436D01*
X5246253Y-14509436D02*
X5236729Y-14518960D01*
X5236729Y-14518960D02*
X5217682Y-14528484D01*
X5217682Y-14528484D02*
X5198634Y-14528484D01*
X5198634Y-14528484D02*
X5179587Y-14518960D01*
X5179587Y-14518960D02*
X5170063Y-14509436D01*
X5170063Y-14509436D02*
X5160539Y-14490388D01*
X5160539Y-14490388D02*
X5151015Y-14452293D01*
X5151015Y-14452293D02*
X5151015Y-14404674D01*
X5151015Y-14404674D02*
X5160539Y-14366579D01*
X5160539Y-14366579D02*
X5170063Y-14347531D01*
X5170063Y-14347531D02*
X5179587Y-14338008D01*
X5179587Y-14338008D02*
X5198634Y-14328484D01*
X5351015Y-14509436D02*
X5360539Y-14518960D01*
X5360539Y-14518960D02*
X5351015Y-14528484D01*
X5351015Y-14528484D02*
X5341491Y-14518960D01*
X5341491Y-14518960D02*
X5351015Y-14509436D01*
X5351015Y-14509436D02*
X5351015Y-14528484D01*
X5484348Y-14328484D02*
X5503396Y-14328484D01*
X5503396Y-14328484D02*
X5522444Y-14338008D01*
X5522444Y-14338008D02*
X5531968Y-14347531D01*
X5531968Y-14347531D02*
X5541491Y-14366579D01*
X5541491Y-14366579D02*
X5551015Y-14404674D01*
X5551015Y-14404674D02*
X5551015Y-14452293D01*
X5551015Y-14452293D02*
X5541491Y-14490388D01*
X5541491Y-14490388D02*
X5531968Y-14509436D01*
X5531968Y-14509436D02*
X5522444Y-14518960D01*
X5522444Y-14518960D02*
X5503396Y-14528484D01*
X5503396Y-14528484D02*
X5484348Y-14528484D01*
X5484348Y-14528484D02*
X5465301Y-14518960D01*
X5465301Y-14518960D02*
X5455777Y-14509436D01*
X5455777Y-14509436D02*
X5446253Y-14490388D01*
X5446253Y-14490388D02*
X5436729Y-14452293D01*
X5436729Y-14452293D02*
X5436729Y-14404674D01*
X5436729Y-14404674D02*
X5446253Y-14366579D01*
X5446253Y-14366579D02*
X5455777Y-14347531D01*
X5455777Y-14347531D02*
X5465301Y-14338008D01*
X5465301Y-14338008D02*
X5484348Y-14328484D01*
X5617682Y-14328484D02*
X5741491Y-14328484D01*
X5741491Y-14328484D02*
X5674825Y-14404674D01*
X5674825Y-14404674D02*
X5703396Y-14404674D01*
X5703396Y-14404674D02*
X5722444Y-14414198D01*
X5722444Y-14414198D02*
X5731967Y-14423722D01*
X5731967Y-14423722D02*
X5741491Y-14442769D01*
X5741491Y-14442769D02*
X5741491Y-14490388D01*
X5741491Y-14490388D02*
X5731967Y-14509436D01*
X5731967Y-14509436D02*
X5722444Y-14518960D01*
X5722444Y-14518960D02*
X5703396Y-14528484D01*
X5703396Y-14528484D02*
X5646253Y-14528484D01*
X5646253Y-14528484D02*
X5627206Y-14518960D01*
X5627206Y-14518960D02*
X5617682Y-14509436D01*
X5931967Y-14528484D02*
X5817682Y-14528484D01*
X5874825Y-14528484D02*
X5874825Y-14328484D01*
X5874825Y-14328484D02*
X5855777Y-14357055D01*
X5855777Y-14357055D02*
X5836729Y-14376103D01*
X5836729Y-14376103D02*
X5817682Y-14385627D01*
X6112920Y-14328484D02*
X6017682Y-14328484D01*
X6017682Y-14328484D02*
X6008158Y-14423722D01*
X6008158Y-14423722D02*
X6017682Y-14414198D01*
X6017682Y-14414198D02*
X6036729Y-14404674D01*
X6036729Y-14404674D02*
X6084348Y-14404674D01*
X6084348Y-14404674D02*
X6103396Y-14414198D01*
X6103396Y-14414198D02*
X6112920Y-14423722D01*
X6112920Y-14423722D02*
X6122444Y-14442769D01*
X6122444Y-14442769D02*
X6122444Y-14490388D01*
X6122444Y-14490388D02*
X6112920Y-14509436D01*
X6112920Y-14509436D02*
X6103396Y-14518960D01*
X6103396Y-14518960D02*
X6084348Y-14528484D01*
X6084348Y-14528484D02*
X6036729Y-14528484D01*
X6036729Y-14528484D02*
X6017682Y-14518960D01*
X6017682Y-14518960D02*
X6008158Y-14509436D01*
X6198634Y-14328484D02*
X6198634Y-14366579D01*
X6274825Y-14328484D02*
X6274825Y-14366579D01*
X6570063Y-14604674D02*
X6560539Y-14595150D01*
X6560539Y-14595150D02*
X6541491Y-14566579D01*
X6541491Y-14566579D02*
X6531968Y-14547531D01*
X6531968Y-14547531D02*
X6522444Y-14518960D01*
X6522444Y-14518960D02*
X6512920Y-14471341D01*
X6512920Y-14471341D02*
X6512920Y-14433246D01*
X6512920Y-14433246D02*
X6522444Y-14385627D01*
X6522444Y-14385627D02*
X6531968Y-14357055D01*
X6531968Y-14357055D02*
X6541491Y-14338008D01*
X6541491Y-14338008D02*
X6560539Y-14309436D01*
X6560539Y-14309436D02*
X6570063Y-14299912D01*
X6636729Y-14347531D02*
X6646253Y-14338008D01*
X6646253Y-14338008D02*
X6665301Y-14328484D01*
X6665301Y-14328484D02*
X6712920Y-14328484D01*
X6712920Y-14328484D02*
X6731968Y-14338008D01*
X6731968Y-14338008D02*
X6741491Y-14347531D01*
X6741491Y-14347531D02*
X6751015Y-14366579D01*
X6751015Y-14366579D02*
X6751015Y-14385627D01*
X6751015Y-14385627D02*
X6741491Y-14414198D01*
X6741491Y-14414198D02*
X6627206Y-14528484D01*
X6627206Y-14528484D02*
X6751015Y-14528484D01*
X6922444Y-14395150D02*
X6922444Y-14528484D01*
X6874825Y-14318960D02*
X6827206Y-14461817D01*
X6827206Y-14461817D02*
X6951015Y-14461817D01*
X7112920Y-14328484D02*
X7074825Y-14328484D01*
X7074825Y-14328484D02*
X7055777Y-14338008D01*
X7055777Y-14338008D02*
X7046253Y-14347531D01*
X7046253Y-14347531D02*
X7027206Y-14376103D01*
X7027206Y-14376103D02*
X7017682Y-14414198D01*
X7017682Y-14414198D02*
X7017682Y-14490388D01*
X7017682Y-14490388D02*
X7027206Y-14509436D01*
X7027206Y-14509436D02*
X7036729Y-14518960D01*
X7036729Y-14518960D02*
X7055777Y-14528484D01*
X7055777Y-14528484D02*
X7093872Y-14528484D01*
X7093872Y-14528484D02*
X7112920Y-14518960D01*
X7112920Y-14518960D02*
X7122444Y-14509436D01*
X7122444Y-14509436D02*
X7131968Y-14490388D01*
X7131968Y-14490388D02*
X7131968Y-14442769D01*
X7131968Y-14442769D02*
X7122444Y-14423722D01*
X7122444Y-14423722D02*
X7112920Y-14414198D01*
X7112920Y-14414198D02*
X7093872Y-14404674D01*
X7093872Y-14404674D02*
X7055777Y-14404674D01*
X7055777Y-14404674D02*
X7036729Y-14414198D01*
X7036729Y-14414198D02*
X7027206Y-14423722D01*
X7027206Y-14423722D02*
X7017682Y-14442769D01*
X7370063Y-14528484D02*
X7370063Y-14328484D01*
X7455777Y-14528484D02*
X7455777Y-14423722D01*
X7455777Y-14423722D02*
X7446253Y-14404674D01*
X7446253Y-14404674D02*
X7427206Y-14395150D01*
X7427206Y-14395150D02*
X7398634Y-14395150D01*
X7398634Y-14395150D02*
X7379587Y-14404674D01*
X7379587Y-14404674D02*
X7370063Y-14414198D01*
X7579587Y-14528484D02*
X7560539Y-14518960D01*
X7560539Y-14518960D02*
X7551015Y-14509436D01*
X7551015Y-14509436D02*
X7541491Y-14490388D01*
X7541491Y-14490388D02*
X7541491Y-14433246D01*
X7541491Y-14433246D02*
X7551015Y-14414198D01*
X7551015Y-14414198D02*
X7560539Y-14404674D01*
X7560539Y-14404674D02*
X7579587Y-14395150D01*
X7579587Y-14395150D02*
X7608158Y-14395150D01*
X7608158Y-14395150D02*
X7627206Y-14404674D01*
X7627206Y-14404674D02*
X7636730Y-14414198D01*
X7636730Y-14414198D02*
X7646253Y-14433246D01*
X7646253Y-14433246D02*
X7646253Y-14490388D01*
X7646253Y-14490388D02*
X7636730Y-14509436D01*
X7636730Y-14509436D02*
X7627206Y-14518960D01*
X7627206Y-14518960D02*
X7608158Y-14528484D01*
X7608158Y-14528484D02*
X7579587Y-14528484D01*
X7760539Y-14528484D02*
X7741491Y-14518960D01*
X7741491Y-14518960D02*
X7731968Y-14499912D01*
X7731968Y-14499912D02*
X7731968Y-14328484D01*
X7912920Y-14518960D02*
X7893872Y-14528484D01*
X7893872Y-14528484D02*
X7855777Y-14528484D01*
X7855777Y-14528484D02*
X7836730Y-14518960D01*
X7836730Y-14518960D02*
X7827206Y-14499912D01*
X7827206Y-14499912D02*
X7827206Y-14423722D01*
X7827206Y-14423722D02*
X7836730Y-14404674D01*
X7836730Y-14404674D02*
X7855777Y-14395150D01*
X7855777Y-14395150D02*
X7893872Y-14395150D01*
X7893872Y-14395150D02*
X7912920Y-14404674D01*
X7912920Y-14404674D02*
X7922444Y-14423722D01*
X7922444Y-14423722D02*
X7922444Y-14442769D01*
X7922444Y-14442769D02*
X7827206Y-14461817D01*
X7998634Y-14518960D02*
X8017682Y-14528484D01*
X8017682Y-14528484D02*
X8055777Y-14528484D01*
X8055777Y-14528484D02*
X8074825Y-14518960D01*
X8074825Y-14518960D02*
X8084349Y-14499912D01*
X8084349Y-14499912D02*
X8084349Y-14490388D01*
X8084349Y-14490388D02*
X8074825Y-14471341D01*
X8074825Y-14471341D02*
X8055777Y-14461817D01*
X8055777Y-14461817D02*
X8027206Y-14461817D01*
X8027206Y-14461817D02*
X8008158Y-14452293D01*
X8008158Y-14452293D02*
X7998634Y-14433246D01*
X7998634Y-14433246D02*
X7998634Y-14423722D01*
X7998634Y-14423722D02*
X8008158Y-14404674D01*
X8008158Y-14404674D02*
X8027206Y-14395150D01*
X8027206Y-14395150D02*
X8055777Y-14395150D01*
X8055777Y-14395150D02*
X8074825Y-14404674D01*
X8151015Y-14604674D02*
X8160539Y-14595150D01*
X8160539Y-14595150D02*
X8179587Y-14566579D01*
X8179587Y-14566579D02*
X8189111Y-14547531D01*
X8189111Y-14547531D02*
X8198634Y-14518960D01*
X8198634Y-14518960D02*
X8208158Y-14471341D01*
X8208158Y-14471341D02*
X8208158Y-14433246D01*
X8208158Y-14433246D02*
X8198634Y-14385627D01*
X8198634Y-14385627D02*
X8189111Y-14357055D01*
X8189111Y-14357055D02*
X8179587Y-14338008D01*
X8179587Y-14338008D02*
X8160539Y-14309436D01*
X8160539Y-14309436D02*
X8151015Y-14299912D01*
D10*
X2950000Y-14746000D02*
X2995000Y-14701000D01*
X2950000Y-14656000D01*
X2905000Y-14701000D01*
X2950000Y-14746000D01*
D11*
X3293872Y-14592484D02*
X3312920Y-14592484D01*
X3312920Y-14592484D02*
X3331967Y-14602008D01*
X3331967Y-14602008D02*
X3341491Y-14611531D01*
X3341491Y-14611531D02*
X3351015Y-14630579D01*
X3351015Y-14630579D02*
X3360539Y-14668674D01*
X3360539Y-14668674D02*
X3360539Y-14716293D01*
X3360539Y-14716293D02*
X3351015Y-14754388D01*
X3351015Y-14754388D02*
X3341491Y-14773436D01*
X3341491Y-14773436D02*
X3331967Y-14782960D01*
X3331967Y-14782960D02*
X3312920Y-14792484D01*
X3312920Y-14792484D02*
X3293872Y-14792484D01*
X3293872Y-14792484D02*
X3274824Y-14782960D01*
X3274824Y-14782960D02*
X3265301Y-14773436D01*
X3265301Y-14773436D02*
X3255777Y-14754388D01*
X3255777Y-14754388D02*
X3246253Y-14716293D01*
X3246253Y-14716293D02*
X3246253Y-14668674D01*
X3246253Y-14668674D02*
X3255777Y-14630579D01*
X3255777Y-14630579D02*
X3265301Y-14611531D01*
X3265301Y-14611531D02*
X3274824Y-14602008D01*
X3274824Y-14602008D02*
X3293872Y-14592484D01*
X3446253Y-14773436D02*
X3455777Y-14782960D01*
X3455777Y-14782960D02*
X3446253Y-14792484D01*
X3446253Y-14792484D02*
X3436729Y-14782960D01*
X3436729Y-14782960D02*
X3446253Y-14773436D01*
X3446253Y-14773436D02*
X3446253Y-14792484D01*
X3551015Y-14792484D02*
X3589110Y-14792484D01*
X3589110Y-14792484D02*
X3608158Y-14782960D01*
X3608158Y-14782960D02*
X3617682Y-14773436D01*
X3617682Y-14773436D02*
X3636729Y-14744865D01*
X3636729Y-14744865D02*
X3646253Y-14706769D01*
X3646253Y-14706769D02*
X3646253Y-14630579D01*
X3646253Y-14630579D02*
X3636729Y-14611531D01*
X3636729Y-14611531D02*
X3627205Y-14602008D01*
X3627205Y-14602008D02*
X3608158Y-14592484D01*
X3608158Y-14592484D02*
X3570062Y-14592484D01*
X3570062Y-14592484D02*
X3551015Y-14602008D01*
X3551015Y-14602008D02*
X3541491Y-14611531D01*
X3541491Y-14611531D02*
X3531967Y-14630579D01*
X3531967Y-14630579D02*
X3531967Y-14678198D01*
X3531967Y-14678198D02*
X3541491Y-14697246D01*
X3541491Y-14697246D02*
X3551015Y-14706769D01*
X3551015Y-14706769D02*
X3570062Y-14716293D01*
X3570062Y-14716293D02*
X3608158Y-14716293D01*
X3608158Y-14716293D02*
X3627205Y-14706769D01*
X3627205Y-14706769D02*
X3636729Y-14697246D01*
X3636729Y-14697246D02*
X3646253Y-14678198D01*
X3770062Y-14592484D02*
X3789110Y-14592484D01*
X3789110Y-14592484D02*
X3808158Y-14602008D01*
X3808158Y-14602008D02*
X3817682Y-14611531D01*
X3817682Y-14611531D02*
X3827205Y-14630579D01*
X3827205Y-14630579D02*
X3836729Y-14668674D01*
X3836729Y-14668674D02*
X3836729Y-14716293D01*
X3836729Y-14716293D02*
X3827205Y-14754388D01*
X3827205Y-14754388D02*
X3817682Y-14773436D01*
X3817682Y-14773436D02*
X3808158Y-14782960D01*
X3808158Y-14782960D02*
X3789110Y-14792484D01*
X3789110Y-14792484D02*
X3770062Y-14792484D01*
X3770062Y-14792484D02*
X3751015Y-14782960D01*
X3751015Y-14782960D02*
X3741491Y-14773436D01*
X3741491Y-14773436D02*
X3731967Y-14754388D01*
X3731967Y-14754388D02*
X3722443Y-14716293D01*
X3722443Y-14716293D02*
X3722443Y-14668674D01*
X3722443Y-14668674D02*
X3731967Y-14630579D01*
X3731967Y-14630579D02*
X3741491Y-14611531D01*
X3741491Y-14611531D02*
X3751015Y-14602008D01*
X3751015Y-14602008D02*
X3770062Y-14592484D01*
X3960539Y-14592484D02*
X3979586Y-14592484D01*
X3979586Y-14592484D02*
X3998634Y-14602008D01*
X3998634Y-14602008D02*
X4008158Y-14611531D01*
X4008158Y-14611531D02*
X4017682Y-14630579D01*
X4017682Y-14630579D02*
X4027205Y-14668674D01*
X4027205Y-14668674D02*
X4027205Y-14716293D01*
X4027205Y-14716293D02*
X4017682Y-14754388D01*
X4017682Y-14754388D02*
X4008158Y-14773436D01*
X4008158Y-14773436D02*
X3998634Y-14782960D01*
X3998634Y-14782960D02*
X3979586Y-14792484D01*
X3979586Y-14792484D02*
X3960539Y-14792484D01*
X3960539Y-14792484D02*
X3941491Y-14782960D01*
X3941491Y-14782960D02*
X3931967Y-14773436D01*
X3931967Y-14773436D02*
X3922443Y-14754388D01*
X3922443Y-14754388D02*
X3912920Y-14716293D01*
X3912920Y-14716293D02*
X3912920Y-14668674D01*
X3912920Y-14668674D02*
X3922443Y-14630579D01*
X3922443Y-14630579D02*
X3931967Y-14611531D01*
X3931967Y-14611531D02*
X3941491Y-14602008D01*
X3941491Y-14602008D02*
X3960539Y-14592484D01*
X4112920Y-14792484D02*
X4112920Y-14659150D01*
X4112920Y-14678198D02*
X4122443Y-14668674D01*
X4122443Y-14668674D02*
X4141491Y-14659150D01*
X4141491Y-14659150D02*
X4170063Y-14659150D01*
X4170063Y-14659150D02*
X4189110Y-14668674D01*
X4189110Y-14668674D02*
X4198634Y-14687722D01*
X4198634Y-14687722D02*
X4198634Y-14792484D01*
X4198634Y-14687722D02*
X4208158Y-14668674D01*
X4208158Y-14668674D02*
X4227205Y-14659150D01*
X4227205Y-14659150D02*
X4255777Y-14659150D01*
X4255777Y-14659150D02*
X4274825Y-14668674D01*
X4274825Y-14668674D02*
X4284348Y-14687722D01*
X4284348Y-14687722D02*
X4284348Y-14792484D01*
X4379586Y-14792484D02*
X4379586Y-14659150D01*
X4379586Y-14678198D02*
X4389110Y-14668674D01*
X4389110Y-14668674D02*
X4408158Y-14659150D01*
X4408158Y-14659150D02*
X4436729Y-14659150D01*
X4436729Y-14659150D02*
X4455777Y-14668674D01*
X4455777Y-14668674D02*
X4465301Y-14687722D01*
X4465301Y-14687722D02*
X4465301Y-14792484D01*
X4465301Y-14687722D02*
X4474825Y-14668674D01*
X4474825Y-14668674D02*
X4493872Y-14659150D01*
X4493872Y-14659150D02*
X4522444Y-14659150D01*
X4522444Y-14659150D02*
X4541491Y-14668674D01*
X4541491Y-14668674D02*
X4551015Y-14687722D01*
X4551015Y-14687722D02*
X4551015Y-14792484D01*
X4941491Y-14582960D02*
X4770063Y-14840103D01*
X5198634Y-14592484D02*
X5217682Y-14592484D01*
X5217682Y-14592484D02*
X5236729Y-14602008D01*
X5236729Y-14602008D02*
X5246253Y-14611531D01*
X5246253Y-14611531D02*
X5255777Y-14630579D01*
X5255777Y-14630579D02*
X5265301Y-14668674D01*
X5265301Y-14668674D02*
X5265301Y-14716293D01*
X5265301Y-14716293D02*
X5255777Y-14754388D01*
X5255777Y-14754388D02*
X5246253Y-14773436D01*
X5246253Y-14773436D02*
X5236729Y-14782960D01*
X5236729Y-14782960D02*
X5217682Y-14792484D01*
X5217682Y-14792484D02*
X5198634Y-14792484D01*
X5198634Y-14792484D02*
X5179587Y-14782960D01*
X5179587Y-14782960D02*
X5170063Y-14773436D01*
X5170063Y-14773436D02*
X5160539Y-14754388D01*
X5160539Y-14754388D02*
X5151015Y-14716293D01*
X5151015Y-14716293D02*
X5151015Y-14668674D01*
X5151015Y-14668674D02*
X5160539Y-14630579D01*
X5160539Y-14630579D02*
X5170063Y-14611531D01*
X5170063Y-14611531D02*
X5179587Y-14602008D01*
X5179587Y-14602008D02*
X5198634Y-14592484D01*
X5351015Y-14773436D02*
X5360539Y-14782960D01*
X5360539Y-14782960D02*
X5351015Y-14792484D01*
X5351015Y-14792484D02*
X5341491Y-14782960D01*
X5341491Y-14782960D02*
X5351015Y-14773436D01*
X5351015Y-14773436D02*
X5351015Y-14792484D01*
X5484348Y-14592484D02*
X5503396Y-14592484D01*
X5503396Y-14592484D02*
X5522444Y-14602008D01*
X5522444Y-14602008D02*
X5531968Y-14611531D01*
X5531968Y-14611531D02*
X5541491Y-14630579D01*
X5541491Y-14630579D02*
X5551015Y-14668674D01*
X5551015Y-14668674D02*
X5551015Y-14716293D01*
X5551015Y-14716293D02*
X5541491Y-14754388D01*
X5541491Y-14754388D02*
X5531968Y-14773436D01*
X5531968Y-14773436D02*
X5522444Y-14782960D01*
X5522444Y-14782960D02*
X5503396Y-14792484D01*
X5503396Y-14792484D02*
X5484348Y-14792484D01*
X5484348Y-14792484D02*
X5465301Y-14782960D01*
X5465301Y-14782960D02*
X5455777Y-14773436D01*
X5455777Y-14773436D02*
X5446253Y-14754388D01*
X5446253Y-14754388D02*
X5436729Y-14716293D01*
X5436729Y-14716293D02*
X5436729Y-14668674D01*
X5436729Y-14668674D02*
X5446253Y-14630579D01*
X5446253Y-14630579D02*
X5455777Y-14611531D01*
X5455777Y-14611531D02*
X5465301Y-14602008D01*
X5465301Y-14602008D02*
X5484348Y-14592484D01*
X5617682Y-14592484D02*
X5741491Y-14592484D01*
X5741491Y-14592484D02*
X5674825Y-14668674D01*
X5674825Y-14668674D02*
X5703396Y-14668674D01*
X5703396Y-14668674D02*
X5722444Y-14678198D01*
X5722444Y-14678198D02*
X5731967Y-14687722D01*
X5731967Y-14687722D02*
X5741491Y-14706769D01*
X5741491Y-14706769D02*
X5741491Y-14754388D01*
X5741491Y-14754388D02*
X5731967Y-14773436D01*
X5731967Y-14773436D02*
X5722444Y-14782960D01*
X5722444Y-14782960D02*
X5703396Y-14792484D01*
X5703396Y-14792484D02*
X5646253Y-14792484D01*
X5646253Y-14792484D02*
X5627206Y-14782960D01*
X5627206Y-14782960D02*
X5617682Y-14773436D01*
X5922444Y-14592484D02*
X5827206Y-14592484D01*
X5827206Y-14592484D02*
X5817682Y-14687722D01*
X5817682Y-14687722D02*
X5827206Y-14678198D01*
X5827206Y-14678198D02*
X5846253Y-14668674D01*
X5846253Y-14668674D02*
X5893872Y-14668674D01*
X5893872Y-14668674D02*
X5912920Y-14678198D01*
X5912920Y-14678198D02*
X5922444Y-14687722D01*
X5922444Y-14687722D02*
X5931967Y-14706769D01*
X5931967Y-14706769D02*
X5931967Y-14754388D01*
X5931967Y-14754388D02*
X5922444Y-14773436D01*
X5922444Y-14773436D02*
X5912920Y-14782960D01*
X5912920Y-14782960D02*
X5893872Y-14792484D01*
X5893872Y-14792484D02*
X5846253Y-14792484D01*
X5846253Y-14792484D02*
X5827206Y-14782960D01*
X5827206Y-14782960D02*
X5817682Y-14773436D01*
X6103396Y-14659150D02*
X6103396Y-14792484D01*
X6055777Y-14582960D02*
X6008158Y-14725817D01*
X6008158Y-14725817D02*
X6131967Y-14725817D01*
X6198634Y-14592484D02*
X6198634Y-14630579D01*
X6274825Y-14592484D02*
X6274825Y-14630579D01*
X6570063Y-14868674D02*
X6560539Y-14859150D01*
X6560539Y-14859150D02*
X6541491Y-14830579D01*
X6541491Y-14830579D02*
X6531968Y-14811531D01*
X6531968Y-14811531D02*
X6522444Y-14782960D01*
X6522444Y-14782960D02*
X6512920Y-14735341D01*
X6512920Y-14735341D02*
X6512920Y-14697246D01*
X6512920Y-14697246D02*
X6522444Y-14649627D01*
X6522444Y-14649627D02*
X6531968Y-14621055D01*
X6531968Y-14621055D02*
X6541491Y-14602008D01*
X6541491Y-14602008D02*
X6560539Y-14573436D01*
X6560539Y-14573436D02*
X6570063Y-14563912D01*
X6636729Y-14611531D02*
X6646253Y-14602008D01*
X6646253Y-14602008D02*
X6665301Y-14592484D01*
X6665301Y-14592484D02*
X6712920Y-14592484D01*
X6712920Y-14592484D02*
X6731968Y-14602008D01*
X6731968Y-14602008D02*
X6741491Y-14611531D01*
X6741491Y-14611531D02*
X6751015Y-14630579D01*
X6751015Y-14630579D02*
X6751015Y-14649627D01*
X6751015Y-14649627D02*
X6741491Y-14678198D01*
X6741491Y-14678198D02*
X6627206Y-14792484D01*
X6627206Y-14792484D02*
X6751015Y-14792484D01*
X6989110Y-14792484D02*
X6989110Y-14592484D01*
X7074825Y-14792484D02*
X7074825Y-14687722D01*
X7074825Y-14687722D02*
X7065301Y-14668674D01*
X7065301Y-14668674D02*
X7046253Y-14659150D01*
X7046253Y-14659150D02*
X7017682Y-14659150D01*
X7017682Y-14659150D02*
X6998634Y-14668674D01*
X6998634Y-14668674D02*
X6989110Y-14678198D01*
X7198634Y-14792484D02*
X7179587Y-14782960D01*
X7179587Y-14782960D02*
X7170063Y-14773436D01*
X7170063Y-14773436D02*
X7160539Y-14754388D01*
X7160539Y-14754388D02*
X7160539Y-14697246D01*
X7160539Y-14697246D02*
X7170063Y-14678198D01*
X7170063Y-14678198D02*
X7179587Y-14668674D01*
X7179587Y-14668674D02*
X7198634Y-14659150D01*
X7198634Y-14659150D02*
X7227206Y-14659150D01*
X7227206Y-14659150D02*
X7246253Y-14668674D01*
X7246253Y-14668674D02*
X7255777Y-14678198D01*
X7255777Y-14678198D02*
X7265301Y-14697246D01*
X7265301Y-14697246D02*
X7265301Y-14754388D01*
X7265301Y-14754388D02*
X7255777Y-14773436D01*
X7255777Y-14773436D02*
X7246253Y-14782960D01*
X7246253Y-14782960D02*
X7227206Y-14792484D01*
X7227206Y-14792484D02*
X7198634Y-14792484D01*
X7379587Y-14792484D02*
X7360539Y-14782960D01*
X7360539Y-14782960D02*
X7351015Y-14763912D01*
X7351015Y-14763912D02*
X7351015Y-14592484D01*
X7531968Y-14782960D02*
X7512920Y-14792484D01*
X7512920Y-14792484D02*
X7474825Y-14792484D01*
X7474825Y-14792484D02*
X7455777Y-14782960D01*
X7455777Y-14782960D02*
X7446253Y-14763912D01*
X7446253Y-14763912D02*
X7446253Y-14687722D01*
X7446253Y-14687722D02*
X7455777Y-14668674D01*
X7455777Y-14668674D02*
X7474825Y-14659150D01*
X7474825Y-14659150D02*
X7512920Y-14659150D01*
X7512920Y-14659150D02*
X7531968Y-14668674D01*
X7531968Y-14668674D02*
X7541491Y-14687722D01*
X7541491Y-14687722D02*
X7541491Y-14706769D01*
X7541491Y-14706769D02*
X7446253Y-14725817D01*
X7617682Y-14782960D02*
X7636730Y-14792484D01*
X7636730Y-14792484D02*
X7674825Y-14792484D01*
X7674825Y-14792484D02*
X7693872Y-14782960D01*
X7693872Y-14782960D02*
X7703396Y-14763912D01*
X7703396Y-14763912D02*
X7703396Y-14754388D01*
X7703396Y-14754388D02*
X7693872Y-14735341D01*
X7693872Y-14735341D02*
X7674825Y-14725817D01*
X7674825Y-14725817D02*
X7646253Y-14725817D01*
X7646253Y-14725817D02*
X7627206Y-14716293D01*
X7627206Y-14716293D02*
X7617682Y-14697246D01*
X7617682Y-14697246D02*
X7617682Y-14687722D01*
X7617682Y-14687722D02*
X7627206Y-14668674D01*
X7627206Y-14668674D02*
X7646253Y-14659150D01*
X7646253Y-14659150D02*
X7674825Y-14659150D01*
X7674825Y-14659150D02*
X7693872Y-14668674D01*
X7770063Y-14868674D02*
X7779587Y-14859150D01*
X7779587Y-14859150D02*
X7798634Y-14830579D01*
X7798634Y-14830579D02*
X7808158Y-14811531D01*
X7808158Y-14811531D02*
X7817682Y-14782960D01*
X7817682Y-14782960D02*
X7827206Y-14735341D01*
X7827206Y-14735341D02*
X7827206Y-14697246D01*
X7827206Y-14697246D02*
X7817682Y-14649627D01*
X7817682Y-14649627D02*
X7808158Y-14621055D01*
X7808158Y-14621055D02*
X7798634Y-14602008D01*
X7798634Y-14602008D02*
X7779587Y-14573436D01*
X7779587Y-14573436D02*
X7770063Y-14563912D01*
D10*
X2895000Y-14915000D02*
X2995000Y-15015000D01*
X2995000Y-14915000D02*
X2895000Y-15015000D01*
X2995000Y-14965000D02*
G75*
G03*
X2895000Y-14965000I-50000J0D01*
G01*
X2895000Y-14965000D02*
G75*
G03*
X2995000Y-14965000I50000J0D01*
G01*
D11*
X3360539Y-15056484D02*
X3246253Y-15056484D01*
X3303396Y-15056484D02*
X3303396Y-14856484D01*
X3303396Y-14856484D02*
X3284348Y-14885055D01*
X3284348Y-14885055D02*
X3265301Y-14904103D01*
X3265301Y-14904103D02*
X3246253Y-14913627D01*
X3446253Y-15037436D02*
X3455777Y-15046960D01*
X3455777Y-15046960D02*
X3446253Y-15056484D01*
X3446253Y-15056484D02*
X3436729Y-15046960D01*
X3436729Y-15046960D02*
X3446253Y-15037436D01*
X3446253Y-15037436D02*
X3446253Y-15056484D01*
X3579586Y-14856484D02*
X3598634Y-14856484D01*
X3598634Y-14856484D02*
X3617682Y-14866008D01*
X3617682Y-14866008D02*
X3627205Y-14875531D01*
X3627205Y-14875531D02*
X3636729Y-14894579D01*
X3636729Y-14894579D02*
X3646253Y-14932674D01*
X3646253Y-14932674D02*
X3646253Y-14980293D01*
X3646253Y-14980293D02*
X3636729Y-15018388D01*
X3636729Y-15018388D02*
X3627205Y-15037436D01*
X3627205Y-15037436D02*
X3617682Y-15046960D01*
X3617682Y-15046960D02*
X3598634Y-15056484D01*
X3598634Y-15056484D02*
X3579586Y-15056484D01*
X3579586Y-15056484D02*
X3560539Y-15046960D01*
X3560539Y-15046960D02*
X3551015Y-15037436D01*
X3551015Y-15037436D02*
X3541491Y-15018388D01*
X3541491Y-15018388D02*
X3531967Y-14980293D01*
X3531967Y-14980293D02*
X3531967Y-14932674D01*
X3531967Y-14932674D02*
X3541491Y-14894579D01*
X3541491Y-14894579D02*
X3551015Y-14875531D01*
X3551015Y-14875531D02*
X3560539Y-14866008D01*
X3560539Y-14866008D02*
X3579586Y-14856484D01*
X3770062Y-14856484D02*
X3789110Y-14856484D01*
X3789110Y-14856484D02*
X3808158Y-14866008D01*
X3808158Y-14866008D02*
X3817682Y-14875531D01*
X3817682Y-14875531D02*
X3827205Y-14894579D01*
X3827205Y-14894579D02*
X3836729Y-14932674D01*
X3836729Y-14932674D02*
X3836729Y-14980293D01*
X3836729Y-14980293D02*
X3827205Y-15018388D01*
X3827205Y-15018388D02*
X3817682Y-15037436D01*
X3817682Y-15037436D02*
X3808158Y-15046960D01*
X3808158Y-15046960D02*
X3789110Y-15056484D01*
X3789110Y-15056484D02*
X3770062Y-15056484D01*
X3770062Y-15056484D02*
X3751015Y-15046960D01*
X3751015Y-15046960D02*
X3741491Y-15037436D01*
X3741491Y-15037436D02*
X3731967Y-15018388D01*
X3731967Y-15018388D02*
X3722443Y-14980293D01*
X3722443Y-14980293D02*
X3722443Y-14932674D01*
X3722443Y-14932674D02*
X3731967Y-14894579D01*
X3731967Y-14894579D02*
X3741491Y-14875531D01*
X3741491Y-14875531D02*
X3751015Y-14866008D01*
X3751015Y-14866008D02*
X3770062Y-14856484D01*
X3960539Y-14856484D02*
X3979586Y-14856484D01*
X3979586Y-14856484D02*
X3998634Y-14866008D01*
X3998634Y-14866008D02*
X4008158Y-14875531D01*
X4008158Y-14875531D02*
X4017682Y-14894579D01*
X4017682Y-14894579D02*
X4027205Y-14932674D01*
X4027205Y-14932674D02*
X4027205Y-14980293D01*
X4027205Y-14980293D02*
X4017682Y-15018388D01*
X4017682Y-15018388D02*
X4008158Y-15037436D01*
X4008158Y-15037436D02*
X3998634Y-15046960D01*
X3998634Y-15046960D02*
X3979586Y-15056484D01*
X3979586Y-15056484D02*
X3960539Y-15056484D01*
X3960539Y-15056484D02*
X3941491Y-15046960D01*
X3941491Y-15046960D02*
X3931967Y-15037436D01*
X3931967Y-15037436D02*
X3922443Y-15018388D01*
X3922443Y-15018388D02*
X3912920Y-14980293D01*
X3912920Y-14980293D02*
X3912920Y-14932674D01*
X3912920Y-14932674D02*
X3922443Y-14894579D01*
X3922443Y-14894579D02*
X3931967Y-14875531D01*
X3931967Y-14875531D02*
X3941491Y-14866008D01*
X3941491Y-14866008D02*
X3960539Y-14856484D01*
X4112920Y-15056484D02*
X4112920Y-14923150D01*
X4112920Y-14942198D02*
X4122443Y-14932674D01*
X4122443Y-14932674D02*
X4141491Y-14923150D01*
X4141491Y-14923150D02*
X4170063Y-14923150D01*
X4170063Y-14923150D02*
X4189110Y-14932674D01*
X4189110Y-14932674D02*
X4198634Y-14951722D01*
X4198634Y-14951722D02*
X4198634Y-15056484D01*
X4198634Y-14951722D02*
X4208158Y-14932674D01*
X4208158Y-14932674D02*
X4227205Y-14923150D01*
X4227205Y-14923150D02*
X4255777Y-14923150D01*
X4255777Y-14923150D02*
X4274825Y-14932674D01*
X4274825Y-14932674D02*
X4284348Y-14951722D01*
X4284348Y-14951722D02*
X4284348Y-15056484D01*
X4379586Y-15056484D02*
X4379586Y-14923150D01*
X4379586Y-14942198D02*
X4389110Y-14932674D01*
X4389110Y-14932674D02*
X4408158Y-14923150D01*
X4408158Y-14923150D02*
X4436729Y-14923150D01*
X4436729Y-14923150D02*
X4455777Y-14932674D01*
X4455777Y-14932674D02*
X4465301Y-14951722D01*
X4465301Y-14951722D02*
X4465301Y-15056484D01*
X4465301Y-14951722D02*
X4474825Y-14932674D01*
X4474825Y-14932674D02*
X4493872Y-14923150D01*
X4493872Y-14923150D02*
X4522444Y-14923150D01*
X4522444Y-14923150D02*
X4541491Y-14932674D01*
X4541491Y-14932674D02*
X4551015Y-14951722D01*
X4551015Y-14951722D02*
X4551015Y-15056484D01*
X4941491Y-14846960D02*
X4770063Y-15104103D01*
X5198634Y-14856484D02*
X5217682Y-14856484D01*
X5217682Y-14856484D02*
X5236729Y-14866008D01*
X5236729Y-14866008D02*
X5246253Y-14875531D01*
X5246253Y-14875531D02*
X5255777Y-14894579D01*
X5255777Y-14894579D02*
X5265301Y-14932674D01*
X5265301Y-14932674D02*
X5265301Y-14980293D01*
X5265301Y-14980293D02*
X5255777Y-15018388D01*
X5255777Y-15018388D02*
X5246253Y-15037436D01*
X5246253Y-15037436D02*
X5236729Y-15046960D01*
X5236729Y-15046960D02*
X5217682Y-15056484D01*
X5217682Y-15056484D02*
X5198634Y-15056484D01*
X5198634Y-15056484D02*
X5179587Y-15046960D01*
X5179587Y-15046960D02*
X5170063Y-15037436D01*
X5170063Y-15037436D02*
X5160539Y-15018388D01*
X5160539Y-15018388D02*
X5151015Y-14980293D01*
X5151015Y-14980293D02*
X5151015Y-14932674D01*
X5151015Y-14932674D02*
X5160539Y-14894579D01*
X5160539Y-14894579D02*
X5170063Y-14875531D01*
X5170063Y-14875531D02*
X5179587Y-14866008D01*
X5179587Y-14866008D02*
X5198634Y-14856484D01*
X5351015Y-15037436D02*
X5360539Y-15046960D01*
X5360539Y-15046960D02*
X5351015Y-15056484D01*
X5351015Y-15056484D02*
X5341491Y-15046960D01*
X5341491Y-15046960D02*
X5351015Y-15037436D01*
X5351015Y-15037436D02*
X5351015Y-15056484D01*
X5484348Y-14856484D02*
X5503396Y-14856484D01*
X5503396Y-14856484D02*
X5522444Y-14866008D01*
X5522444Y-14866008D02*
X5531968Y-14875531D01*
X5531968Y-14875531D02*
X5541491Y-14894579D01*
X5541491Y-14894579D02*
X5551015Y-14932674D01*
X5551015Y-14932674D02*
X5551015Y-14980293D01*
X5551015Y-14980293D02*
X5541491Y-15018388D01*
X5541491Y-15018388D02*
X5531968Y-15037436D01*
X5531968Y-15037436D02*
X5522444Y-15046960D01*
X5522444Y-15046960D02*
X5503396Y-15056484D01*
X5503396Y-15056484D02*
X5484348Y-15056484D01*
X5484348Y-15056484D02*
X5465301Y-15046960D01*
X5465301Y-15046960D02*
X5455777Y-15037436D01*
X5455777Y-15037436D02*
X5446253Y-15018388D01*
X5446253Y-15018388D02*
X5436729Y-14980293D01*
X5436729Y-14980293D02*
X5436729Y-14932674D01*
X5436729Y-14932674D02*
X5446253Y-14894579D01*
X5446253Y-14894579D02*
X5455777Y-14875531D01*
X5455777Y-14875531D02*
X5465301Y-14866008D01*
X5465301Y-14866008D02*
X5484348Y-14856484D01*
X5617682Y-14856484D02*
X5741491Y-14856484D01*
X5741491Y-14856484D02*
X5674825Y-14932674D01*
X5674825Y-14932674D02*
X5703396Y-14932674D01*
X5703396Y-14932674D02*
X5722444Y-14942198D01*
X5722444Y-14942198D02*
X5731967Y-14951722D01*
X5731967Y-14951722D02*
X5741491Y-14970769D01*
X5741491Y-14970769D02*
X5741491Y-15018388D01*
X5741491Y-15018388D02*
X5731967Y-15037436D01*
X5731967Y-15037436D02*
X5722444Y-15046960D01*
X5722444Y-15046960D02*
X5703396Y-15056484D01*
X5703396Y-15056484D02*
X5646253Y-15056484D01*
X5646253Y-15056484D02*
X5627206Y-15046960D01*
X5627206Y-15046960D02*
X5617682Y-15037436D01*
X5836729Y-15056484D02*
X5874825Y-15056484D01*
X5874825Y-15056484D02*
X5893872Y-15046960D01*
X5893872Y-15046960D02*
X5903396Y-15037436D01*
X5903396Y-15037436D02*
X5922444Y-15008865D01*
X5922444Y-15008865D02*
X5931967Y-14970769D01*
X5931967Y-14970769D02*
X5931967Y-14894579D01*
X5931967Y-14894579D02*
X5922444Y-14875531D01*
X5922444Y-14875531D02*
X5912920Y-14866008D01*
X5912920Y-14866008D02*
X5893872Y-14856484D01*
X5893872Y-14856484D02*
X5855777Y-14856484D01*
X5855777Y-14856484D02*
X5836729Y-14866008D01*
X5836729Y-14866008D02*
X5827206Y-14875531D01*
X5827206Y-14875531D02*
X5817682Y-14894579D01*
X5817682Y-14894579D02*
X5817682Y-14942198D01*
X5817682Y-14942198D02*
X5827206Y-14961246D01*
X5827206Y-14961246D02*
X5836729Y-14970769D01*
X5836729Y-14970769D02*
X5855777Y-14980293D01*
X5855777Y-14980293D02*
X5893872Y-14980293D01*
X5893872Y-14980293D02*
X5912920Y-14970769D01*
X5912920Y-14970769D02*
X5922444Y-14961246D01*
X5922444Y-14961246D02*
X5931967Y-14942198D01*
X6103396Y-14923150D02*
X6103396Y-15056484D01*
X6055777Y-14846960D02*
X6008158Y-14989817D01*
X6008158Y-14989817D02*
X6131967Y-14989817D01*
X6198634Y-14856484D02*
X6198634Y-14894579D01*
X6274825Y-14856484D02*
X6274825Y-14894579D01*
X6570063Y-15132674D02*
X6560539Y-15123150D01*
X6560539Y-15123150D02*
X6541491Y-15094579D01*
X6541491Y-15094579D02*
X6531968Y-15075531D01*
X6531968Y-15075531D02*
X6522444Y-15046960D01*
X6522444Y-15046960D02*
X6512920Y-14999341D01*
X6512920Y-14999341D02*
X6512920Y-14961246D01*
X6512920Y-14961246D02*
X6522444Y-14913627D01*
X6522444Y-14913627D02*
X6531968Y-14885055D01*
X6531968Y-14885055D02*
X6541491Y-14866008D01*
X6541491Y-14866008D02*
X6560539Y-14837436D01*
X6560539Y-14837436D02*
X6570063Y-14827912D01*
X6674825Y-14942198D02*
X6655777Y-14932674D01*
X6655777Y-14932674D02*
X6646253Y-14923150D01*
X6646253Y-14923150D02*
X6636729Y-14904103D01*
X6636729Y-14904103D02*
X6636729Y-14894579D01*
X6636729Y-14894579D02*
X6646253Y-14875531D01*
X6646253Y-14875531D02*
X6655777Y-14866008D01*
X6655777Y-14866008D02*
X6674825Y-14856484D01*
X6674825Y-14856484D02*
X6712920Y-14856484D01*
X6712920Y-14856484D02*
X6731968Y-14866008D01*
X6731968Y-14866008D02*
X6741491Y-14875531D01*
X6741491Y-14875531D02*
X6751015Y-14894579D01*
X6751015Y-14894579D02*
X6751015Y-14904103D01*
X6751015Y-14904103D02*
X6741491Y-14923150D01*
X6741491Y-14923150D02*
X6731968Y-14932674D01*
X6731968Y-14932674D02*
X6712920Y-14942198D01*
X6712920Y-14942198D02*
X6674825Y-14942198D01*
X6674825Y-14942198D02*
X6655777Y-14951722D01*
X6655777Y-14951722D02*
X6646253Y-14961246D01*
X6646253Y-14961246D02*
X6636729Y-14980293D01*
X6636729Y-14980293D02*
X6636729Y-15018388D01*
X6636729Y-15018388D02*
X6646253Y-15037436D01*
X6646253Y-15037436D02*
X6655777Y-15046960D01*
X6655777Y-15046960D02*
X6674825Y-15056484D01*
X6674825Y-15056484D02*
X6712920Y-15056484D01*
X6712920Y-15056484D02*
X6731968Y-15046960D01*
X6731968Y-15046960D02*
X6741491Y-15037436D01*
X6741491Y-15037436D02*
X6751015Y-15018388D01*
X6751015Y-15018388D02*
X6751015Y-14980293D01*
X6751015Y-14980293D02*
X6741491Y-14961246D01*
X6741491Y-14961246D02*
X6731968Y-14951722D01*
X6731968Y-14951722D02*
X6712920Y-14942198D01*
X6827206Y-14875531D02*
X6836729Y-14866008D01*
X6836729Y-14866008D02*
X6855777Y-14856484D01*
X6855777Y-14856484D02*
X6903396Y-14856484D01*
X6903396Y-14856484D02*
X6922444Y-14866008D01*
X6922444Y-14866008D02*
X6931968Y-14875531D01*
X6931968Y-14875531D02*
X6941491Y-14894579D01*
X6941491Y-14894579D02*
X6941491Y-14913627D01*
X6941491Y-14913627D02*
X6931968Y-14942198D01*
X6931968Y-14942198D02*
X6817682Y-15056484D01*
X6817682Y-15056484D02*
X6941491Y-15056484D01*
X7179587Y-15056484D02*
X7179587Y-14856484D01*
X7265301Y-15056484D02*
X7265301Y-14951722D01*
X7265301Y-14951722D02*
X7255777Y-14932674D01*
X7255777Y-14932674D02*
X7236730Y-14923150D01*
X7236730Y-14923150D02*
X7208158Y-14923150D01*
X7208158Y-14923150D02*
X7189110Y-14932674D01*
X7189110Y-14932674D02*
X7179587Y-14942198D01*
X7389110Y-15056484D02*
X7370063Y-15046960D01*
X7370063Y-15046960D02*
X7360539Y-15037436D01*
X7360539Y-15037436D02*
X7351015Y-15018388D01*
X7351015Y-15018388D02*
X7351015Y-14961246D01*
X7351015Y-14961246D02*
X7360539Y-14942198D01*
X7360539Y-14942198D02*
X7370063Y-14932674D01*
X7370063Y-14932674D02*
X7389110Y-14923150D01*
X7389110Y-14923150D02*
X7417682Y-14923150D01*
X7417682Y-14923150D02*
X7436730Y-14932674D01*
X7436730Y-14932674D02*
X7446253Y-14942198D01*
X7446253Y-14942198D02*
X7455777Y-14961246D01*
X7455777Y-14961246D02*
X7455777Y-15018388D01*
X7455777Y-15018388D02*
X7446253Y-15037436D01*
X7446253Y-15037436D02*
X7436730Y-15046960D01*
X7436730Y-15046960D02*
X7417682Y-15056484D01*
X7417682Y-15056484D02*
X7389110Y-15056484D01*
X7570063Y-15056484D02*
X7551015Y-15046960D01*
X7551015Y-15046960D02*
X7541491Y-15027912D01*
X7541491Y-15027912D02*
X7541491Y-14856484D01*
X7722444Y-15046960D02*
X7703396Y-15056484D01*
X7703396Y-15056484D02*
X7665301Y-15056484D01*
X7665301Y-15056484D02*
X7646253Y-15046960D01*
X7646253Y-15046960D02*
X7636730Y-15027912D01*
X7636730Y-15027912D02*
X7636730Y-14951722D01*
X7636730Y-14951722D02*
X7646253Y-14932674D01*
X7646253Y-14932674D02*
X7665301Y-14923150D01*
X7665301Y-14923150D02*
X7703396Y-14923150D01*
X7703396Y-14923150D02*
X7722444Y-14932674D01*
X7722444Y-14932674D02*
X7731968Y-14951722D01*
X7731968Y-14951722D02*
X7731968Y-14970769D01*
X7731968Y-14970769D02*
X7636730Y-14989817D01*
X7808158Y-15046960D02*
X7827206Y-15056484D01*
X7827206Y-15056484D02*
X7865301Y-15056484D01*
X7865301Y-15056484D02*
X7884349Y-15046960D01*
X7884349Y-15046960D02*
X7893872Y-15027912D01*
X7893872Y-15027912D02*
X7893872Y-15018388D01*
X7893872Y-15018388D02*
X7884349Y-14999341D01*
X7884349Y-14999341D02*
X7865301Y-14989817D01*
X7865301Y-14989817D02*
X7836730Y-14989817D01*
X7836730Y-14989817D02*
X7817682Y-14980293D01*
X7817682Y-14980293D02*
X7808158Y-14961246D01*
X7808158Y-14961246D02*
X7808158Y-14951722D01*
X7808158Y-14951722D02*
X7817682Y-14932674D01*
X7817682Y-14932674D02*
X7836730Y-14923150D01*
X7836730Y-14923150D02*
X7865301Y-14923150D01*
X7865301Y-14923150D02*
X7884349Y-14932674D01*
X7960539Y-15132674D02*
X7970063Y-15123150D01*
X7970063Y-15123150D02*
X7989111Y-15094579D01*
X7989111Y-15094579D02*
X7998634Y-15075531D01*
X7998634Y-15075531D02*
X8008158Y-15046960D01*
X8008158Y-15046960D02*
X8017682Y-14999341D01*
X8017682Y-14999341D02*
X8017682Y-14961246D01*
X8017682Y-14961246D02*
X8008158Y-14913627D01*
X8008158Y-14913627D02*
X7998634Y-14885055D01*
X7998634Y-14885055D02*
X7989111Y-14866008D01*
X7989111Y-14866008D02*
X7970063Y-14837436D01*
X7970063Y-14837436D02*
X7960539Y-14827912D01*
D12*
X2885000Y-15174000D02*
X2995000Y-15284000D01*
X2995000Y-15174000D02*
X2885000Y-15284000D01*
X2940000Y-15174000D02*
X2940000Y-15284000D01*
X2885000Y-15229000D02*
X2995000Y-15229000D01*
D11*
X3360539Y-15320484D02*
X3246253Y-15320484D01*
X3303396Y-15320484D02*
X3303396Y-15120484D01*
X3303396Y-15120484D02*
X3284348Y-15149055D01*
X3284348Y-15149055D02*
X3265301Y-15168103D01*
X3265301Y-15168103D02*
X3246253Y-15177627D01*
X3446253Y-15301436D02*
X3455777Y-15310960D01*
X3455777Y-15310960D02*
X3446253Y-15320484D01*
X3446253Y-15320484D02*
X3436729Y-15310960D01*
X3436729Y-15310960D02*
X3446253Y-15301436D01*
X3446253Y-15301436D02*
X3446253Y-15320484D01*
X3646253Y-15320484D02*
X3531967Y-15320484D01*
X3589110Y-15320484D02*
X3589110Y-15120484D01*
X3589110Y-15120484D02*
X3570062Y-15149055D01*
X3570062Y-15149055D02*
X3551015Y-15168103D01*
X3551015Y-15168103D02*
X3531967Y-15177627D01*
X3770062Y-15120484D02*
X3789110Y-15120484D01*
X3789110Y-15120484D02*
X3808158Y-15130008D01*
X3808158Y-15130008D02*
X3817682Y-15139531D01*
X3817682Y-15139531D02*
X3827205Y-15158579D01*
X3827205Y-15158579D02*
X3836729Y-15196674D01*
X3836729Y-15196674D02*
X3836729Y-15244293D01*
X3836729Y-15244293D02*
X3827205Y-15282388D01*
X3827205Y-15282388D02*
X3817682Y-15301436D01*
X3817682Y-15301436D02*
X3808158Y-15310960D01*
X3808158Y-15310960D02*
X3789110Y-15320484D01*
X3789110Y-15320484D02*
X3770062Y-15320484D01*
X3770062Y-15320484D02*
X3751015Y-15310960D01*
X3751015Y-15310960D02*
X3741491Y-15301436D01*
X3741491Y-15301436D02*
X3731967Y-15282388D01*
X3731967Y-15282388D02*
X3722443Y-15244293D01*
X3722443Y-15244293D02*
X3722443Y-15196674D01*
X3722443Y-15196674D02*
X3731967Y-15158579D01*
X3731967Y-15158579D02*
X3741491Y-15139531D01*
X3741491Y-15139531D02*
X3751015Y-15130008D01*
X3751015Y-15130008D02*
X3770062Y-15120484D01*
X3960539Y-15120484D02*
X3979586Y-15120484D01*
X3979586Y-15120484D02*
X3998634Y-15130008D01*
X3998634Y-15130008D02*
X4008158Y-15139531D01*
X4008158Y-15139531D02*
X4017682Y-15158579D01*
X4017682Y-15158579D02*
X4027205Y-15196674D01*
X4027205Y-15196674D02*
X4027205Y-15244293D01*
X4027205Y-15244293D02*
X4017682Y-15282388D01*
X4017682Y-15282388D02*
X4008158Y-15301436D01*
X4008158Y-15301436D02*
X3998634Y-15310960D01*
X3998634Y-15310960D02*
X3979586Y-15320484D01*
X3979586Y-15320484D02*
X3960539Y-15320484D01*
X3960539Y-15320484D02*
X3941491Y-15310960D01*
X3941491Y-15310960D02*
X3931967Y-15301436D01*
X3931967Y-15301436D02*
X3922443Y-15282388D01*
X3922443Y-15282388D02*
X3912920Y-15244293D01*
X3912920Y-15244293D02*
X3912920Y-15196674D01*
X3912920Y-15196674D02*
X3922443Y-15158579D01*
X3922443Y-15158579D02*
X3931967Y-15139531D01*
X3931967Y-15139531D02*
X3941491Y-15130008D01*
X3941491Y-15130008D02*
X3960539Y-15120484D01*
X4112920Y-15320484D02*
X4112920Y-15187150D01*
X4112920Y-15206198D02*
X4122443Y-15196674D01*
X4122443Y-15196674D02*
X4141491Y-15187150D01*
X4141491Y-15187150D02*
X4170063Y-15187150D01*
X4170063Y-15187150D02*
X4189110Y-15196674D01*
X4189110Y-15196674D02*
X4198634Y-15215722D01*
X4198634Y-15215722D02*
X4198634Y-15320484D01*
X4198634Y-15215722D02*
X4208158Y-15196674D01*
X4208158Y-15196674D02*
X4227205Y-15187150D01*
X4227205Y-15187150D02*
X4255777Y-15187150D01*
X4255777Y-15187150D02*
X4274825Y-15196674D01*
X4274825Y-15196674D02*
X4284348Y-15215722D01*
X4284348Y-15215722D02*
X4284348Y-15320484D01*
X4379586Y-15320484D02*
X4379586Y-15187150D01*
X4379586Y-15206198D02*
X4389110Y-15196674D01*
X4389110Y-15196674D02*
X4408158Y-15187150D01*
X4408158Y-15187150D02*
X4436729Y-15187150D01*
X4436729Y-15187150D02*
X4455777Y-15196674D01*
X4455777Y-15196674D02*
X4465301Y-15215722D01*
X4465301Y-15215722D02*
X4465301Y-15320484D01*
X4465301Y-15215722D02*
X4474825Y-15196674D01*
X4474825Y-15196674D02*
X4493872Y-15187150D01*
X4493872Y-15187150D02*
X4522444Y-15187150D01*
X4522444Y-15187150D02*
X4541491Y-15196674D01*
X4541491Y-15196674D02*
X4551015Y-15215722D01*
X4551015Y-15215722D02*
X4551015Y-15320484D01*
X4941491Y-15110960D02*
X4770063Y-15368103D01*
X5198634Y-15120484D02*
X5217682Y-15120484D01*
X5217682Y-15120484D02*
X5236729Y-15130008D01*
X5236729Y-15130008D02*
X5246253Y-15139531D01*
X5246253Y-15139531D02*
X5255777Y-15158579D01*
X5255777Y-15158579D02*
X5265301Y-15196674D01*
X5265301Y-15196674D02*
X5265301Y-15244293D01*
X5265301Y-15244293D02*
X5255777Y-15282388D01*
X5255777Y-15282388D02*
X5246253Y-15301436D01*
X5246253Y-15301436D02*
X5236729Y-15310960D01*
X5236729Y-15310960D02*
X5217682Y-15320484D01*
X5217682Y-15320484D02*
X5198634Y-15320484D01*
X5198634Y-15320484D02*
X5179587Y-15310960D01*
X5179587Y-15310960D02*
X5170063Y-15301436D01*
X5170063Y-15301436D02*
X5160539Y-15282388D01*
X5160539Y-15282388D02*
X5151015Y-15244293D01*
X5151015Y-15244293D02*
X5151015Y-15196674D01*
X5151015Y-15196674D02*
X5160539Y-15158579D01*
X5160539Y-15158579D02*
X5170063Y-15139531D01*
X5170063Y-15139531D02*
X5179587Y-15130008D01*
X5179587Y-15130008D02*
X5198634Y-15120484D01*
X5351015Y-15301436D02*
X5360539Y-15310960D01*
X5360539Y-15310960D02*
X5351015Y-15320484D01*
X5351015Y-15320484D02*
X5341491Y-15310960D01*
X5341491Y-15310960D02*
X5351015Y-15301436D01*
X5351015Y-15301436D02*
X5351015Y-15320484D01*
X5484348Y-15120484D02*
X5503396Y-15120484D01*
X5503396Y-15120484D02*
X5522444Y-15130008D01*
X5522444Y-15130008D02*
X5531968Y-15139531D01*
X5531968Y-15139531D02*
X5541491Y-15158579D01*
X5541491Y-15158579D02*
X5551015Y-15196674D01*
X5551015Y-15196674D02*
X5551015Y-15244293D01*
X5551015Y-15244293D02*
X5541491Y-15282388D01*
X5541491Y-15282388D02*
X5531968Y-15301436D01*
X5531968Y-15301436D02*
X5522444Y-15310960D01*
X5522444Y-15310960D02*
X5503396Y-15320484D01*
X5503396Y-15320484D02*
X5484348Y-15320484D01*
X5484348Y-15320484D02*
X5465301Y-15310960D01*
X5465301Y-15310960D02*
X5455777Y-15301436D01*
X5455777Y-15301436D02*
X5446253Y-15282388D01*
X5446253Y-15282388D02*
X5436729Y-15244293D01*
X5436729Y-15244293D02*
X5436729Y-15196674D01*
X5436729Y-15196674D02*
X5446253Y-15158579D01*
X5446253Y-15158579D02*
X5455777Y-15139531D01*
X5455777Y-15139531D02*
X5465301Y-15130008D01*
X5465301Y-15130008D02*
X5484348Y-15120484D01*
X5722444Y-15187150D02*
X5722444Y-15320484D01*
X5674825Y-15110960D02*
X5627206Y-15253817D01*
X5627206Y-15253817D02*
X5751015Y-15253817D01*
X5808158Y-15120484D02*
X5931967Y-15120484D01*
X5931967Y-15120484D02*
X5865301Y-15196674D01*
X5865301Y-15196674D02*
X5893872Y-15196674D01*
X5893872Y-15196674D02*
X5912920Y-15206198D01*
X5912920Y-15206198D02*
X5922444Y-15215722D01*
X5922444Y-15215722D02*
X5931967Y-15234769D01*
X5931967Y-15234769D02*
X5931967Y-15282388D01*
X5931967Y-15282388D02*
X5922444Y-15301436D01*
X5922444Y-15301436D02*
X5912920Y-15310960D01*
X5912920Y-15310960D02*
X5893872Y-15320484D01*
X5893872Y-15320484D02*
X5836729Y-15320484D01*
X5836729Y-15320484D02*
X5817682Y-15310960D01*
X5817682Y-15310960D02*
X5808158Y-15301436D01*
X5998634Y-15120484D02*
X6122444Y-15120484D01*
X6122444Y-15120484D02*
X6055777Y-15196674D01*
X6055777Y-15196674D02*
X6084348Y-15196674D01*
X6084348Y-15196674D02*
X6103396Y-15206198D01*
X6103396Y-15206198D02*
X6112920Y-15215722D01*
X6112920Y-15215722D02*
X6122444Y-15234769D01*
X6122444Y-15234769D02*
X6122444Y-15282388D01*
X6122444Y-15282388D02*
X6112920Y-15301436D01*
X6112920Y-15301436D02*
X6103396Y-15310960D01*
X6103396Y-15310960D02*
X6084348Y-15320484D01*
X6084348Y-15320484D02*
X6027206Y-15320484D01*
X6027206Y-15320484D02*
X6008158Y-15310960D01*
X6008158Y-15310960D02*
X5998634Y-15301436D01*
X6198634Y-15120484D02*
X6198634Y-15158579D01*
X6274825Y-15120484D02*
X6274825Y-15158579D01*
X6570063Y-15396674D02*
X6560539Y-15387150D01*
X6560539Y-15387150D02*
X6541491Y-15358579D01*
X6541491Y-15358579D02*
X6531968Y-15339531D01*
X6531968Y-15339531D02*
X6522444Y-15310960D01*
X6522444Y-15310960D02*
X6512920Y-15263341D01*
X6512920Y-15263341D02*
X6512920Y-15225246D01*
X6512920Y-15225246D02*
X6522444Y-15177627D01*
X6522444Y-15177627D02*
X6531968Y-15149055D01*
X6531968Y-15149055D02*
X6541491Y-15130008D01*
X6541491Y-15130008D02*
X6560539Y-15101436D01*
X6560539Y-15101436D02*
X6570063Y-15091912D01*
X6731968Y-15187150D02*
X6731968Y-15320484D01*
X6684348Y-15110960D02*
X6636729Y-15253817D01*
X6636729Y-15253817D02*
X6760539Y-15253817D01*
X6989110Y-15320484D02*
X6989110Y-15120484D01*
X7074825Y-15320484D02*
X7074825Y-15215722D01*
X7074825Y-15215722D02*
X7065301Y-15196674D01*
X7065301Y-15196674D02*
X7046253Y-15187150D01*
X7046253Y-15187150D02*
X7017682Y-15187150D01*
X7017682Y-15187150D02*
X6998634Y-15196674D01*
X6998634Y-15196674D02*
X6989110Y-15206198D01*
X7198634Y-15320484D02*
X7179587Y-15310960D01*
X7179587Y-15310960D02*
X7170063Y-15301436D01*
X7170063Y-15301436D02*
X7160539Y-15282388D01*
X7160539Y-15282388D02*
X7160539Y-15225246D01*
X7160539Y-15225246D02*
X7170063Y-15206198D01*
X7170063Y-15206198D02*
X7179587Y-15196674D01*
X7179587Y-15196674D02*
X7198634Y-15187150D01*
X7198634Y-15187150D02*
X7227206Y-15187150D01*
X7227206Y-15187150D02*
X7246253Y-15196674D01*
X7246253Y-15196674D02*
X7255777Y-15206198D01*
X7255777Y-15206198D02*
X7265301Y-15225246D01*
X7265301Y-15225246D02*
X7265301Y-15282388D01*
X7265301Y-15282388D02*
X7255777Y-15301436D01*
X7255777Y-15301436D02*
X7246253Y-15310960D01*
X7246253Y-15310960D02*
X7227206Y-15320484D01*
X7227206Y-15320484D02*
X7198634Y-15320484D01*
X7379587Y-15320484D02*
X7360539Y-15310960D01*
X7360539Y-15310960D02*
X7351015Y-15291912D01*
X7351015Y-15291912D02*
X7351015Y-15120484D01*
X7531968Y-15310960D02*
X7512920Y-15320484D01*
X7512920Y-15320484D02*
X7474825Y-15320484D01*
X7474825Y-15320484D02*
X7455777Y-15310960D01*
X7455777Y-15310960D02*
X7446253Y-15291912D01*
X7446253Y-15291912D02*
X7446253Y-15215722D01*
X7446253Y-15215722D02*
X7455777Y-15196674D01*
X7455777Y-15196674D02*
X7474825Y-15187150D01*
X7474825Y-15187150D02*
X7512920Y-15187150D01*
X7512920Y-15187150D02*
X7531968Y-15196674D01*
X7531968Y-15196674D02*
X7541491Y-15215722D01*
X7541491Y-15215722D02*
X7541491Y-15234769D01*
X7541491Y-15234769D02*
X7446253Y-15253817D01*
X7617682Y-15310960D02*
X7636730Y-15320484D01*
X7636730Y-15320484D02*
X7674825Y-15320484D01*
X7674825Y-15320484D02*
X7693872Y-15310960D01*
X7693872Y-15310960D02*
X7703396Y-15291912D01*
X7703396Y-15291912D02*
X7703396Y-15282388D01*
X7703396Y-15282388D02*
X7693872Y-15263341D01*
X7693872Y-15263341D02*
X7674825Y-15253817D01*
X7674825Y-15253817D02*
X7646253Y-15253817D01*
X7646253Y-15253817D02*
X7627206Y-15244293D01*
X7627206Y-15244293D02*
X7617682Y-15225246D01*
X7617682Y-15225246D02*
X7617682Y-15215722D01*
X7617682Y-15215722D02*
X7627206Y-15196674D01*
X7627206Y-15196674D02*
X7646253Y-15187150D01*
X7646253Y-15187150D02*
X7674825Y-15187150D01*
X7674825Y-15187150D02*
X7693872Y-15196674D01*
X7770063Y-15396674D02*
X7779587Y-15387150D01*
X7779587Y-15387150D02*
X7798634Y-15358579D01*
X7798634Y-15358579D02*
X7808158Y-15339531D01*
X7808158Y-15339531D02*
X7817682Y-15310960D01*
X7817682Y-15310960D02*
X7827206Y-15263341D01*
X7827206Y-15263341D02*
X7827206Y-15225246D01*
X7827206Y-15225246D02*
X7817682Y-15177627D01*
X7817682Y-15177627D02*
X7808158Y-15149055D01*
X7808158Y-15149055D02*
X7798634Y-15130008D01*
X7798634Y-15130008D02*
X7779587Y-15101436D01*
X7779587Y-15101436D02*
X7770063Y-15091912D01*
D13*
X2883000Y-15437000D02*
X2995000Y-15549000D01*
X2995000Y-15437000D02*
X2883000Y-15549000D01*
X2978598Y-15532598D02*
X2978598Y-15453402D01*
X2899402Y-15453402D01*
X2899402Y-15532598D01*
X2978598Y-15532598D01*
D11*
X3360539Y-15584484D02*
X3246253Y-15584484D01*
X3303396Y-15584484D02*
X3303396Y-15384484D01*
X3303396Y-15384484D02*
X3284348Y-15413055D01*
X3284348Y-15413055D02*
X3265301Y-15432103D01*
X3265301Y-15432103D02*
X3246253Y-15441627D01*
X3446253Y-15565436D02*
X3455777Y-15574960D01*
X3455777Y-15574960D02*
X3446253Y-15584484D01*
X3446253Y-15584484D02*
X3436729Y-15574960D01*
X3436729Y-15574960D02*
X3446253Y-15565436D01*
X3446253Y-15565436D02*
X3446253Y-15584484D01*
X3646253Y-15584484D02*
X3531967Y-15584484D01*
X3589110Y-15584484D02*
X3589110Y-15384484D01*
X3589110Y-15384484D02*
X3570062Y-15413055D01*
X3570062Y-15413055D02*
X3551015Y-15432103D01*
X3551015Y-15432103D02*
X3531967Y-15441627D01*
X3722443Y-15403531D02*
X3731967Y-15394008D01*
X3731967Y-15394008D02*
X3751015Y-15384484D01*
X3751015Y-15384484D02*
X3798634Y-15384484D01*
X3798634Y-15384484D02*
X3817682Y-15394008D01*
X3817682Y-15394008D02*
X3827205Y-15403531D01*
X3827205Y-15403531D02*
X3836729Y-15422579D01*
X3836729Y-15422579D02*
X3836729Y-15441627D01*
X3836729Y-15441627D02*
X3827205Y-15470198D01*
X3827205Y-15470198D02*
X3712920Y-15584484D01*
X3712920Y-15584484D02*
X3836729Y-15584484D01*
X3960539Y-15384484D02*
X3979586Y-15384484D01*
X3979586Y-15384484D02*
X3998634Y-15394008D01*
X3998634Y-15394008D02*
X4008158Y-15403531D01*
X4008158Y-15403531D02*
X4017682Y-15422579D01*
X4017682Y-15422579D02*
X4027205Y-15460674D01*
X4027205Y-15460674D02*
X4027205Y-15508293D01*
X4027205Y-15508293D02*
X4017682Y-15546388D01*
X4017682Y-15546388D02*
X4008158Y-15565436D01*
X4008158Y-15565436D02*
X3998634Y-15574960D01*
X3998634Y-15574960D02*
X3979586Y-15584484D01*
X3979586Y-15584484D02*
X3960539Y-15584484D01*
X3960539Y-15584484D02*
X3941491Y-15574960D01*
X3941491Y-15574960D02*
X3931967Y-15565436D01*
X3931967Y-15565436D02*
X3922443Y-15546388D01*
X3922443Y-15546388D02*
X3912920Y-15508293D01*
X3912920Y-15508293D02*
X3912920Y-15460674D01*
X3912920Y-15460674D02*
X3922443Y-15422579D01*
X3922443Y-15422579D02*
X3931967Y-15403531D01*
X3931967Y-15403531D02*
X3941491Y-15394008D01*
X3941491Y-15394008D02*
X3960539Y-15384484D01*
X4112920Y-15584484D02*
X4112920Y-15451150D01*
X4112920Y-15470198D02*
X4122443Y-15460674D01*
X4122443Y-15460674D02*
X4141491Y-15451150D01*
X4141491Y-15451150D02*
X4170063Y-15451150D01*
X4170063Y-15451150D02*
X4189110Y-15460674D01*
X4189110Y-15460674D02*
X4198634Y-15479722D01*
X4198634Y-15479722D02*
X4198634Y-15584484D01*
X4198634Y-15479722D02*
X4208158Y-15460674D01*
X4208158Y-15460674D02*
X4227205Y-15451150D01*
X4227205Y-15451150D02*
X4255777Y-15451150D01*
X4255777Y-15451150D02*
X4274825Y-15460674D01*
X4274825Y-15460674D02*
X4284348Y-15479722D01*
X4284348Y-15479722D02*
X4284348Y-15584484D01*
X4379586Y-15584484D02*
X4379586Y-15451150D01*
X4379586Y-15470198D02*
X4389110Y-15460674D01*
X4389110Y-15460674D02*
X4408158Y-15451150D01*
X4408158Y-15451150D02*
X4436729Y-15451150D01*
X4436729Y-15451150D02*
X4455777Y-15460674D01*
X4455777Y-15460674D02*
X4465301Y-15479722D01*
X4465301Y-15479722D02*
X4465301Y-15584484D01*
X4465301Y-15479722D02*
X4474825Y-15460674D01*
X4474825Y-15460674D02*
X4493872Y-15451150D01*
X4493872Y-15451150D02*
X4522444Y-15451150D01*
X4522444Y-15451150D02*
X4541491Y-15460674D01*
X4541491Y-15460674D02*
X4551015Y-15479722D01*
X4551015Y-15479722D02*
X4551015Y-15584484D01*
X4941491Y-15374960D02*
X4770063Y-15632103D01*
X5198634Y-15384484D02*
X5217682Y-15384484D01*
X5217682Y-15384484D02*
X5236729Y-15394008D01*
X5236729Y-15394008D02*
X5246253Y-15403531D01*
X5246253Y-15403531D02*
X5255777Y-15422579D01*
X5255777Y-15422579D02*
X5265301Y-15460674D01*
X5265301Y-15460674D02*
X5265301Y-15508293D01*
X5265301Y-15508293D02*
X5255777Y-15546388D01*
X5255777Y-15546388D02*
X5246253Y-15565436D01*
X5246253Y-15565436D02*
X5236729Y-15574960D01*
X5236729Y-15574960D02*
X5217682Y-15584484D01*
X5217682Y-15584484D02*
X5198634Y-15584484D01*
X5198634Y-15584484D02*
X5179587Y-15574960D01*
X5179587Y-15574960D02*
X5170063Y-15565436D01*
X5170063Y-15565436D02*
X5160539Y-15546388D01*
X5160539Y-15546388D02*
X5151015Y-15508293D01*
X5151015Y-15508293D02*
X5151015Y-15460674D01*
X5151015Y-15460674D02*
X5160539Y-15422579D01*
X5160539Y-15422579D02*
X5170063Y-15403531D01*
X5170063Y-15403531D02*
X5179587Y-15394008D01*
X5179587Y-15394008D02*
X5198634Y-15384484D01*
X5351015Y-15565436D02*
X5360539Y-15574960D01*
X5360539Y-15574960D02*
X5351015Y-15584484D01*
X5351015Y-15584484D02*
X5341491Y-15574960D01*
X5341491Y-15574960D02*
X5351015Y-15565436D01*
X5351015Y-15565436D02*
X5351015Y-15584484D01*
X5484348Y-15384484D02*
X5503396Y-15384484D01*
X5503396Y-15384484D02*
X5522444Y-15394008D01*
X5522444Y-15394008D02*
X5531968Y-15403531D01*
X5531968Y-15403531D02*
X5541491Y-15422579D01*
X5541491Y-15422579D02*
X5551015Y-15460674D01*
X5551015Y-15460674D02*
X5551015Y-15508293D01*
X5551015Y-15508293D02*
X5541491Y-15546388D01*
X5541491Y-15546388D02*
X5531968Y-15565436D01*
X5531968Y-15565436D02*
X5522444Y-15574960D01*
X5522444Y-15574960D02*
X5503396Y-15584484D01*
X5503396Y-15584484D02*
X5484348Y-15584484D01*
X5484348Y-15584484D02*
X5465301Y-15574960D01*
X5465301Y-15574960D02*
X5455777Y-15565436D01*
X5455777Y-15565436D02*
X5446253Y-15546388D01*
X5446253Y-15546388D02*
X5436729Y-15508293D01*
X5436729Y-15508293D02*
X5436729Y-15460674D01*
X5436729Y-15460674D02*
X5446253Y-15422579D01*
X5446253Y-15422579D02*
X5455777Y-15403531D01*
X5455777Y-15403531D02*
X5465301Y-15394008D01*
X5465301Y-15394008D02*
X5484348Y-15384484D01*
X5722444Y-15451150D02*
X5722444Y-15584484D01*
X5674825Y-15374960D02*
X5627206Y-15517817D01*
X5627206Y-15517817D02*
X5751015Y-15517817D01*
X5912920Y-15451150D02*
X5912920Y-15584484D01*
X5865301Y-15374960D02*
X5817682Y-15517817D01*
X5817682Y-15517817D02*
X5941491Y-15517817D01*
X6122444Y-15584484D02*
X6008158Y-15584484D01*
X6065301Y-15584484D02*
X6065301Y-15384484D01*
X6065301Y-15384484D02*
X6046253Y-15413055D01*
X6046253Y-15413055D02*
X6027206Y-15432103D01*
X6027206Y-15432103D02*
X6008158Y-15441627D01*
X6198634Y-15384484D02*
X6198634Y-15422579D01*
X6274825Y-15384484D02*
X6274825Y-15422579D01*
X6570063Y-15660674D02*
X6560539Y-15651150D01*
X6560539Y-15651150D02*
X6541491Y-15622579D01*
X6541491Y-15622579D02*
X6531968Y-15603531D01*
X6531968Y-15603531D02*
X6522444Y-15574960D01*
X6522444Y-15574960D02*
X6512920Y-15527341D01*
X6512920Y-15527341D02*
X6512920Y-15489246D01*
X6512920Y-15489246D02*
X6522444Y-15441627D01*
X6522444Y-15441627D02*
X6531968Y-15413055D01*
X6531968Y-15413055D02*
X6541491Y-15394008D01*
X6541491Y-15394008D02*
X6560539Y-15365436D01*
X6560539Y-15365436D02*
X6570063Y-15355912D01*
X6636729Y-15403531D02*
X6646253Y-15394008D01*
X6646253Y-15394008D02*
X6665301Y-15384484D01*
X6665301Y-15384484D02*
X6712920Y-15384484D01*
X6712920Y-15384484D02*
X6731968Y-15394008D01*
X6731968Y-15394008D02*
X6741491Y-15403531D01*
X6741491Y-15403531D02*
X6751015Y-15422579D01*
X6751015Y-15422579D02*
X6751015Y-15441627D01*
X6751015Y-15441627D02*
X6741491Y-15470198D01*
X6741491Y-15470198D02*
X6627206Y-15584484D01*
X6627206Y-15584484D02*
X6751015Y-15584484D01*
X6989110Y-15584484D02*
X6989110Y-15384484D01*
X7074825Y-15584484D02*
X7074825Y-15479722D01*
X7074825Y-15479722D02*
X7065301Y-15460674D01*
X7065301Y-15460674D02*
X7046253Y-15451150D01*
X7046253Y-15451150D02*
X7017682Y-15451150D01*
X7017682Y-15451150D02*
X6998634Y-15460674D01*
X6998634Y-15460674D02*
X6989110Y-15470198D01*
X7198634Y-15584484D02*
X7179587Y-15574960D01*
X7179587Y-15574960D02*
X7170063Y-15565436D01*
X7170063Y-15565436D02*
X7160539Y-15546388D01*
X7160539Y-15546388D02*
X7160539Y-15489246D01*
X7160539Y-15489246D02*
X7170063Y-15470198D01*
X7170063Y-15470198D02*
X7179587Y-15460674D01*
X7179587Y-15460674D02*
X7198634Y-15451150D01*
X7198634Y-15451150D02*
X7227206Y-15451150D01*
X7227206Y-15451150D02*
X7246253Y-15460674D01*
X7246253Y-15460674D02*
X7255777Y-15470198D01*
X7255777Y-15470198D02*
X7265301Y-15489246D01*
X7265301Y-15489246D02*
X7265301Y-15546388D01*
X7265301Y-15546388D02*
X7255777Y-15565436D01*
X7255777Y-15565436D02*
X7246253Y-15574960D01*
X7246253Y-15574960D02*
X7227206Y-15584484D01*
X7227206Y-15584484D02*
X7198634Y-15584484D01*
X7379587Y-15584484D02*
X7360539Y-15574960D01*
X7360539Y-15574960D02*
X7351015Y-15555912D01*
X7351015Y-15555912D02*
X7351015Y-15384484D01*
X7531968Y-15574960D02*
X7512920Y-15584484D01*
X7512920Y-15584484D02*
X7474825Y-15584484D01*
X7474825Y-15584484D02*
X7455777Y-15574960D01*
X7455777Y-15574960D02*
X7446253Y-15555912D01*
X7446253Y-15555912D02*
X7446253Y-15479722D01*
X7446253Y-15479722D02*
X7455777Y-15460674D01*
X7455777Y-15460674D02*
X7474825Y-15451150D01*
X7474825Y-15451150D02*
X7512920Y-15451150D01*
X7512920Y-15451150D02*
X7531968Y-15460674D01*
X7531968Y-15460674D02*
X7541491Y-15479722D01*
X7541491Y-15479722D02*
X7541491Y-15498769D01*
X7541491Y-15498769D02*
X7446253Y-15517817D01*
X7617682Y-15574960D02*
X7636730Y-15584484D01*
X7636730Y-15584484D02*
X7674825Y-15584484D01*
X7674825Y-15584484D02*
X7693872Y-15574960D01*
X7693872Y-15574960D02*
X7703396Y-15555912D01*
X7703396Y-15555912D02*
X7703396Y-15546388D01*
X7703396Y-15546388D02*
X7693872Y-15527341D01*
X7693872Y-15527341D02*
X7674825Y-15517817D01*
X7674825Y-15517817D02*
X7646253Y-15517817D01*
X7646253Y-15517817D02*
X7627206Y-15508293D01*
X7627206Y-15508293D02*
X7617682Y-15489246D01*
X7617682Y-15489246D02*
X7617682Y-15479722D01*
X7617682Y-15479722D02*
X7627206Y-15460674D01*
X7627206Y-15460674D02*
X7646253Y-15451150D01*
X7646253Y-15451150D02*
X7674825Y-15451150D01*
X7674825Y-15451150D02*
X7693872Y-15460674D01*
X7770063Y-15660674D02*
X7779587Y-15651150D01*
X7779587Y-15651150D02*
X7798634Y-15622579D01*
X7798634Y-15622579D02*
X7808158Y-15603531D01*
X7808158Y-15603531D02*
X7817682Y-15574960D01*
X7817682Y-15574960D02*
X7827206Y-15527341D01*
X7827206Y-15527341D02*
X7827206Y-15489246D01*
X7827206Y-15489246D02*
X7817682Y-15441627D01*
X7817682Y-15441627D02*
X7808158Y-15413055D01*
X7808158Y-15413055D02*
X7798634Y-15394008D01*
X7798634Y-15394008D02*
X7779587Y-15365436D01*
X7779587Y-15365436D02*
X7770063Y-15355912D01*
X2795000Y-15657000D02*
X2995000Y-15857000D01*
X2995000Y-15657000D02*
X2795000Y-15857000D01*
X2895000Y-15857000D02*
X2995000Y-15757000D01*
X2895000Y-15657000D01*
X2795000Y-15757000D01*
X2895000Y-15857000D01*
X3236729Y-15648484D02*
X3360539Y-15648484D01*
X3360539Y-15648484D02*
X3293872Y-15724674D01*
X3293872Y-15724674D02*
X3322443Y-15724674D01*
X3322443Y-15724674D02*
X3341491Y-15734198D01*
X3341491Y-15734198D02*
X3351015Y-15743722D01*
X3351015Y-15743722D02*
X3360539Y-15762769D01*
X3360539Y-15762769D02*
X3360539Y-15810388D01*
X3360539Y-15810388D02*
X3351015Y-15829436D01*
X3351015Y-15829436D02*
X3341491Y-15838960D01*
X3341491Y-15838960D02*
X3322443Y-15848484D01*
X3322443Y-15848484D02*
X3265301Y-15848484D01*
X3265301Y-15848484D02*
X3246253Y-15838960D01*
X3246253Y-15838960D02*
X3236729Y-15829436D01*
X3446253Y-15829436D02*
X3455777Y-15838960D01*
X3455777Y-15838960D02*
X3446253Y-15848484D01*
X3446253Y-15848484D02*
X3436729Y-15838960D01*
X3436729Y-15838960D02*
X3446253Y-15829436D01*
X3446253Y-15829436D02*
X3446253Y-15848484D01*
X3531967Y-15667531D02*
X3541491Y-15658008D01*
X3541491Y-15658008D02*
X3560539Y-15648484D01*
X3560539Y-15648484D02*
X3608158Y-15648484D01*
X3608158Y-15648484D02*
X3627205Y-15658008D01*
X3627205Y-15658008D02*
X3636729Y-15667531D01*
X3636729Y-15667531D02*
X3646253Y-15686579D01*
X3646253Y-15686579D02*
X3646253Y-15705627D01*
X3646253Y-15705627D02*
X3636729Y-15734198D01*
X3636729Y-15734198D02*
X3522443Y-15848484D01*
X3522443Y-15848484D02*
X3646253Y-15848484D01*
X3770062Y-15648484D02*
X3789110Y-15648484D01*
X3789110Y-15648484D02*
X3808158Y-15658008D01*
X3808158Y-15658008D02*
X3817682Y-15667531D01*
X3817682Y-15667531D02*
X3827205Y-15686579D01*
X3827205Y-15686579D02*
X3836729Y-15724674D01*
X3836729Y-15724674D02*
X3836729Y-15772293D01*
X3836729Y-15772293D02*
X3827205Y-15810388D01*
X3827205Y-15810388D02*
X3817682Y-15829436D01*
X3817682Y-15829436D02*
X3808158Y-15838960D01*
X3808158Y-15838960D02*
X3789110Y-15848484D01*
X3789110Y-15848484D02*
X3770062Y-15848484D01*
X3770062Y-15848484D02*
X3751015Y-15838960D01*
X3751015Y-15838960D02*
X3741491Y-15829436D01*
X3741491Y-15829436D02*
X3731967Y-15810388D01*
X3731967Y-15810388D02*
X3722443Y-15772293D01*
X3722443Y-15772293D02*
X3722443Y-15724674D01*
X3722443Y-15724674D02*
X3731967Y-15686579D01*
X3731967Y-15686579D02*
X3741491Y-15667531D01*
X3741491Y-15667531D02*
X3751015Y-15658008D01*
X3751015Y-15658008D02*
X3770062Y-15648484D01*
X3960539Y-15648484D02*
X3979586Y-15648484D01*
X3979586Y-15648484D02*
X3998634Y-15658008D01*
X3998634Y-15658008D02*
X4008158Y-15667531D01*
X4008158Y-15667531D02*
X4017682Y-15686579D01*
X4017682Y-15686579D02*
X4027205Y-15724674D01*
X4027205Y-15724674D02*
X4027205Y-15772293D01*
X4027205Y-15772293D02*
X4017682Y-15810388D01*
X4017682Y-15810388D02*
X4008158Y-15829436D01*
X4008158Y-15829436D02*
X3998634Y-15838960D01*
X3998634Y-15838960D02*
X3979586Y-15848484D01*
X3979586Y-15848484D02*
X3960539Y-15848484D01*
X3960539Y-15848484D02*
X3941491Y-15838960D01*
X3941491Y-15838960D02*
X3931967Y-15829436D01*
X3931967Y-15829436D02*
X3922443Y-15810388D01*
X3922443Y-15810388D02*
X3912920Y-15772293D01*
X3912920Y-15772293D02*
X3912920Y-15724674D01*
X3912920Y-15724674D02*
X3922443Y-15686579D01*
X3922443Y-15686579D02*
X3931967Y-15667531D01*
X3931967Y-15667531D02*
X3941491Y-15658008D01*
X3941491Y-15658008D02*
X3960539Y-15648484D01*
X4112920Y-15848484D02*
X4112920Y-15715150D01*
X4112920Y-15734198D02*
X4122443Y-15724674D01*
X4122443Y-15724674D02*
X4141491Y-15715150D01*
X4141491Y-15715150D02*
X4170063Y-15715150D01*
X4170063Y-15715150D02*
X4189110Y-15724674D01*
X4189110Y-15724674D02*
X4198634Y-15743722D01*
X4198634Y-15743722D02*
X4198634Y-15848484D01*
X4198634Y-15743722D02*
X4208158Y-15724674D01*
X4208158Y-15724674D02*
X4227205Y-15715150D01*
X4227205Y-15715150D02*
X4255777Y-15715150D01*
X4255777Y-15715150D02*
X4274825Y-15724674D01*
X4274825Y-15724674D02*
X4284348Y-15743722D01*
X4284348Y-15743722D02*
X4284348Y-15848484D01*
X4379586Y-15848484D02*
X4379586Y-15715150D01*
X4379586Y-15734198D02*
X4389110Y-15724674D01*
X4389110Y-15724674D02*
X4408158Y-15715150D01*
X4408158Y-15715150D02*
X4436729Y-15715150D01*
X4436729Y-15715150D02*
X4455777Y-15724674D01*
X4455777Y-15724674D02*
X4465301Y-15743722D01*
X4465301Y-15743722D02*
X4465301Y-15848484D01*
X4465301Y-15743722D02*
X4474825Y-15724674D01*
X4474825Y-15724674D02*
X4493872Y-15715150D01*
X4493872Y-15715150D02*
X4522444Y-15715150D01*
X4522444Y-15715150D02*
X4541491Y-15724674D01*
X4541491Y-15724674D02*
X4551015Y-15743722D01*
X4551015Y-15743722D02*
X4551015Y-15848484D01*
X4941491Y-15638960D02*
X4770063Y-15896103D01*
X5198634Y-15648484D02*
X5217682Y-15648484D01*
X5217682Y-15648484D02*
X5236729Y-15658008D01*
X5236729Y-15658008D02*
X5246253Y-15667531D01*
X5246253Y-15667531D02*
X5255777Y-15686579D01*
X5255777Y-15686579D02*
X5265301Y-15724674D01*
X5265301Y-15724674D02*
X5265301Y-15772293D01*
X5265301Y-15772293D02*
X5255777Y-15810388D01*
X5255777Y-15810388D02*
X5246253Y-15829436D01*
X5246253Y-15829436D02*
X5236729Y-15838960D01*
X5236729Y-15838960D02*
X5217682Y-15848484D01*
X5217682Y-15848484D02*
X5198634Y-15848484D01*
X5198634Y-15848484D02*
X5179587Y-15838960D01*
X5179587Y-15838960D02*
X5170063Y-15829436D01*
X5170063Y-15829436D02*
X5160539Y-15810388D01*
X5160539Y-15810388D02*
X5151015Y-15772293D01*
X5151015Y-15772293D02*
X5151015Y-15724674D01*
X5151015Y-15724674D02*
X5160539Y-15686579D01*
X5160539Y-15686579D02*
X5170063Y-15667531D01*
X5170063Y-15667531D02*
X5179587Y-15658008D01*
X5179587Y-15658008D02*
X5198634Y-15648484D01*
X5351015Y-15829436D02*
X5360539Y-15838960D01*
X5360539Y-15838960D02*
X5351015Y-15848484D01*
X5351015Y-15848484D02*
X5341491Y-15838960D01*
X5341491Y-15838960D02*
X5351015Y-15829436D01*
X5351015Y-15829436D02*
X5351015Y-15848484D01*
X5551015Y-15848484D02*
X5436729Y-15848484D01*
X5493872Y-15848484D02*
X5493872Y-15648484D01*
X5493872Y-15648484D02*
X5474825Y-15677055D01*
X5474825Y-15677055D02*
X5455777Y-15696103D01*
X5455777Y-15696103D02*
X5436729Y-15705627D01*
X5627206Y-15667531D02*
X5636729Y-15658008D01*
X5636729Y-15658008D02*
X5655777Y-15648484D01*
X5655777Y-15648484D02*
X5703396Y-15648484D01*
X5703396Y-15648484D02*
X5722444Y-15658008D01*
X5722444Y-15658008D02*
X5731967Y-15667531D01*
X5731967Y-15667531D02*
X5741491Y-15686579D01*
X5741491Y-15686579D02*
X5741491Y-15705627D01*
X5741491Y-15705627D02*
X5731967Y-15734198D01*
X5731967Y-15734198D02*
X5617682Y-15848484D01*
X5617682Y-15848484D02*
X5741491Y-15848484D01*
X5912920Y-15648484D02*
X5874825Y-15648484D01*
X5874825Y-15648484D02*
X5855777Y-15658008D01*
X5855777Y-15658008D02*
X5846253Y-15667531D01*
X5846253Y-15667531D02*
X5827206Y-15696103D01*
X5827206Y-15696103D02*
X5817682Y-15734198D01*
X5817682Y-15734198D02*
X5817682Y-15810388D01*
X5817682Y-15810388D02*
X5827206Y-15829436D01*
X5827206Y-15829436D02*
X5836729Y-15838960D01*
X5836729Y-15838960D02*
X5855777Y-15848484D01*
X5855777Y-15848484D02*
X5893872Y-15848484D01*
X5893872Y-15848484D02*
X5912920Y-15838960D01*
X5912920Y-15838960D02*
X5922444Y-15829436D01*
X5922444Y-15829436D02*
X5931967Y-15810388D01*
X5931967Y-15810388D02*
X5931967Y-15762769D01*
X5931967Y-15762769D02*
X5922444Y-15743722D01*
X5922444Y-15743722D02*
X5912920Y-15734198D01*
X5912920Y-15734198D02*
X5893872Y-15724674D01*
X5893872Y-15724674D02*
X5855777Y-15724674D01*
X5855777Y-15724674D02*
X5836729Y-15734198D01*
X5836729Y-15734198D02*
X5827206Y-15743722D01*
X5827206Y-15743722D02*
X5817682Y-15762769D01*
X6055777Y-15648484D02*
X6074825Y-15648484D01*
X6074825Y-15648484D02*
X6093872Y-15658008D01*
X6093872Y-15658008D02*
X6103396Y-15667531D01*
X6103396Y-15667531D02*
X6112920Y-15686579D01*
X6112920Y-15686579D02*
X6122444Y-15724674D01*
X6122444Y-15724674D02*
X6122444Y-15772293D01*
X6122444Y-15772293D02*
X6112920Y-15810388D01*
X6112920Y-15810388D02*
X6103396Y-15829436D01*
X6103396Y-15829436D02*
X6093872Y-15838960D01*
X6093872Y-15838960D02*
X6074825Y-15848484D01*
X6074825Y-15848484D02*
X6055777Y-15848484D01*
X6055777Y-15848484D02*
X6036729Y-15838960D01*
X6036729Y-15838960D02*
X6027206Y-15829436D01*
X6027206Y-15829436D02*
X6017682Y-15810388D01*
X6017682Y-15810388D02*
X6008158Y-15772293D01*
X6008158Y-15772293D02*
X6008158Y-15724674D01*
X6008158Y-15724674D02*
X6017682Y-15686579D01*
X6017682Y-15686579D02*
X6027206Y-15667531D01*
X6027206Y-15667531D02*
X6036729Y-15658008D01*
X6036729Y-15658008D02*
X6055777Y-15648484D01*
X6198634Y-15648484D02*
X6198634Y-15686579D01*
X6274825Y-15648484D02*
X6274825Y-15686579D01*
X6570063Y-15924674D02*
X6560539Y-15915150D01*
X6560539Y-15915150D02*
X6541491Y-15886579D01*
X6541491Y-15886579D02*
X6531968Y-15867531D01*
X6531968Y-15867531D02*
X6522444Y-15838960D01*
X6522444Y-15838960D02*
X6512920Y-15791341D01*
X6512920Y-15791341D02*
X6512920Y-15753246D01*
X6512920Y-15753246D02*
X6522444Y-15705627D01*
X6522444Y-15705627D02*
X6531968Y-15677055D01*
X6531968Y-15677055D02*
X6541491Y-15658008D01*
X6541491Y-15658008D02*
X6560539Y-15629436D01*
X6560539Y-15629436D02*
X6570063Y-15619912D01*
X6731968Y-15648484D02*
X6693872Y-15648484D01*
X6693872Y-15648484D02*
X6674825Y-15658008D01*
X6674825Y-15658008D02*
X6665301Y-15667531D01*
X6665301Y-15667531D02*
X6646253Y-15696103D01*
X6646253Y-15696103D02*
X6636729Y-15734198D01*
X6636729Y-15734198D02*
X6636729Y-15810388D01*
X6636729Y-15810388D02*
X6646253Y-15829436D01*
X6646253Y-15829436D02*
X6655777Y-15838960D01*
X6655777Y-15838960D02*
X6674825Y-15848484D01*
X6674825Y-15848484D02*
X6712920Y-15848484D01*
X6712920Y-15848484D02*
X6731968Y-15838960D01*
X6731968Y-15838960D02*
X6741491Y-15829436D01*
X6741491Y-15829436D02*
X6751015Y-15810388D01*
X6751015Y-15810388D02*
X6751015Y-15762769D01*
X6751015Y-15762769D02*
X6741491Y-15743722D01*
X6741491Y-15743722D02*
X6731968Y-15734198D01*
X6731968Y-15734198D02*
X6712920Y-15724674D01*
X6712920Y-15724674D02*
X6674825Y-15724674D01*
X6674825Y-15724674D02*
X6655777Y-15734198D01*
X6655777Y-15734198D02*
X6646253Y-15743722D01*
X6646253Y-15743722D02*
X6636729Y-15762769D01*
X6989110Y-15848484D02*
X6989110Y-15648484D01*
X7074825Y-15848484D02*
X7074825Y-15743722D01*
X7074825Y-15743722D02*
X7065301Y-15724674D01*
X7065301Y-15724674D02*
X7046253Y-15715150D01*
X7046253Y-15715150D02*
X7017682Y-15715150D01*
X7017682Y-15715150D02*
X6998634Y-15724674D01*
X6998634Y-15724674D02*
X6989110Y-15734198D01*
X7198634Y-15848484D02*
X7179587Y-15838960D01*
X7179587Y-15838960D02*
X7170063Y-15829436D01*
X7170063Y-15829436D02*
X7160539Y-15810388D01*
X7160539Y-15810388D02*
X7160539Y-15753246D01*
X7160539Y-15753246D02*
X7170063Y-15734198D01*
X7170063Y-15734198D02*
X7179587Y-15724674D01*
X7179587Y-15724674D02*
X7198634Y-15715150D01*
X7198634Y-15715150D02*
X7227206Y-15715150D01*
X7227206Y-15715150D02*
X7246253Y-15724674D01*
X7246253Y-15724674D02*
X7255777Y-15734198D01*
X7255777Y-15734198D02*
X7265301Y-15753246D01*
X7265301Y-15753246D02*
X7265301Y-15810388D01*
X7265301Y-15810388D02*
X7255777Y-15829436D01*
X7255777Y-15829436D02*
X7246253Y-15838960D01*
X7246253Y-15838960D02*
X7227206Y-15848484D01*
X7227206Y-15848484D02*
X7198634Y-15848484D01*
X7379587Y-15848484D02*
X7360539Y-15838960D01*
X7360539Y-15838960D02*
X7351015Y-15819912D01*
X7351015Y-15819912D02*
X7351015Y-15648484D01*
X7531968Y-15838960D02*
X7512920Y-15848484D01*
X7512920Y-15848484D02*
X7474825Y-15848484D01*
X7474825Y-15848484D02*
X7455777Y-15838960D01*
X7455777Y-15838960D02*
X7446253Y-15819912D01*
X7446253Y-15819912D02*
X7446253Y-15743722D01*
X7446253Y-15743722D02*
X7455777Y-15724674D01*
X7455777Y-15724674D02*
X7474825Y-15715150D01*
X7474825Y-15715150D02*
X7512920Y-15715150D01*
X7512920Y-15715150D02*
X7531968Y-15724674D01*
X7531968Y-15724674D02*
X7541491Y-15743722D01*
X7541491Y-15743722D02*
X7541491Y-15762769D01*
X7541491Y-15762769D02*
X7446253Y-15781817D01*
X7617682Y-15838960D02*
X7636730Y-15848484D01*
X7636730Y-15848484D02*
X7674825Y-15848484D01*
X7674825Y-15848484D02*
X7693872Y-15838960D01*
X7693872Y-15838960D02*
X7703396Y-15819912D01*
X7703396Y-15819912D02*
X7703396Y-15810388D01*
X7703396Y-15810388D02*
X7693872Y-15791341D01*
X7693872Y-15791341D02*
X7674825Y-15781817D01*
X7674825Y-15781817D02*
X7646253Y-15781817D01*
X7646253Y-15781817D02*
X7627206Y-15772293D01*
X7627206Y-15772293D02*
X7617682Y-15753246D01*
X7617682Y-15753246D02*
X7617682Y-15743722D01*
X7617682Y-15743722D02*
X7627206Y-15724674D01*
X7627206Y-15724674D02*
X7646253Y-15715150D01*
X7646253Y-15715150D02*
X7674825Y-15715150D01*
X7674825Y-15715150D02*
X7693872Y-15724674D01*
X7770063Y-15924674D02*
X7779587Y-15915150D01*
X7779587Y-15915150D02*
X7798634Y-15886579D01*
X7798634Y-15886579D02*
X7808158Y-15867531D01*
X7808158Y-15867531D02*
X7817682Y-15838960D01*
X7817682Y-15838960D02*
X7827206Y-15791341D01*
X7827206Y-15791341D02*
X7827206Y-15753246D01*
X7827206Y-15753246D02*
X7817682Y-15705627D01*
X7817682Y-15705627D02*
X7808158Y-15677055D01*
X7808158Y-15677055D02*
X7798634Y-15658008D01*
X7798634Y-15658008D02*
X7779587Y-15629436D01*
X7779587Y-15629436D02*
X7770063Y-15619912D01*
X8131968Y-15924674D02*
X8122444Y-15915150D01*
X8122444Y-15915150D02*
X8103396Y-15886579D01*
X8103396Y-15886579D02*
X8093872Y-15867531D01*
X8093872Y-15867531D02*
X8084349Y-15838960D01*
X8084349Y-15838960D02*
X8074825Y-15791341D01*
X8074825Y-15791341D02*
X8074825Y-15753246D01*
X8074825Y-15753246D02*
X8084349Y-15705627D01*
X8084349Y-15705627D02*
X8093872Y-15677055D01*
X8093872Y-15677055D02*
X8103396Y-15658008D01*
X8103396Y-15658008D02*
X8122444Y-15629436D01*
X8122444Y-15629436D02*
X8131968Y-15619912D01*
X8208158Y-15715150D02*
X8208158Y-15848484D01*
X8208158Y-15734198D02*
X8217682Y-15724674D01*
X8217682Y-15724674D02*
X8236730Y-15715150D01*
X8236730Y-15715150D02*
X8265301Y-15715150D01*
X8265301Y-15715150D02*
X8284349Y-15724674D01*
X8284349Y-15724674D02*
X8293872Y-15743722D01*
X8293872Y-15743722D02*
X8293872Y-15848484D01*
X8417682Y-15848484D02*
X8398634Y-15838960D01*
X8398634Y-15838960D02*
X8389111Y-15829436D01*
X8389111Y-15829436D02*
X8379587Y-15810388D01*
X8379587Y-15810388D02*
X8379587Y-15753246D01*
X8379587Y-15753246D02*
X8389111Y-15734198D01*
X8389111Y-15734198D02*
X8398634Y-15724674D01*
X8398634Y-15724674D02*
X8417682Y-15715150D01*
X8417682Y-15715150D02*
X8446254Y-15715150D01*
X8446254Y-15715150D02*
X8465301Y-15724674D01*
X8465301Y-15724674D02*
X8474825Y-15734198D01*
X8474825Y-15734198D02*
X8484349Y-15753246D01*
X8484349Y-15753246D02*
X8484349Y-15810388D01*
X8484349Y-15810388D02*
X8474825Y-15829436D01*
X8474825Y-15829436D02*
X8465301Y-15838960D01*
X8465301Y-15838960D02*
X8446254Y-15848484D01*
X8446254Y-15848484D02*
X8417682Y-15848484D01*
X8541492Y-15715150D02*
X8617682Y-15715150D01*
X8570063Y-15648484D02*
X8570063Y-15819912D01*
X8570063Y-15819912D02*
X8579587Y-15838960D01*
X8579587Y-15838960D02*
X8598634Y-15848484D01*
X8598634Y-15848484D02*
X8617682Y-15848484D01*
X8836730Y-15715150D02*
X8836730Y-15915150D01*
X8836730Y-15724674D02*
X8855777Y-15715150D01*
X8855777Y-15715150D02*
X8893873Y-15715150D01*
X8893873Y-15715150D02*
X8912920Y-15724674D01*
X8912920Y-15724674D02*
X8922444Y-15734198D01*
X8922444Y-15734198D02*
X8931968Y-15753246D01*
X8931968Y-15753246D02*
X8931968Y-15810388D01*
X8931968Y-15810388D02*
X8922444Y-15829436D01*
X8922444Y-15829436D02*
X8912920Y-15838960D01*
X8912920Y-15838960D02*
X8893873Y-15848484D01*
X8893873Y-15848484D02*
X8855777Y-15848484D01*
X8855777Y-15848484D02*
X8836730Y-15838960D01*
X9046254Y-15848484D02*
X9027206Y-15838960D01*
X9027206Y-15838960D02*
X9017682Y-15819912D01*
X9017682Y-15819912D02*
X9017682Y-15648484D01*
X9208158Y-15848484D02*
X9208158Y-15743722D01*
X9208158Y-15743722D02*
X9198635Y-15724674D01*
X9198635Y-15724674D02*
X9179587Y-15715150D01*
X9179587Y-15715150D02*
X9141492Y-15715150D01*
X9141492Y-15715150D02*
X9122444Y-15724674D01*
X9208158Y-15838960D02*
X9189111Y-15848484D01*
X9189111Y-15848484D02*
X9141492Y-15848484D01*
X9141492Y-15848484D02*
X9122444Y-15838960D01*
X9122444Y-15838960D02*
X9112920Y-15819912D01*
X9112920Y-15819912D02*
X9112920Y-15800865D01*
X9112920Y-15800865D02*
X9122444Y-15781817D01*
X9122444Y-15781817D02*
X9141492Y-15772293D01*
X9141492Y-15772293D02*
X9189111Y-15772293D01*
X9189111Y-15772293D02*
X9208158Y-15762769D01*
X9274825Y-15715150D02*
X9351015Y-15715150D01*
X9303396Y-15648484D02*
X9303396Y-15819912D01*
X9303396Y-15819912D02*
X9312920Y-15838960D01*
X9312920Y-15838960D02*
X9331968Y-15848484D01*
X9331968Y-15848484D02*
X9351015Y-15848484D01*
X9493873Y-15838960D02*
X9474825Y-15848484D01*
X9474825Y-15848484D02*
X9436730Y-15848484D01*
X9436730Y-15848484D02*
X9417682Y-15838960D01*
X9417682Y-15838960D02*
X9408158Y-15819912D01*
X9408158Y-15819912D02*
X9408158Y-15743722D01*
X9408158Y-15743722D02*
X9417682Y-15724674D01*
X9417682Y-15724674D02*
X9436730Y-15715150D01*
X9436730Y-15715150D02*
X9474825Y-15715150D01*
X9474825Y-15715150D02*
X9493873Y-15724674D01*
X9493873Y-15724674D02*
X9503396Y-15743722D01*
X9503396Y-15743722D02*
X9503396Y-15762769D01*
X9503396Y-15762769D02*
X9408158Y-15781817D01*
X9674825Y-15848484D02*
X9674825Y-15648484D01*
X9674825Y-15838960D02*
X9655777Y-15848484D01*
X9655777Y-15848484D02*
X9617682Y-15848484D01*
X9617682Y-15848484D02*
X9598635Y-15838960D01*
X9598635Y-15838960D02*
X9589111Y-15829436D01*
X9589111Y-15829436D02*
X9579587Y-15810388D01*
X9579587Y-15810388D02*
X9579587Y-15753246D01*
X9579587Y-15753246D02*
X9589111Y-15734198D01*
X9589111Y-15734198D02*
X9598635Y-15724674D01*
X9598635Y-15724674D02*
X9617682Y-15715150D01*
X9617682Y-15715150D02*
X9655777Y-15715150D01*
X9655777Y-15715150D02*
X9674825Y-15724674D01*
X9751016Y-15924674D02*
X9760539Y-15915150D01*
X9760539Y-15915150D02*
X9779587Y-15886579D01*
X9779587Y-15886579D02*
X9789111Y-15867531D01*
X9789111Y-15867531D02*
X9798635Y-15838960D01*
X9798635Y-15838960D02*
X9808158Y-15791341D01*
X9808158Y-15791341D02*
X9808158Y-15753246D01*
X9808158Y-15753246D02*
X9798635Y-15705627D01*
X9798635Y-15705627D02*
X9789111Y-15677055D01*
X9789111Y-15677055D02*
X9779587Y-15658008D01*
X9779587Y-15658008D02*
X9760539Y-15629436D01*
X9760539Y-15629436D02*
X9751016Y-15619912D01*
M02*
