%TF.GenerationSoftware,KiCad,Pcbnew,7.0.10-7.0.10~ubuntu22.04.1*%
%TF.CreationDate,2024-04-10T12:24:55+09:00*%
%TF.ProjectId,sbc6502a1,73626336-3530-4326-9131-2e6b69636164,rev?*%
%TF.SameCoordinates,Original*%
%TF.FileFunction,Soldermask,Top*%
%TF.FilePolarity,Negative*%
%FSLAX46Y46*%
G04 Gerber Fmt 4.6, Leading zero omitted, Abs format (unit mm)*
G04 Created by KiCad (PCBNEW 7.0.10-7.0.10~ubuntu22.04.1) date 2024-04-10 12:24:55*
%MOMM*%
%LPD*%
G01*
G04 APERTURE LIST*
%ADD10R,1.600000X1.600000*%
%ADD11C,1.600000*%
%ADD12R,1.700000X1.700000*%
%ADD13O,1.700000X1.700000*%
%ADD14C,3.200000*%
%ADD15O,1.600000X1.600000*%
%ADD16C,1.800000*%
%ADD17C,1.562000*%
%ADD18C,1.400000*%
%ADD19O,1.400000X1.400000*%
%ADD20O,2.062000X1.362000*%
%ADD21C,1.882000*%
%ADD22R,2.000000X2.000000*%
%ADD23C,2.000000*%
G04 APERTURE END LIST*
D10*
%TO.C,X1*%
X56591200Y-40792400D03*
D11*
X48971200Y-40792400D03*
X48971200Y-48412400D03*
X56591200Y-48412400D03*
%TD*%
D12*
%TO.C,J1*%
X55880000Y-33020000D03*
D13*
X55880000Y-35560000D03*
X58420000Y-33020000D03*
X58420000Y-35560000D03*
X60960000Y-33020000D03*
X60960000Y-35560000D03*
X63500000Y-33020000D03*
X63500000Y-35560000D03*
X66040000Y-33020000D03*
X66040000Y-35560000D03*
X68580000Y-33020000D03*
X68580000Y-35560000D03*
X71120000Y-33020000D03*
X71120000Y-35560000D03*
X73660000Y-33020000D03*
X73660000Y-35560000D03*
X76200000Y-33020000D03*
X76200000Y-35560000D03*
X78740000Y-33020000D03*
X78740000Y-35560000D03*
X81280000Y-33020000D03*
X81280000Y-35560000D03*
X83820000Y-33020000D03*
X83820000Y-35560000D03*
X86360000Y-33020000D03*
X86360000Y-35560000D03*
X88900000Y-33020000D03*
X88900000Y-35560000D03*
X91440000Y-33020000D03*
X91440000Y-35560000D03*
X93980000Y-33020000D03*
X93980000Y-35560000D03*
X96520000Y-33020000D03*
X96520000Y-35560000D03*
X99060000Y-33020000D03*
X99060000Y-35560000D03*
X101600000Y-33020000D03*
X101600000Y-35560000D03*
X104140000Y-33020000D03*
X104140000Y-35560000D03*
%TD*%
D14*
%TO.C,H6*%
X122000000Y-127000000D03*
%TD*%
D11*
%TO.C,C1*%
X90616400Y-104168800D03*
X85616400Y-104168800D03*
%TD*%
%TO.C,C4*%
X38876600Y-71961600D03*
X33876600Y-71961600D03*
%TD*%
D10*
%TO.C,A1*%
X74502000Y-106541000D03*
D15*
X71962000Y-106541000D03*
X69422000Y-106541000D03*
X66882000Y-106541000D03*
X64342000Y-106541000D03*
X61802000Y-106541000D03*
X59262000Y-106541000D03*
X56722000Y-106541000D03*
X54182000Y-106541000D03*
X51642000Y-106541000D03*
X49102000Y-106541000D03*
X46562000Y-106541000D03*
X44022000Y-106541000D03*
X41482000Y-106541000D03*
X38942000Y-106541000D03*
X38942000Y-121781000D03*
X41482000Y-121781000D03*
X44022000Y-121781000D03*
X46562000Y-121781000D03*
X49102000Y-121781000D03*
X51642000Y-121781000D03*
X54182000Y-121781000D03*
X56722000Y-121781000D03*
X59262000Y-121781000D03*
X61802000Y-121781000D03*
X64342000Y-121781000D03*
X66882000Y-121781000D03*
X69422000Y-121781000D03*
X71962000Y-121781000D03*
X74502000Y-121781000D03*
%TD*%
D10*
%TO.C,U4*%
X100821400Y-93764800D03*
D15*
X98281400Y-93764800D03*
X95741400Y-93764800D03*
X93201400Y-93764800D03*
X90661400Y-93764800D03*
X88121400Y-93764800D03*
X85581400Y-93764800D03*
X85581400Y-101384800D03*
X88121400Y-101384800D03*
X90661400Y-101384800D03*
X93201400Y-101384800D03*
X95741400Y-101384800D03*
X98281400Y-101384800D03*
X100821400Y-101384800D03*
%TD*%
D10*
%TO.C,U2*%
X33811200Y-90452800D03*
D15*
X36351200Y-90452800D03*
X38891200Y-90452800D03*
X41431200Y-90452800D03*
X43971200Y-90452800D03*
X46511200Y-90452800D03*
X49051200Y-90452800D03*
X51591200Y-90452800D03*
X54131200Y-90452800D03*
X56671200Y-90452800D03*
X59211200Y-90452800D03*
X61751200Y-90452800D03*
X64291200Y-90452800D03*
X66831200Y-90452800D03*
X69371200Y-90452800D03*
X71911200Y-90452800D03*
X74451200Y-90452800D03*
X76991200Y-90452800D03*
X79531200Y-90452800D03*
X82071200Y-90452800D03*
X82071200Y-75212800D03*
X79531200Y-75212800D03*
X76991200Y-75212800D03*
X74451200Y-75212800D03*
X71911200Y-75212800D03*
X69371200Y-75212800D03*
X66831200Y-75212800D03*
X64291200Y-75212800D03*
X61751200Y-75212800D03*
X59211200Y-75212800D03*
X56671200Y-75212800D03*
X54131200Y-75212800D03*
X51591200Y-75212800D03*
X49051200Y-75212800D03*
X46511200Y-75212800D03*
X43971200Y-75212800D03*
X41431200Y-75212800D03*
X38891200Y-75212800D03*
X36351200Y-75212800D03*
X33811200Y-75212800D03*
%TD*%
D16*
%TO.C,TP2*%
X48895000Y-35560000D03*
%TD*%
D10*
%TO.C,U5*%
X100714800Y-50270000D03*
D15*
X103254800Y-50270000D03*
X105794800Y-50270000D03*
X108334800Y-50270000D03*
X110874800Y-50270000D03*
X113414800Y-50270000D03*
X115954800Y-50270000D03*
X118494800Y-50270000D03*
X118494800Y-42650000D03*
X115954800Y-42650000D03*
X113414800Y-42650000D03*
X110874800Y-42650000D03*
X108334800Y-42650000D03*
X105794800Y-42650000D03*
X103254800Y-42650000D03*
X100714800Y-42650000D03*
%TD*%
D11*
%TO.C,C2*%
X38637600Y-40442600D03*
X33637600Y-40442600D03*
%TD*%
D10*
%TO.C,D1*%
X43365800Y-50323200D03*
D15*
X43365800Y-42703200D03*
%TD*%
D11*
%TO.C,C7*%
X100832200Y-104178800D03*
X95832200Y-104178800D03*
%TD*%
%TO.C,C11*%
X38684200Y-98784400D03*
X38684200Y-103784400D03*
%TD*%
D12*
%TO.C,JP1*%
X122000000Y-77854400D03*
D13*
X122000000Y-75314400D03*
%TD*%
D14*
%TO.C,H2*%
X122000000Y-33000000D03*
%TD*%
%TO.C,H5*%
X33000000Y-127000000D03*
%TD*%
D10*
%TO.C,U1*%
X33811200Y-68659600D03*
D15*
X36351200Y-68659600D03*
X38891200Y-68659600D03*
X41431200Y-68659600D03*
X43971200Y-68659600D03*
X46511200Y-68659600D03*
X49051200Y-68659600D03*
X51591200Y-68659600D03*
X54131200Y-68659600D03*
X56671200Y-68659600D03*
X59211200Y-68659600D03*
X61751200Y-68659600D03*
X64291200Y-68659600D03*
X66831200Y-68659600D03*
X69371200Y-68659600D03*
X71911200Y-68659600D03*
X74451200Y-68659600D03*
X76991200Y-68659600D03*
X79531200Y-68659600D03*
X82071200Y-68659600D03*
X82071200Y-53419600D03*
X79531200Y-53419600D03*
X76991200Y-53419600D03*
X74451200Y-53419600D03*
X71911200Y-53419600D03*
X69371200Y-53419600D03*
X66831200Y-53419600D03*
X64291200Y-53419600D03*
X61751200Y-53419600D03*
X59211200Y-53419600D03*
X56671200Y-53419600D03*
X54131200Y-53419600D03*
X51591200Y-53419600D03*
X49051200Y-53419600D03*
X46511200Y-53419600D03*
X43971200Y-53419600D03*
X41431200Y-53419600D03*
X38891200Y-53419600D03*
X36351200Y-53419600D03*
X33811200Y-53419600D03*
%TD*%
D16*
%TO.C,TP1*%
X40640000Y-35560000D03*
%TD*%
D14*
%TO.C,H3*%
X33000000Y-99000000D03*
%TD*%
D17*
%TO.C,SW2*%
X116880000Y-118408000D03*
X119380000Y-118408000D03*
X121880000Y-118408000D03*
%TD*%
D14*
%TO.C,H1*%
X33000000Y-33000000D03*
%TD*%
D12*
%TO.C,JP2*%
X66903600Y-125171200D03*
D13*
X64363600Y-125171200D03*
%TD*%
D18*
%TO.C,R1*%
X41003600Y-50323200D03*
D19*
X41003600Y-42703200D03*
%TD*%
D10*
%TO.C,U6*%
X118494800Y-53470400D03*
D15*
X115954800Y-53470400D03*
X113414800Y-53470400D03*
X110874800Y-53470400D03*
X108334800Y-53470400D03*
X105794800Y-53470400D03*
X103254800Y-53470400D03*
X100714800Y-53470400D03*
X98174800Y-53470400D03*
X95634800Y-53470400D03*
X93094800Y-53470400D03*
X90554800Y-53470400D03*
X88014800Y-53470400D03*
X85474800Y-53470400D03*
X85474800Y-68710400D03*
X88014800Y-68710400D03*
X90554800Y-68710400D03*
X93094800Y-68710400D03*
X95634800Y-68710400D03*
X98174800Y-68710400D03*
X100714800Y-68710400D03*
X103254800Y-68710400D03*
X105794800Y-68710400D03*
X108334800Y-68710400D03*
X110874800Y-68710400D03*
X113414800Y-68710400D03*
X115954800Y-68710400D03*
X118494800Y-68710400D03*
%TD*%
D10*
%TO.C,U3*%
X100918000Y-106962800D03*
D15*
X98378000Y-106962800D03*
X95838000Y-106962800D03*
X93298000Y-106962800D03*
X90758000Y-106962800D03*
X88218000Y-106962800D03*
X85678000Y-106962800D03*
X85678000Y-114582800D03*
X88218000Y-114582800D03*
X90758000Y-114582800D03*
X93298000Y-114582800D03*
X95838000Y-114582800D03*
X98378000Y-114582800D03*
X100918000Y-114582800D03*
%TD*%
D11*
%TO.C,C10*%
X118516400Y-93348400D03*
X113516400Y-93348400D03*
%TD*%
D14*
%TO.C,H4*%
X122000000Y-99000000D03*
%TD*%
D18*
%TO.C,R3*%
X41452800Y-92913200D03*
D19*
X49072800Y-92913200D03*
%TD*%
D10*
%TO.C,U8*%
X74527400Y-96167800D03*
D15*
X71987400Y-96167800D03*
X69447400Y-96167800D03*
X66907400Y-96167800D03*
X64367400Y-96167800D03*
X61827400Y-96167800D03*
X59287400Y-96167800D03*
X56747400Y-96167800D03*
X54207400Y-96167800D03*
X51667400Y-96167800D03*
X49127400Y-96167800D03*
X46587400Y-96167800D03*
X44047400Y-96167800D03*
X41507400Y-96167800D03*
X41507400Y-103787800D03*
X44047400Y-103787800D03*
X46587400Y-103787800D03*
X49127400Y-103787800D03*
X51667400Y-103787800D03*
X54207400Y-103787800D03*
X56747400Y-103787800D03*
X59287400Y-103787800D03*
X61827400Y-103787800D03*
X64367400Y-103787800D03*
X66907400Y-103787800D03*
X69447400Y-103787800D03*
X71987400Y-103787800D03*
X74527400Y-103787800D03*
%TD*%
D20*
%TO.C,J2*%
X122885461Y-105980000D03*
X122885461Y-114610000D03*
D21*
X119085461Y-112100000D03*
X119085461Y-108500000D03*
%TD*%
D12*
%TO.C,J3*%
X95840400Y-119805600D03*
D13*
X93300400Y-119805600D03*
X90760400Y-119805600D03*
X88220400Y-119805600D03*
X85680400Y-119805600D03*
X83140400Y-119805600D03*
%TD*%
D22*
%TO.C,C3*%
X111379000Y-110952677D03*
D23*
X111379000Y-105952677D03*
%TD*%
D10*
%TO.C,U7*%
X118517000Y-75280400D03*
D15*
X115977000Y-75280400D03*
X113437000Y-75280400D03*
X110897000Y-75280400D03*
X108357000Y-75280400D03*
X105817000Y-75280400D03*
X103277000Y-75280400D03*
X100737000Y-75280400D03*
X98197000Y-75280400D03*
X95657000Y-75280400D03*
X93117000Y-75280400D03*
X90577000Y-75280400D03*
X88037000Y-75280400D03*
X85497000Y-75280400D03*
X85497000Y-90520400D03*
X88037000Y-90520400D03*
X90577000Y-90520400D03*
X93117000Y-90520400D03*
X95657000Y-90520400D03*
X98197000Y-90520400D03*
X100737000Y-90520400D03*
X103277000Y-90520400D03*
X105817000Y-90520400D03*
X108357000Y-90520400D03*
X110897000Y-90520400D03*
X113437000Y-90520400D03*
X115977000Y-90520400D03*
X118517000Y-90520400D03*
%TD*%
D11*
%TO.C,C9*%
X118505600Y-71529800D03*
X113505600Y-71529800D03*
%TD*%
D18*
%TO.C,R2*%
X122000000Y-72190200D03*
D19*
X122000000Y-64570200D03*
%TD*%
D23*
%TO.C,SW1*%
X33862000Y-49762000D03*
X33862000Y-43262000D03*
X38362000Y-49762000D03*
X38362000Y-43262000D03*
%TD*%
D11*
%TO.C,C5*%
X38851200Y-92891200D03*
X33851200Y-92891200D03*
%TD*%
%TO.C,C6*%
X103839000Y-114582800D03*
X103839000Y-109582800D03*
%TD*%
D18*
%TO.C,R4*%
X77388800Y-125095000D03*
D19*
X69768800Y-125095000D03*
%TD*%
D10*
%TO.C,RN1*%
X41837600Y-71961600D03*
D15*
X44377600Y-71961600D03*
X46917600Y-71961600D03*
X49457600Y-71961600D03*
X51997600Y-71961600D03*
X54537600Y-71961600D03*
X57077600Y-71961600D03*
X59617600Y-71961600D03*
X62157600Y-71961600D03*
%TD*%
D11*
%TO.C,C8*%
X97844600Y-42650000D03*
X97844600Y-47650000D03*
%TD*%
M02*
